<svg width="20" height="19" viewBox="0 0 20 19" fill="none" xmlns="http://www.w3.org/2000/svg">
<g clip-path="url(#clip0_413_817)">
<path d="M10.0137 0C4.49671 0 0.0253906 4.2519 0.0253906 9.49815C0.0253906 14.7444 4.49671 18.9963 10.0137 18.9963C15.5307 18.9963 20.002 14.7444 20.002 9.49815C20.002 4.2519 15.5307 0 10.0137 0ZM10.0137 17.809C5.19511 17.809 1.27393 14.0803 1.27393 9.49815C1.27393 4.91603 5.19511 1.18727 10.0137 1.18727C14.8323 1.18727 18.7534 4.91603 18.7534 9.49815C18.7534 14.0803 14.8323 17.809 10.0137 17.809Z" fill="#BD9556"/>
<path d="M9.37207 5.93543C9.37207 6.09287 9.43784 6.24387 9.55491 6.35519C9.67199 6.46652 9.83077 6.52907 9.99634 6.52907C10.1619 6.52907 10.3207 6.46652 10.4378 6.35519C10.5548 6.24387 10.6206 6.09287 10.6206 5.93543C10.6206 5.77799 10.5548 5.627 10.4378 5.51567C10.3207 5.40434 10.1619 5.3418 9.99634 5.3418C9.83077 5.3418 9.67199 5.40434 9.55491 5.51567C9.43784 5.627 9.37207 5.77799 9.37207 5.93543Z" fill="#BD9556"/>
<path d="M10.0042 7.78125C9.6608 7.78125 9.37988 8.04839 9.37988 8.37488V13.124C9.37988 13.4505 9.6608 13.7176 10.0042 13.7176C10.3475 13.7176 10.6284 13.4505 10.6284 13.124V8.37488C10.6284 8.04839 10.3475 7.78125 10.0042 7.78125Z" fill="#BD9556"/>
</g>
<defs>
<clipPath id="clip0_413_817">
<rect width="20" height="19" fill="white"/>
</clipPath>
</defs>
</svg>
