<svg width="21" height="21" viewBox="0 0 21 21" fill="none" xmlns="http://www.w3.org/2000/svg">
<path d="M19.1172 20.25L19.0987 20.0978C18.585 15.8923 14.6283 12.4703 10.2783 12.4703C5.92832 12.4703 1.97165 15.8919 1.45832 20.0978L1.4398 20.25H0.27832L0.299061 20.0582C0.700913 16.3499 3.32239 13.0075 6.82239 11.7421L6.92906 11.7032L6.83351 11.6423C5.04425 10.503 3.9761 8.60503 3.9761 6.5644C3.9761 3.20075 6.92128 0.25 10.2783 0.25C13.6357 0.25 16.5805 3.20075 16.5805 6.56513C16.5805 8.6054 15.5124 10.5034 13.7231 11.6431L13.6276 11.7039L13.7342 11.7428C17.2342 13.0086 19.8557 16.3506 20.2576 20.059L20.2783 20.25H19.1172ZM10.2783 1.41497C7.68388 1.41497 5.13758 3.96604 5.13758 6.56477C5.13758 9.2779 7.85165 11.3053 10.2783 11.3053C12.705 11.3053 15.4191 9.27827 15.4191 6.56477C15.4191 3.96604 12.8728 1.41497 10.2783 1.41497Z" fill="#BD9556" stroke="#BD9556" stroke-width="0.5"/>
</svg>
