<svg width="23" height="23" viewBox="0 0 23 23" fill="none" xmlns="http://www.w3.org/2000/svg">
<path d="M2.71044 18.7334C1.38462 12.4124 3.42776 9.15071 6.56682 6.99568C10.4937 4.29805 14.6582 3.69875 17.7037 0.77888C19.5415 -0.983771 20.1653 0.755889 20.2419 1.04404C21.3332 5.19471 20.596 9.79599 16.3993 13.3765C11.818 17.2804 4.97736 15.6143 3.49367 22.6848C3.48714 22.711 3.47441 22.7353 3.45653 22.7556C3.43866 22.7759 3.41618 22.7915 3.39098 22.8013L2.90357 22.9791C2.87758 22.9892 2.84955 22.993 2.82182 22.99C2.79408 22.9871 2.76746 22.9776 2.74416 22.9622C2.72149 22.9477 2.70341 22.927 2.69202 22.9026C2.68062 22.8782 2.67638 22.851 2.67979 22.8243C3.05977 19.626 4.23719 16.5744 6.10393 13.9497C7.83593 11.4713 10.1887 9.1829 13.0702 6.98801C13.0932 6.97214 13.1127 6.95163 13.1273 6.92781C13.142 6.90399 13.1514 6.87738 13.1552 6.84968C13.1589 6.82197 13.1569 6.79379 13.1491 6.76694C13.1413 6.74008 13.128 6.71515 13.1101 6.69373C13.0709 6.6486 13.0167 6.61922 12.9575 6.61105C12.8983 6.60287 12.8381 6.61646 12.7882 6.64928C10.4814 8.10078 8.48581 9.62739 6.82278 11.4881C5.08466 13.4347 3.70366 15.7522 2.71044 18.7334Z" fill="#DBC4A3"/>
</svg>
