<svg width="37" height="37" viewBox="0 0 37 37" fill="none" xmlns="http://www.w3.org/2000/svg">
<path d="M20.8125 6.9375V9.25H12.7188C11.1855 9.25 9.71498 9.85909 8.63079 10.9433C7.54659 12.0275 6.9375 13.498 6.9375 15.0312V21.9688C6.9375 22.728 7.08704 23.4797 7.37757 24.1811C7.66811 24.8826 8.09395 25.5199 8.63079 26.0567C9.71498 27.1409 11.1855 27.75 12.7188 27.75H24.2812C25.0405 27.75 25.7922 27.6005 26.4936 27.3099C27.1951 27.0194 27.8324 26.5935 28.3692 26.0567C28.906 25.5199 29.3319 24.8826 29.6224 24.1811C29.913 23.4797 30.0625 22.728 30.0625 21.9688V15.0312H32.375V21.9688C32.375 24.1153 31.5223 26.174 30.0044 27.6919C28.4865 29.2098 26.4278 30.0625 24.2812 30.0625H12.7188C10.5722 30.0625 8.51348 29.2098 6.9956 27.6919C5.47773 26.174 4.625 24.1153 4.625 21.9688V15.0312C4.625 12.8847 5.47773 10.826 6.9956 9.3081C8.51348 7.79023 10.5722 6.9375 12.7188 6.9375H20.8125ZM23.4626 14.7907L25.0999 16.428L24.9727 16.5529L23.5574 17.9681L23.1019 18.4237L23.0256 18.5L25.0999 20.572L23.4626 22.2092L20.572 19.3186C20.4643 19.2112 20.3789 19.0836 20.3206 18.9432C20.2623 18.8027 20.2323 18.6521 20.2323 18.5C20.2323 18.3479 20.2623 18.1973 20.3206 18.0568C20.3789 17.9164 20.4643 17.7888 20.572 17.6814L21.1964 17.057L21.9225 16.3332L22.6856 15.5677L22.8244 15.4336L23.3377 14.9179L23.4626 14.7907ZM15.6094 15.0312V21.9688H12.7188V15.0312H15.6094ZM28.3096 4.47931C28.6033 5.6055 29.0982 6.50969 29.7943 7.20806C30.488 7.90181 31.3945 8.39669 32.523 8.69037C33.0965 8.84069 33.0965 9.65931 32.523 9.80963C31.3945 10.1033 30.488 10.5982 29.7943 11.2942C29.1005 11.988 28.6033 12.8945 28.3096 14.023C28.1593 14.5965 27.3407 14.5965 27.1904 14.023C26.8967 12.8945 26.4018 11.988 25.7057 11.2942C25.012 10.6005 24.1055 10.1033 22.977 9.80963C22.4035 9.65931 22.4035 8.84069 22.977 8.69037C24.1055 8.39669 25.012 7.90181 25.7057 7.20575C26.3995 6.512 26.8967 5.6055 27.1904 4.477C27.3407 3.9035 28.1593 3.9035 28.3096 4.477V4.47931Z" fill="#B8B8B8"/>
</svg>
