<svg width="30" height="30" viewBox="0 0 30 30" fill="none" xmlns="http://www.w3.org/2000/svg">
<path d="M18.7925 24.7344C18.2748 24.7344 17.855 25.1542 17.855 25.6719C17.855 26.7216 17.001 27.5756 15.9513 27.5756H14.1322C13.0825 27.5756 12.2285 26.7216 12.2285 25.6719C12.2285 25.1542 11.8087 24.7344 11.291 24.7344C10.7733 24.7344 10.3535 25.1542 10.3535 25.6719C10.3535 27.7555 12.0486 29.4506 14.1322 29.4506H15.9513C18.0349 29.4506 19.73 27.7555 19.73 25.6719C19.73 25.1539 19.3102 24.7344 18.7925 24.7344Z" fill="#2C2C2C"/>
<path d="M25.3174 24.3173C25.3174 24.3173 19.06 25.4362 15.0119 25.4341C10.9834 25.432 4.75684 24.3173 4.75684 24.3173C3.20439 24.3173 1.94141 23.0543 1.94141 21.5019C1.94141 19.9485 3.20498 18.685 4.7583 18.685C5.27773 18.685 5.7002 18.2625 5.7002 17.7431V13.1027C5.7002 10.6154 6.66875 8.27725 8.42744 6.51826C10.1861 4.75957 12.5246 3.79102 15.0119 3.79102C17.4992 3.79102 19.8374 4.75957 21.5964 6.51826C23.3551 8.27695 24.3236 10.6154 24.3236 13.1027V17.7431C24.3236 18.2625 24.7461 18.685 25.2655 18.685H25.3162C26.8695 18.685 28.1331 19.9485 28.1331 21.5019C28.1328 23.0543 26.8698 24.3173 25.3174 24.3173ZM15.0119 5.66602C10.9112 5.66602 7.57519 9.00205 7.57519 13.1027V17.7431C7.57519 19.2964 6.31162 20.56 4.7583 20.56C4.23887 20.56 3.81641 20.9824 3.81641 21.5019C3.81641 22.0204 4.23828 22.4423 4.75684 22.4423C4.75684 22.4423 10.9867 23.4756 15.0119 23.4776C19.0567 23.4795 25.3174 22.4423 25.3174 22.4423C25.8359 22.4423 26.2578 22.0204 26.2578 21.5019C26.2578 20.9824 25.8354 20.56 25.3159 20.56H25.2652C23.7119 20.56 22.4483 19.2964 22.4483 17.7431V13.1027C22.4486 9.00205 19.1126 5.66602 15.0119 5.66602Z" fill="#2C2C2C"/>
<circle cx="22" cy="6" r="4" fill="#FD4B4E"/>
</svg>
