<svg width="91" height="20" viewBox="0 0 91 20" fill="none" xmlns="http://www.w3.org/2000/svg">
<path d="M14.0859 18.5273C12.7656 19.1758 11.043 19.5 8.91797 19.5C6.18359 19.5 4.01172 18.6836 2.40234 17.0508C0.800781 15.4102 0 13.2266 0 10.5C0 7.63281 0.894531 5.28906 2.68359 3.46875C4.48047 1.64062 6.79688 0.726562 9.63281 0.726562C11.4062 0.726562 12.8906 0.957031 14.0859 1.41797V5.15625C12.8594 4.4375 11.4688 4.07812 9.91406 4.07812C8.14062 4.07812 6.72266 4.64453 5.66016 5.77734C4.59766 6.91016 4.06641 8.39062 4.06641 10.2188C4.06641 12 4.57031 13.4336 5.57812 14.5195C6.58594 15.6055 7.94922 16.1484 9.66797 16.1484C11.2852 16.1484 12.7578 15.7578 14.0859 14.9766V18.5273ZM16.875 19.1836V0H20.6484V19.1836H16.875ZM23.6953 2.03906C23.6953 1.46094 23.8984 0.992188 24.3047 0.632812C24.7188 0.265625 25.2461 0.0820312 25.8867 0.0820312C26.543 0.0820312 27.0742 0.269531 27.4805 0.644531C27.8867 1.01172 28.0898 1.47656 28.0898 2.03906C28.0898 2.60938 27.8828 3.08594 27.4688 3.46875C27.0547 3.84375 26.5273 4.03125 25.8867 4.03125C25.2539 4.03125 24.7305 3.83984 24.3164 3.45703C23.9023 3.07422 23.6953 2.60156 23.6953 2.03906ZM23.9766 19.1836V6.22266H27.75V19.1836H23.9766ZM51.4688 19.1836H47.6953V11.7891C47.6953 9.80469 46.9727 8.8125 45.5273 8.8125C44.8555 8.8125 44.2969 9.11328 43.8516 9.71484C43.4062 10.3164 43.1836 11.0508 43.1836 11.918V19.1836H39.4102V11.6953C39.4102 9.77344 38.6953 8.8125 37.2656 8.8125C36.5547 8.8125 35.9844 9.10156 35.5547 9.67969C35.1328 10.25 34.9219 11.0078 34.9219 11.9531V19.1836H31.1367V6.22266H34.9219V8.25H34.9688C35.4219 7.50781 36.0234 6.93359 36.7734 6.52734C37.5234 6.11328 38.3125 5.90625 39.1406 5.90625C40.9609 5.90625 42.207 6.72266 42.8789 8.35547C43.8789 6.72266 45.332 5.90625 47.2383 5.90625C50.0586 5.90625 51.4688 7.64844 51.4688 11.1328V19.1836ZM55.0312 7.00781C55.6172 6.67969 56.3984 6.41406 57.375 6.21094C58.3594 6.00781 59.1992 5.90625 59.8945 5.90625C63.5195 5.90625 65.332 7.72266 65.332 11.3555V19.1836H61.7344V17.2969H61.6875C60.8047 18.7656 59.5117 19.5 57.8086 19.5C56.582 19.5 55.5977 19.1523 54.8555 18.457C54.1211 17.7539 53.7539 16.8008 53.7539 15.5977C53.7539 13.1133 55.2344 11.668 58.1953 11.2617L61.7578 10.7812C61.7578 9.27344 60.9727 8.51953 59.4023 8.51953C57.8555 8.51953 56.3984 8.98828 55.0312 9.92578V7.00781ZM59.3086 13.3125C57.9414 13.4922 57.2578 14.1094 57.2578 15.1641C57.2578 15.6484 57.4219 16.0391 57.75 16.3359C58.0859 16.6328 58.5352 16.7812 59.0977 16.7812C59.8711 16.7812 60.5078 16.5078 61.0078 15.9609C61.5078 15.4141 61.7578 14.7344 61.7578 13.9219V12.9961L59.3086 13.3125ZM76.2188 19.0312C75.6484 19.3438 74.7852 19.5 73.6289 19.5C70.8789 19.5 69.5039 18.0547 69.5039 15.1641V9.04688H67.3711V6.22266H69.5039V3.375L73.2656 2.29688V6.22266H76.2188V9.04688H73.2656V14.5078C73.2656 15.8906 73.8125 16.582 74.9062 16.582C75.3281 16.582 75.7656 16.457 76.2188 16.207V19.0312ZM90.0352 13.7695H81.5039C81.6367 15.7773 82.8477 16.7812 85.1367 16.7812C86.5664 16.7812 87.8281 16.4297 88.9219 15.7266V18.5039C87.7422 19.168 86.1953 19.5 84.2812 19.5C82.2188 19.5 80.6133 18.918 79.4648 17.7539C78.3242 16.5898 77.7539 14.9688 77.7539 12.8906C77.7539 10.8203 78.3633 9.14062 79.582 7.85156C80.8008 6.55469 82.332 5.90625 84.1758 5.90625C86.0117 5.90625 87.4453 6.46484 88.4766 7.58203C89.5156 8.69141 90.0352 10.2188 90.0352 12.1641V13.7695ZM86.5078 11.4023C86.5078 9.46484 85.7227 8.49609 84.1523 8.49609C83.5039 8.49609 82.9297 8.76172 82.4297 9.29297C81.9297 9.82422 81.6172 10.5273 81.4922 11.4023H86.5078Z" fill="#2C2C2C"/>
</svg>
