<svg width="63" height="63" viewBox="0 0 63 63" fill="none" xmlns="http://www.w3.org/2000/svg">
<g clip-path="url(#clip0_380_28)">
<path d="M21.0264 26.25C21.0264 30.4272 22.6857 34.4332 25.6394 37.3869C28.5931 40.3406 32.5992 42 36.7764 42C40.9535 42 44.9596 40.3406 47.9133 37.3869C50.867 34.4332 52.5264 30.4272 52.5264 26.25C52.5264 22.0728 50.867 18.0668 47.9133 15.1131C44.9596 12.1594 40.9535 10.5 36.7764 10.5C32.5992 10.5 28.5931 12.1594 25.6394 15.1131C22.6857 18.0668 21.0264 22.0728 21.0264 26.25Z" fill="#FFE97C"/>
<path d="M59.0886 24.9375C59.4367 24.9375 59.7705 25.0758 60.0167 25.3219C60.2628 25.5681 60.4011 25.9019 60.4011 26.25C60.4011 26.5981 60.2628 26.9319 60.0167 27.1781C59.7705 27.4242 59.4367 27.5625 59.0886 27.5625H56.4636C56.1155 27.5625 55.7816 27.4242 55.5355 27.1781C55.2894 26.9319 55.1511 26.5981 55.1511 26.25C55.1511 25.9019 55.2894 25.5681 55.5355 25.3219C55.7816 25.0758 56.1155 24.9375 56.4636 24.9375H59.0886ZM53.4816 11.4004C53.7207 11.1528 53.853 10.8213 53.85 10.4772C53.847 10.133 53.7089 9.80384 53.4656 9.56049C53.2222 9.31714 52.8931 9.1791 52.5489 9.17611C52.2048 9.17312 51.8732 9.30542 51.6257 9.5445L49.7698 11.4004C49.5308 11.6479 49.3985 11.9795 49.4014 12.3236C49.4044 12.6677 49.5425 12.9969 49.7858 13.2403C50.0292 13.4836 50.3584 13.6216 50.7025 13.6246C51.0466 13.6276 51.3782 13.4953 51.6257 13.2562L53.4816 11.4004ZM21.9265 9.5445C21.6789 9.30542 21.3474 9.17312 21.0032 9.17611C20.6591 9.1791 20.3299 9.31714 20.0866 9.56049C19.8432 9.80384 19.7052 10.133 19.7022 10.4772C19.6992 10.8213 19.8315 11.1528 20.0706 11.4004L21.9265 13.2562C22.0483 13.3783 22.193 13.4751 22.3523 13.5412C22.5116 13.6073 22.6823 13.6414 22.8548 13.6415C23.0272 13.6417 23.198 13.6078 23.3574 13.5419C23.5168 13.4761 23.6616 13.3794 23.7836 13.2576C23.9057 13.1357 24.0025 12.991 24.0686 12.8317C24.1347 12.6724 24.1688 12.5017 24.1689 12.3292C24.1691 12.1568 24.1352 11.986 24.0693 11.8266C24.0034 11.6672 23.9068 11.5224 23.785 11.4004L21.9265 9.5445ZM38.0886 3.9375C38.0886 3.5894 37.9503 3.25556 37.7042 3.00942C37.458 2.76328 37.1242 2.625 36.7761 2.625C36.428 2.625 36.0941 2.76328 35.848 3.00942C35.6019 3.25556 35.4636 3.5894 35.4636 3.9375V6.5625C35.4636 6.9106 35.6019 7.24444 35.848 7.49058C36.0941 7.73672 36.428 7.875 36.7761 7.875C37.1242 7.875 37.458 7.73672 37.7042 7.49058C37.9503 7.24444 38.0886 6.9106 38.0886 6.5625V3.9375Z" fill="#FCD20B"/>
<path d="M12.2195 30.509C13.0195 26.9591 14.9979 23.7875 17.8302 21.5145C20.6625 19.2416 24.1804 18.0023 27.8069 18C29.9586 18.0015 32.0878 18.4389 34.0671 19.2861C36.0463 20.1333 37.8347 21.3727 39.3252 22.9302C40.8156 24.4877 41.9775 26.3311 42.741 28.3501C43.5046 30.369 43.8541 32.5218 43.7688 34.6796C45.161 33.7412 46.7475 33.1328 48.4084 32.9002C50.0693 32.6677 51.7612 32.8171 53.3561 33.3373C54.951 33.8574 56.4072 34.7347 57.6146 35.9027C58.822 37.0708 59.7491 38.499 60.3256 40.0794C60.9022 41.6599 61.1132 43.3512 60.9427 45.0256C60.7721 46.6999 60.2246 48.3134 59.3414 49.7442C58.4582 51.1749 57.2624 52.3854 55.8445 53.2841C54.4266 54.1828 52.8237 54.7463 51.1569 54.9319V55H14.29C11.0309 54.9984 7.90585 53.6984 5.60138 51.3856C3.2969 49.0728 2.00156 45.9365 2 42.6657C2.00207 39.7554 3.0287 36.9395 4.89862 34.7151C6.76853 32.4907 9.36145 31.001 12.2195 30.509Z" fill="#D2ECFF"/>
<path d="M27.783 15.7526L28.0035 15.7552L28.2214 15.7631L28.4393 15.771L28.6571 15.7841L28.875 15.7999L29.0903 15.8183L29.3055 15.8392L29.5208 15.8602L29.7334 15.8865L29.9486 15.9154L30.1586 15.9469L30.3713 15.981L30.5813 16.0177L30.7913 16.0545L30.9986 16.0965L31.206 16.1411L31.4134 16.1884L31.6207 16.2356L31.8255 16.2881L32.0276 16.3406L32.2324 16.3984L32.4345 16.4561L32.634 16.5165L32.8335 16.5821L33.033 16.6478L33.2299 16.716L33.4268 16.7869L33.621 16.8578L33.8153 16.9339L34.0095 17.0126L34.2011 17.0914L34.3927 17.1728L34.5817 17.2594L34.7707 17.346L34.9571 17.4326L35.1435 17.5245L35.3273 17.619L35.511 17.7135L35.6921 17.8106L35.8732 17.9104L36.0518 18.0127L36.2302 18.1151L36.4061 18.2227L36.582 18.3304L36.7552 18.4406L36.9285 18.5509L37.0991 18.6664L37.2697 18.7819L37.4378 18.9L37.6031 19.0207L37.7685 19.1415L37.9312 19.2649L38.094 19.3909L38.2541 19.5195L38.4142 19.6481L38.5717 19.7794L38.7266 19.9133L38.8789 20.0471L39.0311 20.1836L39.1834 20.3228L39.333 20.4645L39.48 20.6062L39.6244 20.7506L39.7688 20.895L39.9105 21.042L40.0522 21.1916L40.1914 21.3439L40.3279 21.4961L40.4618 21.6484L40.5956 21.8033L40.7269 21.9608L40.8555 22.1209L40.9841 22.281L41.1101 22.4437L41.2335 22.6065L41.3542 22.7719L41.475 22.9372L41.5931 23.1053L41.7086 23.2759L41.8241 23.4465L41.9344 23.6198L42.0446 23.793L42.1523 23.9689L42.2599 24.1447L42.3623 24.3232L42.4646 24.5017L42.5644 24.6829L42.6615 24.864L42.756 25.0478L42.8505 25.2315L42.9424 25.4179L43.029 25.6042L43.1156 25.7933L43.2023 25.9823L43.2836 26.1739L43.3624 26.3655L43.4411 26.5597L43.5173 26.754L43.5881 26.9482L43.659 27.1451L43.7272 27.342L43.7929 27.5415L43.8585 27.741L43.9189 27.9405L43.9766 28.1426L44.0344 28.3474L44.0869 28.5495L44.1394 28.7542L44.1866 28.9616L44.2339 29.169L44.2785 29.3764L44.3205 29.5837L44.3573 29.7937L44.394 30.0037L44.4281 30.2164L44.4596 30.4264L44.4885 30.6416L44.5147 30.8542L44.5358 31.0695L44.5568 31.2848L44.5751 31.5L44.5909 31.7179L44.604 31.9357L44.6119 32.1536L44.6198 32.3715L44.6224 32.592L44.625 32.8125L44.6224 33.1564L44.6119 33.5003L44.7877 33.3847L44.9689 33.2692L45.15 33.159L45.3338 33.0514L45.5201 32.949L45.7091 32.8466L45.8981 32.7495L46.0898 32.655L46.284 32.5631L46.4809 32.4765L46.6777 32.3925L46.8773 32.3138L47.0768 32.235L47.2815 32.1615L47.4863 32.0932L47.691 32.0276L47.901 31.9646L48.1084 31.9069L48.321 31.8518L48.5336 31.7993L48.7463 31.752L48.9615 31.71L49.1794 31.6706L49.3972 31.6339L49.6178 31.6024L49.8382 31.5761L50.0614 31.5525L50.2845 31.5341L50.5076 31.5184L50.7334 31.5079L50.9591 31.5026L51.1875 31.5L51.492 31.5026L51.7939 31.5157L52.0958 31.5341L52.395 31.5604L52.6916 31.5945L52.9856 31.6365L53.277 31.6838L53.5658 31.7389L53.8545 31.8019L54.138 31.8727L54.4189 31.9489L54.6997 32.0302L54.9754 32.1221L55.2484 32.2166L55.5161 32.319L55.7839 32.4293L56.0464 32.5448L56.3063 32.6655L56.5635 32.7941L56.8155 32.9254L57.0649 33.0671L57.3116 33.2115L57.5531 33.3611L57.7894 33.5186L58.023 33.6814L58.254 33.8467L58.4798 34.02L58.7002 34.1985L58.9155 34.3823L59.1281 34.5712L59.3355 34.7629L59.5376 34.9624L59.7371 35.1645L59.9288 35.3719L60.1177 35.5845L60.3015 35.7997L60.48 36.0202L60.6533 36.246L60.8186 36.477L60.9814 36.7106L61.1389 36.9469L61.2885 37.1884L61.4329 37.4351L61.5746 37.6845L61.7059 37.9365L61.8345 38.1937L61.9552 38.4536L62.0708 38.7161L62.181 38.9839L62.2834 39.2516L62.3779 39.5246L62.4697 39.8002L62.5511 40.0811L62.6273 40.362L62.6981 40.6455L62.7611 40.9342L62.8162 41.223L62.8635 41.5144L62.9055 41.8084L62.9396 42.105L62.9659 42.4042L62.9843 42.7061L62.9974 43.008L63 43.3125L62.9974 43.596L62.9869 43.8795L62.9711 44.1604L62.9475 44.4386L62.9186 44.7143L62.8819 44.9899L62.8399 45.2629L62.79 45.5359L62.7375 45.8036L62.6771 46.0687L62.6089 46.3339L62.538 46.5964L62.4593 46.8562L62.3753 47.1135L62.286 47.3655L62.1889 47.6175L62.0891 47.8669L61.9815 48.1136L61.8713 48.3551L61.7531 48.5966L61.6324 48.8329L61.5037 49.0665L61.3725 49.2975L61.2334 49.5259L61.0916 49.749L60.9446 49.9695L60.7924 50.1874L60.6349 50.4L60.4748 50.61L60.3094 50.8148L60.1388 51.0169L59.9629 51.2164L59.7844 51.4106L59.6006 51.5996L59.4142 51.786L59.2226 51.9697L59.0257 52.1456L58.8262 52.3189L58.6241 52.4895L58.4168 52.6522L58.2041 52.8124L57.9915 52.9672L57.7736 53.1195L57.5505 53.2639L57.3247 53.4056L57.0964 53.5395L56.8654 53.6707L56.6317 53.7967L56.3929 53.9175L56.1514 54.033L55.9072 54.1432L55.6605 54.2482L55.4111 54.3454L55.1591 54.4399L54.9045 54.5265L54.6446 54.6105L54.3848 54.6866L54.1222 54.7575L53.8571 54.8205L53.5894 54.8809L53.3216 54.9334L53.0486 54.978L52.7756 55.02L52.5 55.0515V55.125H13.125H12.9544L12.7864 55.1198L12.6184 55.1145L12.4504 55.1066L12.2824 55.0987L12.117 55.0856L11.949 55.0725L11.7836 55.0568L11.6182 55.0384L11.4555 55.02L11.2901 54.9964L11.1274 54.9728L10.9646 54.9465L10.8019 54.9202L10.6418 54.8887L10.4816 54.8573L10.3215 54.8231L10.1614 54.789L10.0039 54.7523L9.84637 54.7103L9.68888 54.6709L9.534 54.6262L9.37912 54.5816L9.22425 54.5344L9.06938 54.4845L8.91712 54.4346L8.76488 54.3821L8.61525 54.327L8.463 54.2719L8.31338 54.2141L8.01937 54.0934L7.72538 53.9648L7.43663 53.8309L7.15313 53.6891L6.87225 53.5395L6.594 53.3846L6.321 53.2245L6.05325 53.0565L5.78813 52.8833L5.52825 52.7021L5.27362 52.5158L5.02425 52.3241L4.7775 52.1273L4.53863 51.9225L4.30237 51.7125L4.07138 51.4999L3.84563 51.2794L3.62513 51.0536L3.4125 50.8226L3.2025 50.5864L2.99775 50.3475L2.80087 50.1007L2.60925 49.8514L2.42287 49.5967L2.24175 49.3369L2.0685 49.0718L1.9005 48.804L1.74038 48.531L1.5855 48.2528L1.43588 47.9719L1.29412 47.6884L1.16025 47.3996L1.03163 47.1056L0.910875 46.8116L0.853125 46.662L0.798 46.5098L0.742875 46.3601L0.690375 46.2079L0.6405 46.0556L0.590625 45.9007L0.543375 45.7459L0.49875 45.591L0.454125 45.4361L0.41475 45.2786L0.37275 45.1211L0.336 44.9636L0.301875 44.8035L0.26775 44.6434L0.23625 44.4833L0.20475 44.3231L0.1785 44.1604L0.15225 43.9976L0.128625 43.8349L0.105 43.6695L0.086625 43.5068L0.06825 43.3414L0.0525 43.176L0.039375 43.008L0.02625 42.8426L0.018375 42.6746L0.0105 42.5066L0.00524998 42.3386L0 42.1706V42L0.00262502 41.6955L0.013125 41.3936L0.0315 41.0944L0.055125 40.7977L0.084 40.5011L0.12075 40.2071L0.165375 39.9131L0.21525 39.6244L0.270375 39.3356L0.333375 39.0495L0.401625 38.766L0.47775 38.4851L0.5565 38.2069L0.643125 37.9312L0.735 37.6583L0.83475 37.3879L0.93975 37.1201L1.04737 36.855L1.16287 36.5925L1.28363 36.3352L1.40963 36.078L1.54088 35.826L1.67737 35.5766L1.82175 35.3299L1.96875 35.0884L2.121 34.8495L2.27588 34.6132L2.43862 34.3823L2.60663 34.1539L2.77725 33.9281L2.95312 33.7076L3.13425 33.4897L3.32062 33.2771L3.50962 33.0697L3.70388 32.865L3.90337 32.6629L4.1055 32.4686L4.31287 32.277L4.5255 32.088L4.74075 31.9069L4.95863 31.7284L5.18175 31.5525L5.4075 31.3845L5.6385 31.2217L5.87213 31.0616L6.111 30.9067L6.3525 30.7571L6.59663 30.6128L6.84338 30.4736L7.09538 30.3397L7.35 30.2111L7.60725 30.0904L7.86713 29.9722L8.13225 29.8594L8.39738 29.7544L8.66775 29.652L8.94075 29.5575L9.21375 29.4683L9.492 29.3842L9.77025 29.3081L10.0538 29.2373L10.3372 29.1716L10.626 29.1139L10.9148 29.0614L10.9567 28.8829L10.9987 28.7044L11.0906 28.3526L11.1877 28.0035L11.2954 27.657L11.4082 27.3131L11.5264 26.9719L11.655 26.6359L11.7889 26.3025L11.928 25.9718L12.075 25.6462L12.2299 25.3234L12.39 25.0057L12.5554 24.6908L12.7286 24.3784L12.9097 24.0712L13.0935 23.7694L13.2851 23.4701L13.4846 23.1761L13.6868 22.8847L13.8968 22.5986L14.112 22.3178L14.3325 22.0421L14.5583 21.7691L14.7919 21.504L15.0281 21.2415L15.2696 20.9843L15.519 20.7322L15.771 20.4855L16.0282 20.244L16.2908 20.0051L16.5585 19.7741L16.8315 19.551L17.1097 19.3305L17.3906 19.1153L17.6768 18.9079L17.9681 18.7057L18.2647 18.5089L18.564 18.3172L18.8659 18.1335L19.173 17.955L19.4854 17.7817L19.8004 17.6164L20.1206 17.4563L20.4435 17.304L20.7716 17.157L21.1024 17.0179L21.4357 16.884L21.7717 16.758L22.113 16.6399L22.4569 16.527L22.8034 16.4246L23.1551 16.3249L23.5069 16.2356L23.6854 16.1936L23.8639 16.1516L24.0424 16.1149L24.2235 16.0781L24.402 16.0414L24.5831 16.0099L24.7642 15.9784L24.948 15.9495L25.1318 15.9233L25.3155 15.897L25.4992 15.8734L25.683 15.8524L25.8694 15.834L26.0557 15.8156L26.2421 15.7999L26.4285 15.7867L26.6175 15.7762L26.8039 15.7658L26.9929 15.7605L27.1819 15.7552L27.3735 15.75H27.5625L27.783 15.7526ZM27.3997 18.375L27.2396 18.3776L27.0795 18.3829L26.9194 18.3881L26.7593 18.396L26.6017 18.4065L26.4416 18.417L26.2841 18.4301L26.1266 18.4459L25.9691 18.4616L25.8143 18.48L25.6567 18.4984L25.5019 18.522L25.347 18.543L25.1921 18.5693L25.0399 18.5955L24.8876 18.6218L24.7327 18.6532L24.5831 18.6821L24.4309 18.7162L24.2812 18.7504L24.1369 18.7845L23.8324 18.8632L23.5358 18.9446L23.2417 19.0339L22.953 19.1284L22.6642 19.2281L22.3781 19.3357L22.0972 19.446L21.819 19.5641L21.5408 19.6875L21.2677 19.8187L20.9974 19.9526L20.7323 20.0918L20.4671 20.2387L20.2073 20.3884L19.95 20.5459L19.698 20.706L19.446 20.874L19.2019 21.0446L18.9578 21.2205L18.7189 21.4042L18.4853 21.5906L18.2543 21.7796L18.0259 21.9765L17.8054 22.176L17.5849 22.3808L17.3723 22.5907L17.1623 22.8034L16.9575 23.0213L16.7554 23.2444L16.5585 23.4701L16.3669 23.7011L16.1805 23.9347L15.9994 24.1736L15.8209 24.4151L15.6476 24.6593L15.4822 24.9086L15.3195 25.1632L15.162 25.4179L15.0098 25.6777L14.8628 25.9429L14.7236 26.208L14.5871 26.4784L14.4559 26.7514L14.3325 27.027L14.2144 27.3053L14.1015 27.5887L13.9939 27.8722L13.8915 28.1584L13.797 28.4497L13.7077 28.7438L13.6237 29.0378L13.545 29.3423L13.5109 29.4866L13.4715 29.6494L13.4032 29.8961L13.3114 30.1324L13.1959 30.3608L13.0594 30.5734L12.9019 30.7755L12.726 30.9592L12.5344 31.1273L12.327 31.2742L12.1039 31.4002L11.8729 31.5052L11.6314 31.5866L11.382 31.6444L11.1221 31.6916L10.8938 31.7389L10.6654 31.7888L10.4423 31.8465L10.2165 31.9069L9.996 31.9751L9.77812 32.046L9.56025 32.1221L9.345 32.2009L9.13237 32.2875L8.92237 32.3768L8.71238 32.4713L8.50763 32.5684L8.3055 32.6708L8.10338 32.7784L7.90387 32.8886L7.70962 33.0041L7.51538 33.1249L7.32638 33.2483L7.14 33.3742L6.95363 33.5055L6.7725 33.642L6.594 33.7811L6.41813 33.9229L6.24487 34.0699L6.07687 34.2195L5.9115 34.3744L5.74875 34.5319L5.58862 34.692L5.43375 34.8574L5.2815 35.0228L5.13188 35.1934L4.9875 35.3693L4.84575 35.5451L4.70925 35.7236L4.57537 35.9074L4.44412 36.0938L4.31813 36.2827L4.19737 36.4744L4.07925 36.6686L3.96637 36.8655L3.85613 37.065L3.75113 37.2671L3.65138 37.4692L3.55425 37.6766L3.46237 37.8866L3.37575 38.0966L3.29175 38.3119L3.213 38.5271L3.1395 38.745L3.07125 38.9655L3.00563 39.1886L2.94525 39.4118L2.89275 39.6375L2.84288 39.8659L2.79825 40.0969L2.75625 40.3279L2.72213 40.5615L2.69325 40.7977L2.66962 41.034L2.64862 41.2729L2.6355 41.5144L2.62762 41.7559L2.625 42.0079V42.1365L2.62762 42.273L2.63287 42.4069L2.63813 42.5408L2.646 42.6773L2.6565 42.8085L2.667 42.9424L2.68012 43.0762L2.69325 43.2075L2.709 43.3388L2.72738 43.47L2.74575 43.6013L2.76675 43.7299L2.79037 43.8611L2.814 43.9897L2.83763 44.1158L2.8665 44.2444L2.89275 44.3704L2.92425 44.499L2.95575 44.625L2.98987 44.7484L3.024 44.8744L3.05813 44.9978L3.0975 45.1211L3.13688 45.2445L3.17625 45.3653L3.21825 45.486L3.26288 45.6067L3.3075 45.7275L3.3495 45.8404L3.44925 46.0845L3.55163 46.3181L3.65925 46.5491L3.77213 46.7749L3.89287 47.0006L4.01625 47.2211L4.14488 47.439L4.27875 47.6543L4.41787 47.8669L4.56225 48.0742L4.71187 48.279L4.86412 48.4785L5.02425 48.6754L5.187 48.8696L5.355 49.056L5.52562 49.2424L5.7015 49.4235L5.88262 49.5994L6.069 49.77L6.25537 49.938L6.44963 50.1007L6.6465 50.2609L6.846 50.4131L7.05075 50.5628L7.25813 50.7071L7.47075 50.8462L7.686 50.9801L7.90387 51.1087L8.12437 51.2321L8.35013 51.3529L8.57588 51.4657L8.80688 51.5734L9.0405 51.6757L9.28463 51.7755L9.3975 51.8175L9.51825 51.8621L9.639 51.9067L9.75975 51.9487L9.8805 51.9881L10.0039 52.0275L10.1272 52.0669L10.2506 52.101L10.3766 52.1351L10.5 52.1693L10.626 52.2008L10.7546 52.2323L10.8806 52.2585L11.0092 52.2874L11.1353 52.311L11.2639 52.3346L11.3951 52.3582L11.5238 52.3792L11.655 52.3976L11.7863 52.416L11.9175 52.4318L12.0487 52.4449L12.1826 52.458L12.3165 52.4685L12.4478 52.479L12.5843 52.4869L12.7181 52.4921L12.852 52.4974L12.9885 52.5H51.8936L51.9304 52.4895L52.1797 52.4475L52.4265 52.416L52.6391 52.3871L52.8491 52.3504L53.0591 52.3084L53.2665 52.2638L53.4712 52.2139L53.676 52.1588L53.8781 52.0984L54.0776 52.0354L54.2745 51.9671L54.4714 51.8963L54.6656 51.8175L54.8573 51.7361L55.0462 51.6521L55.2326 51.5629L55.419 51.4684L55.6001 51.3713L55.7812 51.2689L55.9598 51.1639L56.133 51.0536L56.3063 50.9408L56.4769 50.8226L56.6423 50.7019L56.8076 50.5785L56.9704 50.4499L57.1279 50.3186L57.2828 50.1847L57.435 50.0456L57.5846 49.9039L57.7316 49.7569L57.8734 49.6099L58.0125 49.4576L58.149 49.3027L58.2829 49.1453L58.4115 48.9851L58.5375 48.8224L58.6582 48.657L58.7764 48.4864L58.8919 48.3158L59.0021 48.1425L59.1097 47.964L59.2121 47.7855L59.3119 47.6044L59.4064 47.4206L59.4982 47.2316L59.5849 47.0452L59.6663 46.8536L59.745 46.6594L59.8185 46.4651L59.8894 46.2682L59.955 46.0687L60.0154 45.8666L60.0705 45.6645L60.123 45.4597L60.1702 45.2524L60.2122 45.0424L60.249 44.8324L60.2831 44.6197L60.3094 44.4071L60.333 44.1919L60.3514 43.974L60.3645 43.7561L60.3724 43.5356L60.375 43.3125L60.3724 43.0736L60.3619 42.8374L60.3488 42.6037L60.3277 42.3701L60.3015 42.1391L60.27 41.9107L60.2306 41.685L60.1886 41.4592L60.1388 41.2361L60.0863 41.0156L60.0259 40.7977L59.9629 40.5825L59.892 40.3672L59.8185 40.1546L59.7371 39.9473L59.6531 39.7399L59.5639 39.5351L59.4694 39.333L59.3696 39.1335L59.2673 38.9366L59.1596 38.745L59.0468 38.5534L58.9286 38.3644L58.8052 38.1806L58.6793 37.9969L58.5506 37.8184L58.4141 37.6425L58.2776 37.4719L58.1333 37.3039L57.9862 37.1385L57.8366 36.9758L57.6817 36.8183L57.5243 36.6634L57.3615 36.5138L57.1961 36.3668L57.0281 36.2224L56.8575 36.0859L56.6816 35.9494L56.5031 35.8207L56.3194 35.6947L56.1356 35.5714L55.9466 35.4532L55.755 35.3404L55.5634 35.2327L55.3665 35.1304L55.167 35.0306L54.9649 34.9361L54.7601 34.8469L54.5527 34.7629L54.3454 34.6815L54.1328 34.608L53.9175 34.5371L53.7023 34.4741L53.4844 34.4137L53.2639 34.3612L53.0408 34.3114L52.815 34.2694L52.5892 34.23L52.3609 34.1985L52.1299 34.1723L51.8963 34.1512L51.6626 34.1381L51.4264 34.1276L51.1823 34.125L51.009 34.1276L50.8331 34.1329L50.6572 34.1408L50.4814 34.1512L50.3081 34.167L50.1349 34.1854L49.9642 34.2064L49.7936 34.23L49.623 34.2589L49.455 34.2878L49.287 34.3219L49.1216 34.3586L48.9562 34.398L48.7935 34.44L48.6308 34.4846L48.468 34.5345L48.3079 34.5844L48.1504 34.6395L47.9929 34.6973L47.8354 34.755L47.6805 34.818L47.5282 34.8836L47.376 34.9519L47.2264 35.0228L47.0768 35.0962L46.9271 35.1724L46.7827 35.2485L46.6384 35.3299L46.494 35.4139L46.3523 35.5005L46.2131 35.5898L46.0556 35.6921L45.8404 35.8207L45.6172 35.9257L45.381 36.0098L45.1395 36.0727L44.8954 36.1095L44.646 36.1252L44.3966 36.1174L44.1499 36.0859L43.9057 36.0307L43.6695 35.952L43.4411 35.8522L43.2259 35.7289L43.0211 35.5871L42.8295 35.427L42.6536 35.2511L42.4987 35.0569L42.3596 34.8495L42.2415 34.629L42.1444 34.4006L42.0709 34.1617L42.021 33.9203L41.9921 33.6709L41.9869 33.4215L41.9974 33.1065L42 32.8072V32.6261L41.9948 32.4397L41.9895 32.2534L41.9816 32.067L41.9711 31.8832L41.958 31.6995L41.9423 31.5157L41.9265 31.3346L41.9055 31.1535L41.8845 30.9724L41.8609 30.7913L41.8346 30.6128L41.8058 30.4342L41.7743 30.2557L41.7401 30.0799L41.706 29.9014L41.6693 29.7281L41.6299 29.5522L41.5879 29.379L41.5459 29.2057L41.4986 29.0325L41.4514 28.8619L41.4015 28.6913L41.3516 28.5206L41.2965 28.3526L41.2414 28.1846L41.1836 28.0166L41.1233 27.8512L41.0629 27.6859L40.9999 27.5231L40.9342 27.3577L40.866 27.1976L40.7977 27.0349L40.7243 26.8747L40.6508 26.7172L40.5772 26.5571L40.5011 26.3996L40.4198 26.2448L40.341 26.0899L40.257 25.935L40.173 25.7827L40.0864 25.6305L39.9997 25.4809L39.9105 25.3313L39.8186 25.1842L39.7267 25.0373L39.6296 24.8903L39.5351 24.7459L39.4354 24.6015L39.3356 24.4597L39.2359 24.318L39.1309 24.1789L39.0259 24.0398L38.9209 23.9033L38.8132 23.7667L38.703 23.6329L38.5901 23.499L38.4773 23.3677L38.3644 23.2365L38.2489 23.1079L38.1307 22.9792L38.0126 22.8532L37.8919 22.7299L37.7685 22.6065L37.6451 22.4831L37.5217 22.3624L37.3958 22.2443L37.2671 22.1261L37.1385 22.0106L37.0072 21.8977L36.876 21.7849L36.7421 21.672L36.6082 21.5644L36.4717 21.4541L36.3352 21.3491L36.1961 21.2441L36.057 21.1391L35.9152 21.0394L35.7735 20.9396L35.6291 20.8399L35.4847 20.7428L35.3377 20.6482L35.1908 20.5564L35.0437 20.4645L34.8941 20.3753L34.7445 20.2886L34.5923 20.202L34.44 20.118L34.2851 20.034L34.1302 19.9526L33.9754 19.8739L33.8179 19.7977L33.6578 19.7242L33.5003 19.6508L33.3401 19.5799L33.1774 19.509L33.0146 19.4407L32.8519 19.3751L32.6891 19.3121L32.5238 19.2517L32.3584 19.1914L32.1904 19.1336L32.0224 19.0785L31.8544 19.0234L31.6838 18.9735L31.5131 18.9236L31.3425 18.8764L31.1693 18.8291L30.996 18.7871L30.8228 18.7451L30.6469 18.7057L30.4736 18.669L30.2951 18.6349L30.1193 18.6007L29.9408 18.5693L29.7623 18.5404L29.5837 18.5141L29.4026 18.4905L29.2215 18.4695L29.0404 18.4485L28.8592 18.4328L28.6755 18.417L28.4918 18.4039L28.308 18.3934L28.1216 18.3855L27.9352 18.3803L27.7489 18.375H27.3997Z" fill="#8ECDFF"/>
</g>
<defs>
<clipPath id="clip0_380_28">
<rect width="63" height="63" fill="white"/>
</clipPath>
</defs>
</svg>
