<svg width="29" height="29" viewBox="0 0 29 29" fill="none" xmlns="http://www.w3.org/2000/svg">
<path d="M11.2877 16.0197H3.48926C2.55469 16.0197 1.79004 16.7844 1.79004 17.7189V25.4712C1.79004 26.4058 2.55469 27.1704 3.48926 27.1704H11.2877C12.2222 27.1704 12.9869 26.4058 12.9869 25.4712V17.7189C12.9869 16.7844 12.2223 16.0197 11.2877 16.0197ZM11.2877 25.4682C11.2868 25.4693 11.2857 25.4703 11.2846 25.4712H3.49232C3.49122 25.4703 3.49021 25.4693 3.48929 25.4682V17.722C3.49021 17.7209 3.49122 17.7199 3.49232 17.719H11.2846V17.7189C11.2857 17.7198 11.2868 17.7209 11.2877 17.722V25.4682ZM25.4658 1.80664H17.6653C16.7308 1.80664 15.9661 2.57129 15.9661 3.50586V11.2581C15.9661 12.1927 16.7308 12.9573 17.6653 12.9573H25.4658C26.4004 12.9573 27.165 12.1927 27.165 11.2581V3.50586C27.165 2.57129 26.4004 1.80664 25.4658 1.80664ZM25.4658 11.2551C25.4649 11.2562 25.4639 11.2572 25.4628 11.2581H17.6684C17.6673 11.2572 17.6663 11.2562 17.6654 11.2551V3.50892C17.6663 3.50782 17.6673 3.50681 17.6684 3.50589H25.4628C25.4638 3.50677 25.4649 3.50784 25.4658 3.50892V11.2551ZM11.2898 1.80664H3.48926C2.55469 1.80664 1.79004 2.57129 1.79004 3.50586V11.2581C1.79004 12.1927 2.55469 12.9573 3.48926 12.9573H11.2897C12.2243 12.9573 12.989 12.1927 12.989 11.2581V3.50586C12.989 2.57129 12.2243 1.80664 11.2898 1.80664ZM11.2898 11.2551C11.2889 11.2562 11.2878 11.2572 11.2867 11.2581H3.49232C3.49122 11.2572 3.49021 11.2562 3.48929 11.2551V3.50892C3.49021 3.50782 3.49122 3.50681 3.49232 3.50589H11.2867C11.2878 3.50677 11.2889 3.50784 11.2898 3.50892V11.2551ZM25.4658 16.0284H17.7061C16.7715 16.0284 16.0068 16.7927 16.0068 17.7268V25.4832C16.0068 26.4173 16.7715 27.1816 17.7061 27.1816H22.8037C23.271 27.1816 23.6533 26.7995 23.6533 26.3324C23.6533 25.8653 23.271 25.4832 22.8037 25.4832H17.7061V17.7268H25.4658V22.9072C25.4658 23.3743 25.8481 23.7564 26.3154 23.7564C26.7827 23.7564 27.165 23.3743 27.165 22.9072V17.7268C27.165 16.7927 26.4004 16.0284 25.4658 16.0284Z" fill="#BD9556"/>
</svg>
