<svg width="20" height="20" viewBox="0 0 20 20" fill="none" xmlns="http://www.w3.org/2000/svg">
<g clip-path="url(#clip0_413_794)">
<path d="M10.0404 19.6297C4.75043 19.6297 0.44043 15.3197 0.44043 10.0297C0.44043 4.73969 4.75043 0.429688 10.0404 0.429688C15.3304 0.429688 19.6404 4.73969 19.6404 10.0297C19.6404 15.3197 15.3304 19.6297 10.0404 19.6297ZM10.0404 1.62969C5.41043 1.62969 1.64043 5.39969 1.64043 10.0297C1.64043 14.6597 5.41043 18.4297 10.0404 18.4297C14.6704 18.4297 18.4404 14.6597 18.4404 10.0297C18.4404 5.39969 14.6704 1.62969 10.0404 1.62969Z" fill="#BD9556"/>
<path d="M10.0601 13.8196C9.73008 13.8196 9.46008 13.5496 9.46008 13.2196V12.1996C9.46008 11.3096 10.1201 10.7596 10.7101 10.2796C10.8401 10.1696 10.9801 10.0596 11.1001 9.94958C11.9201 9.20958 12.3001 8.36958 12.1001 7.73958C11.9001 7.13958 11.4201 6.67958 10.7601 6.47958C10.1001 6.27958 9.40008 6.39958 8.93008 6.76958C7.85008 7.64958 7.92008 8.74958 7.92008 8.79958C7.95008 9.12958 7.71008 9.41958 7.38008 9.44958C7.05008 9.47958 6.76008 9.22958 6.73008 8.89958C6.72008 8.82958 6.59008 7.12958 8.19008 5.83958C8.97008 5.20958 10.0701 5.01958 11.1101 5.32958C12.1501 5.63958 12.9301 6.37958 13.2501 7.36958C13.6001 8.46958 13.1001 9.75958 11.9101 10.8396C11.7701 10.9696 11.6201 11.0896 11.4801 11.2096C10.9701 11.6296 10.6701 11.8996 10.6701 12.1996V13.2096C10.6601 13.5496 10.3901 13.8196 10.0601 13.8196Z" fill="#BD9556"/>
<path d="M9.33984 15.1497C9.33984 15.3406 9.4157 15.5238 9.55073 15.6588C9.68575 15.7938 9.86889 15.8697 10.0598 15.8697C10.2508 15.8697 10.4339 15.7938 10.569 15.6588C10.704 15.5238 10.7798 15.3406 10.7798 15.1497C10.7798 14.9587 10.704 14.7756 10.569 14.6406C10.4339 14.5055 10.2508 14.4297 10.0598 14.4297C9.86889 14.4297 9.68575 14.5055 9.55073 14.6406C9.4157 14.7756 9.33984 14.9587 9.33984 15.1497Z" fill="#BD9556"/>
</g>
<defs>
<clipPath id="clip0_413_794">
<rect width="20" height="20" fill="white"/>
</clipPath>
</defs>
</svg>
