<svg width="48" height="48" viewBox="0 0 48 48" fill="none" xmlns="http://www.w3.org/2000/svg">
<g filter="url(#filter0_d_391_3282)">
<rect x="8" width="40" height="40" rx="10" fill="white"/>
</g>
<path d="M28.2447 27.1918C26.2868 28.9397 23.1011 28.9419 21.1407 27.1918C19.1828 25.4395 19.1828 22.5912 21.1407 20.8389L25.8792 16.6043L30.6153 12.3698C31.9205 11.2023 34.046 11.2023 35.3513 12.3698C36.6566 13.5373 36.6566 15.4369 35.3513 16.6043L32.9833 18.7205L29.43 21.897L26.9144 24.1448C26.6369 24.3926 26.2693 24.5288 25.8767 24.5288C25.4841 24.5288 25.1166 24.3926 24.8365 24.1426L24.5464 23.8837C24.2689 23.6359 24.1163 23.3055 24.1163 22.9551C24.1163 22.6046 24.2689 22.2765 24.5464 22.0287L32.3234 15.0759C32.674 14.7625 32.6741 14.2138 32.3236 13.9003C32.0243 13.6325 31.5716 13.6324 31.2723 13.9L23.3612 20.9706C22.7685 21.4996 22.441 22.205 22.441 22.9551C22.441 23.7051 22.7685 24.4105 23.3637 24.944L23.6537 25.2029C24.2464 25.7342 25.0365 26.0266 25.8742 26.0266H25.8767C26.7144 26.0266 27.5046 25.7364 28.0972 25.2052L30.6128 22.9573L34.1635 19.7808L36.5316 17.6647C38.4895 15.9124 38.4895 13.064 36.5316 11.3117C34.5736 9.56388 31.3879 9.56164 29.4275 11.3117L23.5087 16.6043L19.9579 19.7808C17.3474 22.1157 17.3474 25.915 19.9579 28.2499C21.2657 29.4174 22.9811 30 24.694 30C26.4093 30 28.1247 29.4174 29.4325 28.2499L37.0621 21.4267C37.4126 21.1132 37.4126 20.5646 37.0622 20.251C36.7629 19.9833 36.3102 19.9832 36.0107 20.2508L28.2447 27.1918Z" fill="#838584"/>
<defs>
<filter id="filter0_d_391_3282" x="0" y="0" width="48" height="48" filterUnits="userSpaceOnUse" color-interpolation-filters="sRGB">
<feFlood flood-opacity="0" result="BackgroundImageFix"/>
<feColorMatrix in="SourceAlpha" type="matrix" values="0 0 0 0 0 0 0 0 0 0 0 0 0 0 0 0 0 0 127 0" result="hardAlpha"/>
<feOffset dx="-4" dy="4"/>
<feGaussianBlur stdDeviation="2"/>
<feComposite in2="hardAlpha" operator="out"/>
<feColorMatrix type="matrix" values="0 0 0 0 0.92549 0 0 0 0 0.933333 0 0 0 0 0.996078 0 0 0 1 0"/>
<feBlend mode="normal" in2="BackgroundImageFix" result="effect1_dropShadow_391_3282"/>
<feBlend mode="normal" in="SourceGraphic" in2="effect1_dropShadow_391_3282" result="shape"/>
</filter>
</defs>
</svg>
