<svg width="23" height="23" viewBox="0 0 23 23" fill="none" xmlns="http://www.w3.org/2000/svg">
<path d="M11.4996 1.41992L3.61133 5.08555V10.584C3.61133 15.6691 6.97148 20.4129 11.4996 21.5809C16.0277 20.4309 19.3879 15.6691 19.3879 10.584V5.08555L11.4996 1.41992ZM17.9504 10.584C17.9504 12.7582 17.2496 14.9324 15.9738 16.7113C14.7879 18.3645 13.2246 19.5504 11.4996 20.0715C9.79258 19.5324 8.21133 18.3645 7.02539 16.7113C5.74961 14.9324 5.04883 12.7402 5.04883 10.584V6.00195L11.4996 3.01914L17.9504 6.01992V10.584ZM10.2957 13.2973L14.8777 8.71523L15.902 9.73945L11.3199 14.3215L10.2957 15.3457L9.27148 14.3215L7.24102 12.291L8.26523 11.2668L10.2957 13.2973Z" fill="#BD9556"/>
</svg>
