<svg width="66" height="66" viewBox="0 0 66 66" fill="none" xmlns="http://www.w3.org/2000/svg">
<g clip-path="url(#clip0_380_53)">
<path d="M12.0664 27.6844C12.9075 23.9484 14.9879 20.6105 17.9661 18.2184C20.9444 15.8262 24.6436 14.522 28.4569 14.5195C30.7195 14.5211 32.9584 14.9815 35.0396 15.8731C37.1208 16.7646 39.0014 18.0691 40.5687 19.7082C42.1359 21.3474 43.3576 23.2875 44.1605 25.4123C44.9634 27.537 45.331 29.8028 45.2413 32.0737C46.7052 31.0861 48.3734 30.4457 50.1199 30.201C51.8664 29.9563 53.6455 30.1135 55.3225 30.661C56.9996 31.2084 58.5309 32.1317 59.8005 33.3609C61.0701 34.5902 62.0449 36.0933 62.6512 37.7567C63.2574 39.42 63.4793 41.2 63.3 42.9621C63.1207 44.7242 62.545 46.4224 61.6162 47.9281C60.6875 49.4338 59.4302 50.7078 57.9392 51.6537C56.4483 52.5995 54.7627 53.1925 53.0101 53.3879V53.4595H14.2435C10.8166 53.4579 7.53047 52.0897 5.10725 49.6556C2.68403 47.2216 1.32196 43.9208 1.32031 40.4785C1.32249 37.4156 2.40202 34.452 4.36828 32.111C6.33455 29.77 9.06107 28.2022 12.0664 27.6844Z" fill="#EDEDED"/>
<path d="M29.106 12.3777L29.337 12.3805L29.5652 12.3887L29.7935 12.397L30.0217 12.4108L30.25 12.4273L30.4755 12.4465L30.701 12.4685L30.9265 12.4905L31.1493 12.518L31.3748 12.5483L31.5947 12.5812L31.8175 12.617L32.0375 12.6555L32.2575 12.694L32.4748 12.738L32.692 12.7847L32.9093 12.8343L33.1265 12.8837L33.341 12.9388L33.5527 12.9938L33.7673 13.0542L33.979 13.1147L34.188 13.178L34.397 13.2467L34.606 13.3155L34.8122 13.387L35.0185 13.4612L35.222 13.5355L35.4255 13.6152L35.629 13.6978L35.8298 13.7803L36.0305 13.8655L36.2285 13.9563L36.4265 14.047L36.6217 14.1378L36.817 14.234L37.0095 14.333L37.202 14.432L37.3918 14.5337L37.5815 14.6383L37.7685 14.7455L37.9555 14.8528L38.1398 14.9655L38.324 15.0782L38.5055 15.1938L38.687 15.3092L38.8657 15.4302L39.0445 15.5512L39.2205 15.675L39.3937 15.8015L39.567 15.928L39.7375 16.0572L39.908 16.1892L40.0757 16.324L40.2435 16.4588L40.4085 16.5963L40.5707 16.7365L40.7302 16.8767L40.8897 17.0197L41.0492 17.1655L41.206 17.314L41.36 17.4625L41.5112 17.6137L41.6625 17.765L41.811 17.919L41.9595 18.0757L42.1053 18.2352L42.2482 18.3948L42.3885 18.5543L42.5288 18.7165L42.6662 18.8815L42.801 19.0493L42.9357 19.217L43.0677 19.3875L43.197 19.558L43.3235 19.7312L43.45 19.9045L43.5737 20.0805L43.6947 20.2593L43.8158 20.438L43.9312 20.6195L44.0468 20.801L44.1595 20.9852L44.2723 21.1695L44.3795 21.3565L44.4868 21.5435L44.5913 21.7333L44.693 21.923L44.792 22.1155L44.891 22.308L44.9873 22.5032L45.078 22.6985L45.1688 22.8965L45.2595 23.0945L45.3447 23.2952L45.4272 23.496L45.5097 23.6995L45.5895 23.903L45.6637 24.1065L45.738 24.3127L45.8095 24.519L45.8783 24.728L45.947 24.937L46.0103 25.146L46.0708 25.3577L46.1312 25.5722L46.1862 25.784L46.2412 25.9985L46.2907 26.2157L46.3403 26.433L46.387 26.6502L46.431 26.8675L46.4695 27.0875L46.508 27.3075L46.5438 27.5302L46.5767 27.7503L46.607 27.9757L46.6345 28.1985L46.6565 28.424L46.6785 28.6495L46.6978 28.875L46.7143 29.1032L46.728 29.3315L46.7362 29.5597L46.7445 29.788L46.7472 30.019L46.75 30.25L46.7472 30.6103L46.7362 30.9705L46.9205 30.8495L47.1102 30.7285L47.3 30.613L47.4925 30.5002L47.6878 30.393L47.8857 30.2857L48.0838 30.184L48.2845 30.085L48.488 29.9888L48.6942 29.898L48.9005 29.81L49.1095 29.7275L49.3185 29.645L49.533 29.568L49.7475 29.4965L49.962 29.4277L50.182 29.3617L50.3993 29.3013L50.622 29.2435L50.8447 29.1885L51.0675 29.139L51.293 29.095L51.5212 29.0538L51.7495 29.0152L51.9805 28.9823L52.2115 28.9548L52.4452 28.93L52.679 28.9107L52.9128 28.8943L53.1493 28.8832L53.3857 28.8778L53.625 28.875L53.944 28.8778L54.2603 28.8915L54.5765 28.9107L54.89 28.9382L55.2007 28.974L55.5088 29.018L55.814 29.0675L56.1165 29.1252L56.419 29.1912L56.716 29.2655L57.0103 29.3452L57.3045 29.4305L57.5933 29.5268L57.8792 29.6258L58.1598 29.733L58.4403 29.8485L58.7153 29.9695L58.9875 30.096L59.257 30.2308L59.521 30.3682L59.7822 30.5167L60.0407 30.668L60.2938 30.8248L60.5412 30.9897L60.786 31.1602L61.028 31.3335L61.2645 31.515L61.4955 31.702L61.721 31.8945L61.9437 32.0925L62.161 32.2933L62.3727 32.5023L62.5817 32.714L62.7825 32.9312L62.9805 33.154L63.173 33.3795L63.36 33.6105L63.5415 33.847L63.7148 34.089L63.8853 34.3338L64.0502 34.5812L64.207 34.8343L64.3583 35.0928L64.5067 35.354L64.6442 35.618L64.779 35.8875L64.9055 36.1597L65.0265 36.4347L65.142 36.7152L65.2493 36.9958L65.3483 37.2817L65.4445 37.5705L65.5297 37.8648L65.6095 38.159L65.6837 38.456L65.7497 38.7585L65.8075 39.061L65.857 39.3662L65.901 39.6742L65.9368 39.985L65.9642 40.2985L65.9835 40.6147L65.9973 40.931L66 41.25L65.9973 41.547L65.9863 41.844L65.9697 42.1382L65.945 42.4298L65.9147 42.7185L65.8763 43.0072L65.8323 43.2933L65.78 43.5793L65.725 43.8597L65.6618 44.1375L65.5902 44.4152L65.516 44.6902L65.4335 44.9625L65.3455 45.232L65.252 45.496L65.1502 45.76L65.0457 46.0213L64.933 46.2798L64.8175 46.5327L64.6937 46.7858L64.5673 47.0333L64.4325 47.278L64.295 47.52L64.1493 47.7593L64.0007 47.993L63.8467 48.224L63.6872 48.4523L63.5222 48.675L63.3545 48.895L63.1813 49.1095L63.0025 49.3213L62.8182 49.5303L62.6312 49.7337L62.4387 49.9318L62.2435 50.127L62.0428 50.3195L61.8365 50.5037L61.6275 50.6852L61.4158 50.864L61.1985 51.0345L60.9757 51.2022L60.753 51.3645L60.5247 51.524L60.291 51.6753L60.0545 51.8237L59.8153 51.964L59.5732 52.1015L59.3285 52.2335L59.0782 52.36L58.8253 52.481L58.5695 52.5965L58.311 52.7065L58.0498 52.8083L57.7858 52.9072L57.519 52.998L57.2467 53.086L56.9745 53.1658L56.6995 53.24L56.4218 53.306L56.1412 53.3692L55.8607 53.4242L55.5747 53.471L55.2887 53.515L55 53.548V53.625H13.75H13.5712L13.3952 53.6195L13.2192 53.614L13.0433 53.6058L12.8672 53.5975L12.694 53.5837L12.518 53.57L12.3448 53.5535L12.1715 53.5342L12.001 53.515L11.8278 53.4903L11.6572 53.4655L11.4868 53.438L11.3162 53.4105L11.1485 53.3775L10.9808 53.3445L10.813 53.3088L10.6453 53.273L10.4802 53.2345L10.3152 53.1905L10.1502 53.1493L9.988 53.1025L9.82575 53.0558L9.6635 53.0063L9.50125 52.954L9.34175 52.9018L9.18225 52.8468L9.0255 52.789L8.866 52.7313L8.70925 52.6707L8.40125 52.5443L8.09325 52.4095L7.79075 52.2692L7.49375 52.1208L7.1995 51.964L6.908 51.8018L6.622 51.634L6.3415 51.458L6.06375 51.2765L5.7915 51.0868L5.52475 50.8915L5.2635 50.6908L5.005 50.4845L4.75475 50.27L4.50725 50.05L4.26525 49.8273L4.02875 49.5963L3.79775 49.3597L3.575 49.1178L3.355 48.8702L3.1405 48.62L2.93425 48.3615L2.7335 48.1003L2.53825 47.8335L2.3485 47.5612L2.167 47.2835L1.991 47.003L1.82325 46.717L1.661 46.4255L1.50425 46.1312L1.35575 45.8342L1.2155 45.5317L1.08075 45.2237L0.95425 44.9158L0.89375 44.759L0.836 44.5995L0.77825 44.4427L0.72325 44.2833L0.671 44.1238L0.61875 43.9615L0.56925 43.7992L0.5225 43.637L0.47575 43.4748L0.4345 43.3097L0.3905 43.1448L0.352 42.9797L0.31625 42.812L0.2805 42.6443L0.2475 42.4765L0.2145 42.3088L0.187 42.1382L0.1595 41.9677L0.13475 41.7972L0.11 41.624L0.09075 41.4535L0.0715 41.2803L0.055 41.107L0.04125 40.931L0.0275 40.7577L0.01925 40.5818L0.011 40.4057L0.00549998 40.2297L0 40.0538V39.875L0.00275002 39.556L0.01375 39.2397L0.033 38.9262L0.05775 38.6155L0.088 38.3048L0.1265 37.9967L0.17325 37.6887L0.2255 37.3863L0.28325 37.0837L0.34925 36.784L0.42075 36.487L0.5005 36.1928L0.583 35.9012L0.67375 35.6125L0.77 35.3265L0.8745 35.0433L0.9845 34.7627L1.09725 34.485L1.21825 34.21L1.34475 33.9405L1.47675 33.671L1.61425 33.407L1.75725 33.1458L1.9085 32.8873L2.0625 32.6343L2.222 32.384L2.38425 32.1365L2.55475 31.8945L2.73075 31.6552L2.9095 31.4188L3.09375 31.1877L3.2835 30.9595L3.47875 30.7368L3.67675 30.5195L3.88025 30.305L4.08925 30.0933L4.301 29.8897L4.51825 29.689L4.741 29.491L4.9665 29.3013L5.19475 29.1143L5.4285 28.93L5.665 28.754L5.907 28.5835L6.15175 28.4158L6.402 28.2535L6.655 28.0967L6.91075 27.9455L7.16925 27.7997L7.43325 27.6595L7.7 27.5247L7.9695 27.3983L8.24175 27.2745L8.5195 27.1563L8.79725 27.0463L9.0805 26.939L9.3665 26.84L9.6525 26.7465L9.944 26.6585L10.2355 26.5787L10.5325 26.5045L10.8295 26.4358L11.132 26.3752L11.4345 26.3203L11.4785 26.1333L11.5225 25.9462L11.6187 25.5778L11.7205 25.212L11.8333 24.849L11.9515 24.4887L12.0752 24.1312L12.21 23.7792L12.3503 23.43L12.496 23.0835L12.65 22.7425L12.8123 22.4043L12.98 22.0715L13.1532 21.7415L13.3348 21.4142L13.5245 21.0925L13.717 20.7763L13.9178 20.4627L14.1267 20.1548L14.3385 19.8495L14.5585 19.5497L14.784 19.2555L15.015 18.9668L15.2515 18.6807L15.4963 18.403L15.7437 18.128L15.9967 17.8585L16.258 17.5945L16.522 17.336L16.7915 17.083L17.0665 16.8327L17.347 16.5907L17.633 16.357L17.9245 16.126L18.2188 15.9005L18.5185 15.6833L18.8238 15.4715L19.1345 15.2652L19.448 15.0645L19.7642 14.872L20.086 14.685L20.4132 14.5035L20.7432 14.3302L21.0788 14.1625L21.417 14.003L21.7607 13.849L22.1073 13.7033L22.4565 13.563L22.8085 13.431L23.166 13.3073L23.5263 13.189L23.8892 13.0817L24.2577 12.9772L24.6262 12.8837L24.8132 12.8397L25.0002 12.7957L25.1873 12.7572L25.377 12.7187L25.564 12.6802L25.7537 12.6472L25.9435 12.6143L26.136 12.584L26.3285 12.5565L26.521 12.529L26.7135 12.5043L26.906 12.4823L27.1013 12.463L27.2965 12.4437L27.4918 12.4273L27.687 12.4135L27.885 12.4025L28.0802 12.3915L28.2782 12.386L28.4762 12.3805L28.677 12.375H28.875L29.106 12.3777ZM28.7045 15.125L28.5368 15.1278L28.369 15.1332L28.2013 15.1388L28.0335 15.147L27.8685 15.158L27.7008 15.169L27.5358 15.1827L27.3708 15.1992L27.2057 15.2157L27.0435 15.235L26.8785 15.2542L26.7162 15.279L26.554 15.301L26.3917 15.3285L26.2323 15.356L26.0728 15.3835L25.9105 15.4165L25.7537 15.4467L25.5942 15.4825L25.4375 15.5183L25.2863 15.554L24.9673 15.6365L24.6565 15.7218L24.3485 15.8153L24.046 15.9143L23.7435 16.0188L23.4438 16.1315L23.1495 16.247L22.858 16.3707L22.5665 16.5L22.2805 16.6375L21.9973 16.7777L21.7195 16.9235L21.4417 17.0775L21.1695 17.2343L20.9 17.3992L20.636 17.567L20.372 17.743L20.1162 17.9217L19.8605 18.106L19.6103 18.2985L19.3655 18.4937L19.1235 18.6918L18.8843 18.898L18.6532 19.107L18.4223 19.3215L18.1995 19.5415L17.9795 19.7642L17.765 19.9925L17.5533 20.2262L17.347 20.4627L17.1462 20.7048L16.951 20.9495L16.7613 21.1997L16.5743 21.4528L16.3927 21.7085L16.2195 21.9698L16.049 22.2365L15.884 22.5032L15.7245 22.7755L15.5705 23.0532L15.4248 23.331L15.2817 23.6143L15.1442 23.9003L15.015 24.189L14.8912 24.4805L14.773 24.7775L14.6602 25.0745L14.553 25.3743L14.454 25.6795L14.3605 25.9875L14.2725 26.2955L14.19 26.6145L14.1543 26.7657L14.113 26.9363L14.0415 27.1947L13.9453 27.4422L13.8243 27.6815L13.6812 27.9042L13.5162 28.116L13.332 28.3085L13.1313 28.4845L12.914 28.6385L12.6802 28.7705L12.4383 28.8805L12.1853 28.9657L11.9268 29.0263L11.6518 29.0757L11.4125 29.1252L11.1732 29.1775L10.9395 29.238L10.7058 29.3013L10.472 29.3727L10.2437 29.447L10.0155 29.5268L9.79 29.6092L9.56725 29.7L9.34725 29.7935L9.12725 29.8925L8.91275 29.9942L8.701 30.1015L8.48925 30.2142L8.28025 30.3298L8.07675 30.4508L7.87325 30.5773L7.67525 30.7065L7.48 30.8385L7.28475 30.976L7.095 31.119L6.908 31.2647L6.72375 31.4132L6.54225 31.5672L6.36625 31.724L6.193 31.8862L6.0225 32.0513L5.85475 32.219L5.6925 32.3923L5.533 32.5655L5.37625 32.7443L5.225 32.9285L5.0765 33.1127L4.9335 33.2998L4.79325 33.4923L4.65575 33.6875L4.52375 33.8855L4.39725 34.0863L4.2735 34.2898L4.15525 34.496L4.03975 34.705L3.92975 34.9167L3.82525 35.1285L3.7235 35.3457L3.62725 35.5657L3.5365 35.7857L3.4485 36.0112L3.366 36.2368L3.289 36.465L3.2175 36.696L3.14875 36.9297L3.0855 37.1635L3.0305 37.4L2.97825 37.6392L2.9315 37.8813L2.8875 38.1232L2.85175 38.368L2.8215 38.6155L2.79675 38.863L2.77475 39.1133L2.761 39.3662L2.75275 39.6192L2.75 39.8833V40.018L2.75275 40.161L2.75825 40.3013L2.76375 40.4415L2.772 40.5845L2.783 40.722L2.794 40.8623L2.80775 41.0025L2.8215 41.14L2.838 41.2775L2.85725 41.415L2.8765 41.5525L2.8985 41.6873L2.92325 41.8248L2.948 41.9595L2.97275 42.0915L3.003 42.2262L3.0305 42.3582L3.0635 42.493L3.0965 42.625L3.13225 42.7543L3.168 42.8862L3.20375 43.0155L3.245 43.1448L3.28625 43.274L3.3275 43.4005L3.3715 43.527L3.41825 43.6535L3.465 43.78L3.509 43.8983L3.6135 44.154L3.72075 44.3988L3.8335 44.6407L3.95175 44.8773L4.07825 45.1138L4.2075 45.3447L4.34225 45.573L4.4825 45.7985L4.62825 46.0213L4.7795 46.2385L4.93625 46.453L5.09575 46.662L5.2635 46.8683L5.434 47.0718L5.61 47.267L5.78875 47.4622L5.973 47.652L6.16275 47.8363L6.358 48.015L6.55325 48.191L6.75675 48.3615L6.963 48.5293L7.172 48.6888L7.3865 48.8455L7.60375 48.9967L7.8265 49.1425L8.052 49.2827L8.28025 49.4175L8.51125 49.5467L8.74775 49.6732L8.98425 49.7915L9.22625 49.9042L9.471 50.0115L9.72675 50.116L9.845 50.16L9.9715 50.2067L10.098 50.2535L10.2245 50.2975L10.351 50.3387L10.4802 50.38L10.6095 50.4212L10.7387 50.457L10.8707 50.4927L11 50.5285L11.132 50.5615L11.2667 50.5945L11.3988 50.622L11.5335 50.6522L11.6655 50.677L11.8003 50.7017L11.9377 50.7265L12.0725 50.7485L12.21 50.7677L12.3475 50.787L12.485 50.8035L12.6225 50.8172L12.7628 50.831L12.9003 50.842L13.0405 50.853L13.1835 50.8612L13.3238 50.8667L13.464 50.8722L13.607 50.875H54.3647L54.4032 50.864L54.6645 50.82L54.923 50.787L55.1457 50.7567L55.3657 50.7182L55.5858 50.6743L55.803 50.6275L56.0175 50.5753L56.232 50.5175L56.4437 50.4543L56.6528 50.3882L56.859 50.3167L57.0652 50.2425L57.2687 50.16L57.4695 50.0748L57.6675 49.9868L57.8628 49.8932L58.058 49.7942L58.2477 49.6925L58.4375 49.5853L58.6245 49.4753L58.806 49.3597L58.9875 49.2415L59.1662 49.1178L59.3395 48.9913L59.5127 48.862L59.6833 48.7272L59.8483 48.5897L60.0105 48.4468L60.17 48.3037L60.3267 48.1553L60.4807 48.0012L60.6292 47.8473L60.775 47.6878L60.918 47.5255L61.0583 47.3605L61.193 47.1927L61.325 47.0222L61.4515 46.849L61.5752 46.6702L61.6963 46.4915L61.8118 46.31L61.9245 46.123L62.0317 45.936L62.1362 45.7463L62.2353 45.5537L62.3315 45.3558L62.4222 45.1605L62.5075 44.9597L62.59 44.7563L62.667 44.5527L62.7412 44.3465L62.81 44.1375L62.8732 43.9257L62.931 43.714L62.986 43.4995L63.0355 43.2822L63.0795 43.0622L63.118 42.8422L63.1538 42.6195L63.1813 42.3967L63.206 42.1712L63.2253 41.943L63.239 41.7148L63.2472 41.4837L63.25 41.25L63.2472 40.9997L63.2362 40.7523L63.2225 40.5075L63.2005 40.2628L63.173 40.0207L63.14 39.7815L63.0988 39.545L63.0548 39.3085L63.0025 39.0748L62.9475 38.8438L62.8843 38.6155L62.8182 38.39L62.744 38.1645L62.667 37.9417L62.5817 37.7245L62.4937 37.5072L62.4002 37.2927L62.3013 37.081L62.1968 36.872L62.0895 36.6658L61.9767 36.465L61.8585 36.2642L61.7347 36.0662L61.6055 35.8738L61.4735 35.6812L61.3387 35.4942L61.1957 35.31L61.0527 35.1312L60.9015 34.9552L60.7475 34.782L60.5907 34.6115L60.4285 34.4465L60.2635 34.2843L60.093 34.1275L59.9198 33.9735L59.7438 33.8223L59.565 33.6793L59.3807 33.5363L59.1938 33.4015L59.0013 33.2695L58.8088 33.1403L58.6108 33.0165L58.41 32.8982L58.2092 32.7855L58.003 32.6782L57.794 32.5737L57.5822 32.4748L57.3678 32.3813L57.1505 32.2933L56.9333 32.208L56.7105 32.131L56.485 32.0567L56.2595 31.9908L56.0312 31.9275L55.8003 31.8725L55.5665 31.8203L55.33 31.7763L55.0935 31.735L54.8543 31.702L54.6122 31.6745L54.3675 31.6525L54.1227 31.6388L53.8753 31.6277L53.6195 31.625L53.438 31.6277L53.2537 31.6333L53.0695 31.6415L52.8853 31.6525L52.7038 31.669L52.5223 31.6883L52.3435 31.7102L52.1647 31.735L51.986 31.7653L51.81 31.7955L51.634 31.8312L51.4608 31.8697L51.2875 31.911L51.117 31.955L50.9465 32.0017L50.776 32.054L50.6082 32.1063L50.4432 32.164L50.2782 32.2245L50.1133 32.285L49.951 32.351L49.7915 32.4198L49.632 32.4912L49.4753 32.5655L49.3185 32.6425L49.1618 32.7222L49.0105 32.802L48.8592 32.8873L48.708 32.9753L48.5595 33.066L48.4137 33.1595L48.2487 33.2668L48.0233 33.4015L47.7895 33.5115L47.542 33.5995L47.289 33.6655L47.0333 33.704L46.772 33.7205L46.5107 33.7122L46.2523 33.6793L45.9965 33.6215L45.749 33.539L45.5097 33.4345L45.2842 33.3053L45.0697 33.1567L44.869 32.989L44.6847 32.8048L44.5197 32.6012L44.3768 32.384L44.253 32.153L44.1512 31.9137L44.0742 31.6635L44.022 31.4105L43.9918 31.1493L43.9862 30.888L43.9973 30.558L44 30.2445V30.0547L43.9945 29.8595L43.989 29.6642L43.9807 29.469L43.9697 29.2765L43.956 29.084L43.9395 28.8915L43.923 28.7018L43.901 28.512L43.879 28.3223L43.8543 28.1325L43.8267 27.9455L43.7965 27.7585L43.7635 27.5715L43.7278 27.3872L43.692 27.2002L43.6535 27.0188L43.6123 26.8345L43.5683 26.653L43.5243 26.4715L43.4748 26.29L43.4253 26.1112L43.373 25.9325L43.3208 25.7537L43.263 25.5778L43.2052 25.4017L43.1447 25.2258L43.0815 25.0525L43.0183 24.8793L42.9522 24.7087L42.8835 24.5382L42.812 24.3678L42.7377 24.1973L42.6635 24.0295L42.5865 23.8645L42.5095 23.6967L42.4298 23.5317L42.3472 23.3695L42.262 23.2072L42.174 23.045L42.086 22.8855L41.9953 22.726L41.9045 22.5693L41.811 22.4125L41.7148 22.2585L41.6185 22.1045L41.5168 21.9505L41.4178 21.7992L41.3132 21.648L41.2087 21.4995L41.1042 21.351L40.9942 21.2052L40.8843 21.0595L40.7743 20.9165L40.6615 20.7735L40.546 20.6332L40.4277 20.493L40.3095 20.3555L40.1912 20.218L40.0702 20.0833L39.9465 19.9485L39.8228 19.8165L39.6962 19.6872L39.567 19.558L39.4378 19.4288L39.3085 19.3022L39.1765 19.1785L39.0417 19.0547L38.907 18.9338L38.7695 18.8155L38.632 18.6972L38.4917 18.579L38.3515 18.4635L38.2085 18.3507L38.0655 18.2407L37.9198 18.1307L37.774 18.0208L37.6255 17.9162L37.477 17.8117L37.3258 17.7072L37.1745 17.6083L37.0205 17.5065L36.8665 17.4103L36.7125 17.314L36.5558 17.2205L36.399 17.1297L36.2395 17.039L36.08 16.951L35.9178 16.863L35.7555 16.7805L35.5933 16.6952L35.4282 16.6155L35.2605 16.5385L35.0955 16.4615L34.9278 16.3873L34.7572 16.313L34.5868 16.2415L34.4162 16.1727L34.2458 16.1068L34.0725 16.0435L33.8993 15.9803L33.7232 15.9197L33.5472 15.862L33.3713 15.8043L33.1925 15.752L33.0137 15.6997L32.835 15.6502L32.6535 15.6008L32.472 15.5567L32.2905 15.5127L32.1063 15.4715L31.9247 15.433L31.7377 15.3973L31.5535 15.3615L31.3665 15.3285L31.1795 15.2982L30.9925 15.2707L30.8027 15.246L30.613 15.224L30.4233 15.202L30.2335 15.1855L30.041 15.169L29.8485 15.1553L29.656 15.1442L29.4608 15.136L29.2655 15.1305L29.0702 15.125H28.7045Z" fill="#D4D4D4"/>
<path d="M5.52734 15.125C5.52734 16.219 5.96194 17.2682 6.73553 18.0418C7.50912 18.8154 8.55833 19.25 9.65234 19.25C10.7464 19.25 11.7956 18.8154 12.5692 18.0418C13.3427 17.2682 13.7773 16.219 13.7773 15.125C13.7773 14.031 13.3427 12.9818 12.5692 12.2082C11.7956 11.4346 10.7464 11 9.65234 11C8.55833 11 7.50912 11.4346 6.73553 12.2082C5.96194 12.9818 5.52734 14.031 5.52734 15.125Z" fill="#EDEDED"/>
<path d="M57.75 24.7504C57.7499 25.1116 57.821 25.4692 57.9592 25.8029C58.0974 26.1366 58.2999 26.4398 58.5553 26.6952C58.8107 26.9506 59.1139 27.1532 59.4475 27.2915C59.7812 27.4297 60.1388 27.5008 60.5 27.5008C60.8612 27.5008 61.2188 27.4297 61.5525 27.2915C61.8861 27.1532 62.1893 26.9506 62.4447 26.6952C62.7001 26.4398 62.9026 26.1366 63.0408 25.8029C63.179 25.4692 63.2501 25.1116 63.25 24.7504C63.2501 24.3892 63.179 24.0316 63.0408 23.6979C62.9026 23.3642 62.7001 23.061 62.4447 22.8056C62.1893 22.5502 61.8861 22.3476 61.5525 22.2094C61.2188 22.0711 60.8612 22 60.5 22C60.1388 22 59.7812 22.0711 59.4475 22.2094C59.1139 22.3476 58.8107 22.5502 58.5553 22.8056C58.2999 23.061 58.0974 23.3642 57.9592 23.6979C57.821 24.0316 57.7499 24.3892 57.75 24.7504Z" fill="#EDEDED"/>
<path d="M16.4863 57.7504C16.4863 58.1116 16.5574 58.4692 16.6955 58.8029C16.8337 59.1366 17.0363 59.4398 17.2916 59.6952C17.547 59.9506 17.8502 60.1532 18.1839 60.2915C18.5175 60.4297 18.8752 60.5008 19.2363 60.5008C19.5975 60.5008 19.9551 60.4297 20.2888 60.2915C20.6225 60.1532 20.9257 59.9506 21.181 59.6952C21.4364 59.4398 21.6389 59.1366 21.7771 58.8029C21.9153 58.4692 21.9864 58.1116 21.9863 57.7504C21.9864 57.3893 21.9153 57.0316 21.7771 56.6979C21.6389 56.3642 21.4364 56.061 21.181 55.8056C20.9257 55.5502 20.6225 55.3476 20.2888 55.2094C19.9551 55.0711 19.5975 55 19.2363 55C18.8752 55 18.5175 55.0711 18.1839 55.2094C17.8502 55.3476 17.547 55.5502 17.2916 55.8056C17.0363 56.061 16.8337 56.3642 16.6955 56.6979C16.5574 57.0316 16.4863 57.3893 16.4863 57.7504Z" fill="#EDEDED"/>
<path d="M45.375 15.1257C45.3749 16.0286 45.5527 16.9226 45.8981 17.7568C46.2436 18.591 46.75 19.349 47.3884 19.9875C48.0268 20.6259 48.7847 21.1324 49.6189 21.4779C50.4531 21.8235 51.3471 22.0013 52.25 22.0013C53.1529 22.0013 54.0469 21.8235 54.8811 21.4779C55.7153 21.1324 56.4732 20.6259 57.1116 19.9875C57.75 19.349 58.2564 18.591 58.6019 17.7568C58.9473 16.9226 59.1251 16.0286 59.125 15.1257C59.1251 14.2228 58.9473 13.3287 58.6019 12.4945C58.2564 11.6603 57.75 10.9023 57.1116 10.2639C56.4732 9.6254 55.7153 9.11894 54.8811 8.77339C54.0469 8.42785 53.1529 8.25 52.25 8.25C51.3471 8.25 50.4531 8.42785 49.6189 8.77339C48.7847 9.11894 48.0268 9.6254 47.3884 10.2639C46.75 10.9023 46.2436 11.6603 45.8981 12.4945C45.5527 13.3287 45.3749 14.2228 45.375 15.1257Z" fill="#EDEDED"/>
<path d="M52.426 8.25275L52.6047 8.25825L52.778 8.26925L52.9513 8.28575L53.1245 8.305L53.2977 8.32975L53.4655 8.35725L53.636 8.39025L53.801 8.426L53.966 8.46725L54.131 8.51125L54.2932 8.558L54.4527 8.61025L54.6122 8.668L54.769 8.7285L54.9257 8.79175L55.077 8.85775L55.2283 8.92925L55.3795 9.0035L55.5252 9.0805L55.671 9.16025L55.814 9.2455L55.9543 9.3335L56.0917 9.42425L56.2292 9.51775L56.3612 9.61675L56.4933 9.7185L56.6225 9.82025L56.749 9.9275L56.8728 10.0375L56.991 10.1502L57.1092 10.2658L57.2247 10.384L57.3375 10.5022L57.4475 10.626L57.5547 10.7525L57.6565 10.8818L57.7582 11.0138L57.8573 11.1457L57.9508 11.2833L58.0415 11.4208L58.1295 11.561L58.2148 11.704L58.2945 11.8497L58.3715 11.9955L58.4458 12.1467L58.5172 12.298L58.5832 12.4492L58.6465 12.606L58.707 12.7628L58.7648 12.9222L58.817 13.0817L58.8638 13.244L58.9077 13.409L58.949 13.574L58.9848 13.739L59.0177 13.9095L59.0453 14.0772L59.07 14.2505L59.0893 14.4237L59.1058 14.597L59.1167 14.7703L59.1222 14.949L59.125 15.125L59.1222 15.301L59.1167 15.4798L59.1058 15.653L59.0893 15.8262L59.07 15.9995L59.0453 16.1727L59.0177 16.3405L58.9848 16.511L58.949 16.676L58.9077 16.841L58.8638 17.006L58.817 17.1683L58.7648 17.3278L58.707 17.4872L58.6465 17.644L58.5832 17.8007L58.5172 17.952L58.4458 18.1032L58.3715 18.2545L58.2945 18.4002L58.2148 18.546L58.1295 18.689L58.0415 18.8293L57.9508 18.9668L57.8573 19.1042L57.7582 19.2362L57.6565 19.3683L57.5547 19.4975L57.4475 19.624L57.3375 19.7478L57.2247 19.866L57.1092 19.9842L56.991 20.0998L56.8728 20.2125L56.749 20.3225L56.6225 20.4298L56.4933 20.5315L56.3612 20.6332L56.2292 20.7323L56.0917 20.8257L55.9543 20.9165L55.814 21.0045L55.671 21.0897L55.5252 21.1695L55.3795 21.2465L55.2283 21.3208L55.077 21.3922L54.9257 21.4583L54.769 21.5215L54.6122 21.582L54.4527 21.6397L54.2932 21.692L54.131 21.7387L53.966 21.7828L53.801 21.824L53.636 21.8597L53.4655 21.8928L53.2977 21.9203L53.1245 21.945L52.9513 21.9642L52.778 21.9808L52.6047 21.9917L52.426 21.9973L52.25 22L52.074 21.9973L51.8952 21.9917L51.722 21.9808L51.5488 21.9642L51.3755 21.945L51.2022 21.9203L51.0345 21.8928L50.864 21.8597L50.699 21.824L50.534 21.7828L50.369 21.7387L50.2067 21.692L50.0472 21.6397L49.8877 21.582L49.731 21.5215L49.5742 21.4583L49.423 21.3922L49.2718 21.3208L49.1205 21.2465L48.9747 21.1695L48.829 21.0897L48.686 21.0045L48.5457 20.9165L48.4083 20.8257L48.2707 20.7323L48.1388 20.6332L48.0067 20.5315L47.8775 20.4298L47.751 20.3225L47.6272 20.2125L47.509 20.0998L47.3907 19.9842L47.2752 19.866L47.1625 19.7478L47.0525 19.624L46.9453 19.4975L46.8435 19.3683L46.7417 19.2362L46.6427 19.1042L46.5493 18.9668L46.4585 18.8293L46.3705 18.689L46.2853 18.546L46.2055 18.4002L46.1285 18.2545L46.0543 18.1032L45.9827 17.952L45.9168 17.8007L45.8535 17.644L45.793 17.4872L45.7353 17.3278L45.683 17.1683L45.6363 17.006L45.5922 16.841L45.551 16.676L45.5153 16.511L45.4823 16.3405L45.4547 16.1727L45.43 15.9995L45.4108 15.8262L45.3942 15.653L45.3832 15.4798L45.3777 15.301L45.375 15.125L45.3777 14.949L45.3832 14.7703L45.3942 14.597L45.4108 14.4237L45.43 14.2505L45.4547 14.0772L45.4823 13.9095L45.5153 13.739L45.551 13.574L45.5922 13.409L45.6363 13.244L45.683 13.0817L45.7353 12.9222L45.793 12.7628L45.8535 12.606L45.9168 12.4492L45.9827 12.298L46.0543 12.1467L46.1285 11.9955L46.2055 11.8497L46.2853 11.704L46.3705 11.561L46.4585 11.4208L46.5493 11.2833L46.6427 11.1457L46.7417 11.0138L46.8435 10.8818L46.9453 10.7525L47.0525 10.626L47.1625 10.5022L47.2752 10.384L47.3907 10.2658L47.509 10.1502L47.6272 10.0375L47.751 9.9275L47.8775 9.82025L48.0067 9.7185L48.1388 9.61675L48.2707 9.51775L48.4083 9.42425L48.5457 9.3335L48.686 9.2455L48.829 9.16025L48.9747 9.0805L49.1205 9.0035L49.2718 8.92925L49.423 8.85775L49.5742 8.79175L49.731 8.7285L49.8877 8.668L50.0472 8.61025L50.2067 8.558L50.369 8.51125L50.534 8.46725L50.699 8.426L50.864 8.39025L51.0345 8.35725L51.2022 8.32975L51.3755 8.305L51.5488 8.28575L51.722 8.26925L51.8952 8.25825L52.074 8.25275L52.25 8.25L52.426 8.25275ZM52.1428 11.0028L52.0355 11.0055L51.931 11.011L51.8265 11.022L51.722 11.033L51.6202 11.0467L51.5185 11.066L51.4167 11.0853L51.3177 11.1045L51.2188 11.1292L51.1198 11.1567L51.0235 11.1842L50.9272 11.2173L50.8338 11.2502L50.7403 11.286L50.6467 11.3245L50.556 11.363L50.4653 11.407L50.3745 11.451L50.2865 11.4977L50.2013 11.5445L50.116 11.5968L50.0308 11.649L49.9482 11.704L49.8658 11.759L49.786 11.8195L49.7063 11.88L49.6292 11.9405L49.5522 12.0065L49.478 12.0725L49.4065 12.1385L49.335 12.21L49.2635 12.2815L49.1975 12.353L49.1315 12.4272L49.0655 12.5043L49.005 12.5812L48.9445 12.661L48.884 12.7407L48.829 12.8232L48.774 12.9057L48.7218 12.991L48.6695 13.0763L48.6228 13.1615L48.576 13.2495L48.532 13.3403L48.488 13.431L48.4495 13.5218L48.411 13.6152L48.3752 13.7087L48.3423 13.8022L48.3092 13.8985L48.2818 13.9947L48.2542 14.0938L48.2295 14.1927L48.2102 14.2917L48.191 14.3935L48.1718 14.4952L48.158 14.597L48.147 14.7015L48.136 14.806L48.1305 14.9105L48.1278 15.0178L48.125 15.125L48.1278 15.2323L48.1305 15.3395L48.136 15.444L48.147 15.5485L48.158 15.653L48.1718 15.7547L48.191 15.8565L48.2102 15.9583L48.2295 16.0572L48.2542 16.1563L48.2818 16.2552L48.3092 16.3515L48.3423 16.4478L48.3752 16.5413L48.411 16.6348L48.4495 16.7282L48.488 16.819L48.532 16.9097L48.576 17.0005L48.6228 17.0885L48.6695 17.1737L48.7218 17.259L48.774 17.3442L48.829 17.4268L48.884 17.5092L48.9445 17.589L49.005 17.6687L49.0655 17.7458L49.1315 17.8228L49.1975 17.897L49.2635 17.9685L49.335 18.04L49.4065 18.1115L49.478 18.1775L49.5522 18.2435L49.6292 18.3095L49.7063 18.37L49.786 18.4305L49.8658 18.491L49.9482 18.546L50.0308 18.601L50.116 18.6532L50.2013 18.7055L50.2865 18.7522L50.3745 18.799L50.4653 18.843L50.556 18.887L50.6467 18.9255L50.7403 18.964L50.8338 18.9998L50.9272 19.0327L51.0235 19.0658L51.1198 19.0933L51.2188 19.1208L51.3177 19.1455L51.4167 19.1647L51.5185 19.184L51.6202 19.2033L51.722 19.217L51.8265 19.228L51.931 19.239L52.0355 19.2445L52.1428 19.2472L52.25 19.25L52.3573 19.2472L52.4645 19.2445L52.569 19.239L52.6735 19.228L52.778 19.217L52.8797 19.2033L52.9815 19.184L53.0833 19.1647L53.1823 19.1455L53.2813 19.1208L53.3802 19.0933L53.4765 19.0658L53.5728 19.0327L53.6663 18.9998L53.7597 18.964L53.8532 18.9255L53.944 18.887L54.0348 18.843L54.1255 18.799L54.2135 18.7522L54.2987 18.7055L54.384 18.6532L54.4693 18.601L54.5518 18.546L54.6343 18.491L54.714 18.4305L54.7938 18.37L54.8708 18.3095L54.9477 18.2435L55.022 18.1775L55.0935 18.1115L55.165 18.04L55.2365 17.9685L55.3025 17.897L55.3685 17.8228L55.4345 17.7458L55.495 17.6687L55.5555 17.589L55.616 17.5092L55.671 17.4268L55.726 17.3442L55.7783 17.259L55.8305 17.1737L55.8772 17.0885L55.924 17.0005L55.968 16.9097L56.012 16.819L56.0505 16.7282L56.089 16.6348L56.1248 16.5413L56.1578 16.4478L56.1907 16.3515L56.2183 16.2552L56.2457 16.1563L56.2705 16.0572L56.2897 15.9583L56.309 15.8565L56.3283 15.7547L56.342 15.653L56.353 15.5485L56.364 15.444L56.3695 15.3395L56.3723 15.2323L56.375 15.125L56.3723 15.0178L56.3695 14.9105L56.364 14.806L56.353 14.7015L56.342 14.597L56.3283 14.4952L56.309 14.3935L56.2897 14.2917L56.2705 14.1927L56.2457 14.0938L56.2183 13.9947L56.1907 13.8985L56.1578 13.8022L56.1248 13.7087L56.089 13.6152L56.0505 13.5218L56.012 13.431L55.968 13.3403L55.924 13.2495L55.8772 13.1615L55.8305 13.0763L55.7783 12.991L55.726 12.9057L55.671 12.8232L55.616 12.7407L55.5555 12.661L55.495 12.5812L55.4345 12.5043L55.3685 12.4272L55.3025 12.353L55.2365 12.2815L55.165 12.21L55.0935 12.1385L55.022 12.0725L54.9477 12.0065L54.8708 11.9405L54.7938 11.88L54.714 11.8195L54.6343 11.759L54.5518 11.704L54.4693 11.649L54.384 11.5968L54.2987 11.5445L54.2135 11.4977L54.1255 11.451L54.0348 11.407L53.944 11.363L53.8532 11.3245L53.7597 11.286L53.6663 11.2502L53.5728 11.2173L53.4765 11.1842L53.3802 11.1567L53.2813 11.1292L53.1823 11.1045L53.0833 11.0853L52.9815 11.066L52.8797 11.0467L52.778 11.033L52.6735 11.022L52.569 11.011L52.4645 11.0055L52.3573 11.0028L52.25 11L52.1428 11.0028Z" fill="#D4D4D4"/>
</g>
<defs>
<clipPath id="clip0_380_53">
<rect width="66" height="66" fill="white"/>
</clipPath>
</defs>
</svg>
