<svg width="69" height="69" viewBox="0 0 69 69" fill="none" xmlns="http://www.w3.org/2000/svg">
<path d="M12.8191 20.5416C13.7186 16.595 15.9434 13.069 19.1283 10.542C22.3133 8.01512 26.2693 6.63734 30.3473 6.63477C32.7669 6.63642 35.1613 7.12274 37.3869 8.06457C39.6126 9.00641 41.6237 10.3844 43.2997 12.1159C44.9758 13.8474 46.2822 15.8969 47.1409 18.1414C47.9995 20.3859 48.3926 22.7794 48.2966 25.1782C49.8621 24.135 51.6462 23.4585 53.5139 23.2C55.3816 22.9415 57.2841 23.1076 59.0776 23.6859C60.8711 24.2642 62.5086 25.2395 63.8664 26.5381C65.2242 27.8366 66.2666 29.4244 66.915 31.1815C67.5633 32.9386 67.8006 34.8189 67.6088 36.6803C67.4171 38.5418 66.8014 40.3356 65.8082 41.9262C64.815 43.5168 63.4704 44.8626 61.8759 45.8617C60.2815 46.8609 58.479 47.4874 56.6047 47.6937V47.7694H15.1474C11.4826 47.7676 7.96835 46.3224 5.37694 43.7511C2.78553 41.1799 1.32891 37.693 1.32715 34.0567C1.32947 30.8213 2.48393 27.6906 4.58668 25.2177C6.68942 22.7448 9.60519 21.0886 12.8191 20.5416Z" fill="#D2ECFF"/>
<path d="M30.429 5.75287L30.6705 5.75575L30.9091 5.76437L31.1478 5.773L31.3864 5.78737L31.625 5.80462L31.8608 5.82475L32.0965 5.84775L32.3323 5.87075L32.5651 5.8995L32.8009 5.93112L33.0309 5.96562L33.2637 6.003L33.4938 6.04325L33.7238 6.0835L33.9509 6.1295L34.178 6.17837L34.4051 6.23012L34.6322 6.28188L34.8565 6.33937L35.0779 6.39687L35.3021 6.46012L35.5235 6.52337L35.742 6.5895L35.9605 6.66137L36.179 6.73325L36.3946 6.808L36.6102 6.88562L36.823 6.96325L37.0358 7.04662L37.2485 7.13287L37.4584 7.21912L37.6683 7.30825L37.8752 7.40312L38.0822 7.498L38.2864 7.59288L38.4905 7.6935L38.6917 7.797L38.893 7.9005L39.0914 8.00687L39.2897 8.11612L39.4853 8.22825L39.6807 8.34037L39.8734 8.45825L40.066 8.57612L40.2557 8.69687L40.4455 8.81763L40.6324 8.94412L40.8192 9.07062L41.0033 9.2L41.1844 9.33225L41.3655 9.4645L41.5438 9.59963L41.722 9.73762L41.8974 9.8785L42.0727 10.0194L42.2452 10.1631L42.4149 10.3098L42.5816 10.4564L42.7484 10.6059L42.9151 10.7582L43.079 10.9135L43.24 11.0687L43.3981 11.2269L43.5563 11.385L43.7115 11.546L43.8667 11.7099L44.0191 11.8766L44.1686 12.0434L44.3153 12.2101L44.4619 12.3798L44.6056 12.5522L44.7465 12.7276L44.8874 12.903L45.0254 13.0812L45.1605 13.2595L45.2927 13.4406L45.425 13.6217L45.5544 13.8057L45.6809 13.9926L45.8074 14.1795L45.9281 14.3693L46.0489 14.559L46.1668 14.7516L46.2846 14.9443L46.3968 15.1398L46.5089 15.3352L46.6181 15.5336L46.7245 15.732L46.828 15.9333L46.9315 16.1345L47.0321 16.3386L47.127 16.5427L47.2219 16.7498L47.3167 16.9567L47.4059 17.1666L47.4921 17.3765L47.5784 17.5892L47.6618 17.802L47.7394 18.0147L47.817 18.2304L47.8918 18.446L47.9636 18.6645L48.0355 18.883L48.1016 19.1015L48.1649 19.3229L48.2281 19.5471L48.2856 19.7685L48.3431 19.9928L48.3949 20.2199L48.4466 20.447L48.4955 20.6741L48.5415 20.9012L48.5817 21.1312L48.622 21.3612L48.6594 21.5941L48.6939 21.8241L48.7255 22.0599L48.7542 22.2927L48.7773 22.5285L48.8003 22.7642L48.8204 23L48.8376 23.2386L48.852 23.4772L48.8606 23.7159L48.8692 23.9545L48.8721 24.196L48.875 24.4375L48.8721 24.8141L48.8606 25.1908L49.0532 25.0642L49.2516 24.9377L49.45 24.817L49.6512 24.6991L49.8554 24.587L50.0624 24.4749L50.2694 24.3685L50.4793 24.265L50.692 24.1644L50.9076 24.0695L51.1232 23.9775L51.3418 23.8912L51.5603 23.805L51.7845 23.7245L52.0088 23.6497L52.233 23.5779L52.463 23.5089L52.6901 23.4456L52.923 23.3852L53.1559 23.3277L53.3888 23.276L53.6245 23.23L53.8631 23.1869L54.1017 23.1466L54.3433 23.1121L54.5848 23.0834L54.8291 23.0575L55.0735 23.0374L55.3179 23.0201L55.5651 23.0086L55.8124 23.0029L56.0625 23L56.396 23.0029L56.7266 23.0172L57.0573 23.0374L57.385 23.0661L57.7099 23.1035L58.0319 23.1495L58.351 23.2013L58.6673 23.2616L58.9835 23.3306L59.294 23.4082L59.6016 23.4916L59.9093 23.5807L60.2111 23.6814L60.5101 23.7849L60.8034 23.897L61.0966 24.0177L61.3841 24.1442L61.6688 24.2765L61.9505 24.4174L62.2265 24.5611L62.4996 24.7164L62.7699 24.8745L63.0344 25.0384L63.2931 25.2109L63.549 25.3891L63.802 25.5702L64.0492 25.76L64.2907 25.9555L64.5265 26.1567L64.7594 26.3637L64.9865 26.5736L65.2079 26.7921L65.4264 27.0135L65.6363 27.2406L65.8432 27.4735L66.0445 27.7092L66.24 27.9507L66.4297 28.198L66.6109 28.451L66.7891 28.7069L66.9616 28.9656L67.1255 29.2301L67.2836 29.5004L67.4389 29.7735L67.5826 30.0495L67.7235 30.3312L67.8558 30.6159L67.9822 30.9034L68.103 31.1966L68.2151 31.4899L68.3186 31.7889L68.4193 32.0907L68.5084 32.3984L68.5918 32.706L68.6694 33.0165L68.7384 33.3328L68.7988 33.649L68.8505 33.9681L68.8965 34.2901L68.9339 34.615L68.9626 34.9428L68.9827 35.2734L68.9971 35.604L69 35.9375L68.9971 36.248L68.9856 36.5585L68.9684 36.8661L68.9425 37.1709L68.9109 37.4727L68.8706 37.7746L68.8246 38.0736L68.77 38.3726L68.7125 38.6659L68.6464 38.9563L68.5716 39.2466L68.494 39.5341L68.4078 39.8188L68.3158 40.1005L68.218 40.3765L68.1116 40.6525L68.0024 40.9256L67.8845 41.1959L67.7637 41.4604L67.6344 41.7249L67.5021 41.9836L67.3613 42.2395L67.2175 42.4925L67.0651 42.7426L66.9099 42.987L66.7489 43.2285L66.5821 43.4671L66.4096 43.7L66.2342 43.93L66.0531 44.1543L65.8662 44.3756L65.6736 44.5941L65.4781 44.8069L65.2769 45.0139L65.0728 45.218L64.8629 45.4193L64.6472 45.6119L64.4287 45.8016L64.2074 45.9885L63.9803 46.1668L63.7474 46.3421L63.5145 46.5118L63.2759 46.6785L63.0315 46.8366L62.7842 46.9919L62.5341 47.1385L62.2811 47.2822L62.0252 47.4203L61.7636 47.5525L61.4991 47.679L61.2318 47.7998L60.9615 47.9147L60.6884 48.0211L60.4124 48.1246L60.1335 48.2195L59.8489 48.3115L59.5643 48.3949L59.2768 48.4725L58.9864 48.5415L58.6931 48.6076L58.3999 48.6651L58.1009 48.714L57.8019 48.76L57.5 48.7945V48.875H14.375H14.1881L14.0041 48.8693L13.8201 48.8635L13.6361 48.8549L13.4521 48.8463L13.271 48.8319L13.087 48.8175L12.9059 48.8003L12.7247 48.7801L12.5465 48.76L12.3654 48.7341L12.1871 48.7082L12.0089 48.6795L11.8306 48.6507L11.6553 48.6163L11.4799 48.5817L11.3045 48.5444L11.1291 48.507L10.9566 48.4668L10.7841 48.4207L10.6116 48.3776L10.442 48.3288L10.2724 48.2799L10.1027 48.2281L9.93312 48.1735L9.76637 48.1189L9.59963 48.0614L9.43575 48.001L9.269 47.9406L9.10513 47.8774L8.78312 47.7451L8.46113 47.6043L8.14487 47.4576L7.83438 47.3024L7.52675 47.1385L7.222 46.9689L6.923 46.7935L6.62975 46.6095L6.33938 46.4198L6.05475 46.2214L5.77587 46.0173L5.50275 45.8074L5.2325 45.5918L4.97088 45.3675L4.71212 45.1375L4.45913 44.9046L4.21187 44.6631L3.97038 44.4159L3.7375 44.1629L3.5075 43.9041L3.28325 43.6425L3.06763 43.3722L2.85775 43.0991L2.65363 42.8203L2.45525 42.5356L2.2655 42.2453L2.0815 41.952L1.90612 41.653L1.7365 41.3483L1.57263 41.0406L1.41737 40.7301L1.27075 40.4139L1.12987 40.0919L0.997625 39.7699L0.934375 39.606L0.874 39.4393L0.813625 39.2754L0.756125 39.1086L0.7015 38.9419L0.646875 38.7722L0.595125 38.6026L0.54625 38.433L0.497375 38.2634L0.45425 38.0909L0.40825 37.9184L0.368 37.7459L0.330625 37.5705L0.29325 37.3951L0.25875 37.2197L0.22425 37.0444L0.1955 36.8661L0.16675 36.6879L0.140875 36.5096L0.115 36.3285L0.094875 36.1502L0.07475 35.9691L0.0575 35.788L0.043125 35.604L0.02875 35.4229L0.020125 35.2389L0.0115 35.0549L0.00574998 34.8709L0 34.6869V34.5L0.00287502 34.1665L0.014375 33.8359L0.0345 33.5081L0.060375 33.1833L0.092 32.8584L0.13225 32.5364L0.181125 32.2144L0.23575 31.8981L0.296125 31.5819L0.365125 31.2685L0.439875 30.958L0.52325 30.6504L0.6095 30.3456L0.704375 30.0437L0.805 29.7447L0.91425 29.4486L1.02925 29.1554L1.14713 28.865L1.27363 28.5775L1.40587 28.2957L1.54388 28.014L1.68763 27.738L1.83712 27.4649L1.99525 27.1946L2.15625 26.9301L2.323 26.6685L2.49262 26.4097L2.67088 26.1567L2.85488 25.9066L3.04175 25.6594L3.23438 25.4179L3.43275 25.1792L3.63687 24.9464L3.84387 24.7192L4.05662 24.495L4.27513 24.2736L4.4965 24.0609L4.72363 23.851L4.9565 23.644L5.19225 23.4456L5.43088 23.2501L5.67525 23.0575L5.9225 22.8735L6.1755 22.6952L6.43138 22.5199L6.693 22.3503L6.9575 22.1864L7.22487 22.0282L7.49513 21.8759L7.77113 21.7292L8.05 21.5884L8.33175 21.4561L8.61637 21.3267L8.90675 21.2031L9.19712 21.0881L9.49325 20.976L9.79225 20.8725L10.0912 20.7747L10.396 20.6827L10.7007 20.5994L11.0112 20.5217L11.3217 20.4499L11.638 20.3866L11.9543 20.3291L12.0002 20.1336L12.0462 19.9381L12.1469 19.5529L12.2533 19.1705L12.3711 18.791L12.4948 18.4144L12.6241 18.0406L12.765 17.6726L12.9116 17.3075L13.064 16.9452L13.225 16.5887L13.3946 16.2351L13.57 15.8872L13.7511 15.5422L13.9409 15.2001L14.1393 14.8637L14.3405 14.5331L14.5504 14.2054L14.7689 13.8834L14.9903 13.5642L15.2203 13.2509L15.456 12.9432L15.6975 12.6414L15.9447 12.3424L16.2006 12.052L16.4594 11.7645L16.7239 11.4827L16.997 11.2067L17.273 10.9365L17.5548 10.672L17.8423 10.4104L18.1355 10.1574L18.4345 9.913L18.7392 9.6715L19.0469 9.43575L19.3602 9.20862L19.6794 8.98725L20.0042 8.77162L20.332 8.56175L20.6626 8.3605L20.999 8.165L21.3411 7.97525L21.6861 7.79412L22.0369 7.61875L22.3905 7.452L22.7499 7.291L23.1121 7.13862L23.4772 6.992L23.8452 6.854L24.219 6.72462L24.5956 6.601L24.9751 6.48887L25.3604 6.37962L25.7456 6.28188L25.9411 6.23587L26.1366 6.18988L26.3321 6.14962L26.5305 6.10937L26.726 6.06912L26.9244 6.03462L27.1227 6.00012L27.324 5.9685L27.5252 5.93975L27.7265 5.911L27.9277 5.88512L28.129 5.86212L28.3331 5.842L28.5373 5.82187L28.7414 5.80462L28.9455 5.79025L29.1525 5.77875L29.3566 5.76725L29.5636 5.7615L29.7706 5.75575L29.9805 5.75H30.1875L30.429 5.75287ZM30.0093 8.625L29.8339 8.62787L29.6585 8.63363L29.4831 8.63937L29.3078 8.648L29.1353 8.6595L28.9599 8.671L28.7874 8.68537L28.6149 8.70262L28.4424 8.71988L28.2728 8.74L28.1002 8.76013L27.9306 8.786L27.761 8.809L27.5914 8.83775L27.4246 8.8665L27.2579 8.89525L27.0883 8.92975L26.9244 8.96138L26.7576 8.99875L26.5938 9.03612L26.4356 9.0735L26.1021 9.15975L25.7773 9.24887L25.4552 9.34662L25.139 9.45012L24.8228 9.55938L24.5094 9.67725L24.2017 9.798L23.897 9.92737L23.5923 10.0625L23.2932 10.2062L22.9971 10.3529L22.7067 10.5053L22.4164 10.6662L22.1318 10.8301L21.85 11.0026L21.574 11.178L21.298 11.362L21.0306 11.5489L20.7633 11.7415L20.5016 11.9427L20.2458 12.1469L19.9928 12.3539L19.7426 12.5695L19.5011 12.788L19.2596 13.0122L19.0268 13.2423L18.7968 13.4751L18.5725 13.7137L18.3511 13.9581L18.1355 14.2054L17.9256 14.4584L17.7215 14.7143L17.5231 14.9759L17.3276 15.2404L17.1379 15.5078L16.9567 15.7809L16.7785 16.0597L16.606 16.3386L16.4393 16.6232L16.2782 16.9136L16.1259 17.204L15.9764 17.5001L15.8326 17.7991L15.6975 18.101L15.5681 18.4058L15.4445 18.7163L15.3266 19.0268L15.2145 19.3401L15.111 19.6592L15.0132 19.9812L14.9213 20.3033L14.835 20.6367L14.7976 20.7949L14.7545 20.9731L14.6798 21.2434L14.5791 21.5021L14.4526 21.7523L14.3031 21.9851L14.1306 22.2065L13.938 22.4077L13.7281 22.5917L13.501 22.7527L13.2566 22.8907L13.0036 23.0057L12.7391 23.0949L12.466 23.1581L12.1814 23.2099L11.9312 23.2616L11.6811 23.3162L11.4367 23.3795L11.1895 23.4456L10.948 23.5204L10.7094 23.598L10.4707 23.6814L10.235 23.7676L10.0021 23.8625L9.77213 23.9603L9.54213 24.0637L9.31787 24.1701L9.0965 24.2822L8.87512 24.4001L8.65662 24.5209L8.44387 24.6474L8.23112 24.7796L8.02413 24.9147L7.82 25.0527L7.61588 25.1965L7.4175 25.346L7.222 25.4984L7.02938 25.6536L6.83962 25.8146L6.65562 25.9785L6.4745 26.1481L6.29625 26.3206L6.12087 26.496L5.95125 26.6771L5.7845 26.8582L5.62062 27.0451L5.4625 27.2377L5.30725 27.4304L5.15775 27.6259L5.01112 27.8271L4.86737 28.0312L4.72937 28.2382L4.59713 28.4481L4.46775 28.6609L4.34412 28.8765L4.22337 29.095L4.10838 29.3164L3.99913 29.5377L3.89275 29.7649L3.79212 29.9949L3.69725 30.2249L3.60525 30.4606L3.519 30.6964L3.4385 30.935L3.36375 31.1765L3.29187 31.4209L3.22575 31.6652L3.16825 31.9125L3.11363 32.1626L3.06475 32.4156L3.01875 32.6686L2.98137 32.9245L2.94975 33.1833L2.92387 33.442L2.90088 33.7036L2.8865 33.9681L2.87787 34.2326L2.875 34.5086V34.6495L2.87787 34.799L2.88363 34.9456L2.88937 35.0922L2.898 35.2417L2.9095 35.3855L2.921 35.5321L2.93537 35.6788L2.94975 35.8225L2.967 35.9662L2.98712 36.11L3.00725 36.2537L3.03025 36.3946L3.05613 36.5384L3.082 36.6792L3.10787 36.8172L3.1395 36.9581L3.16825 37.0961L3.20275 37.237L3.23725 37.375L3.27462 37.5101L3.312 37.6481L3.34938 37.7832L3.3925 37.9184L3.43563 38.0535L3.47875 38.1857L3.52475 38.318L3.57363 38.4503L3.6225 38.5825L3.6685 38.7061L3.77775 38.9735L3.88987 39.2294L4.00775 39.4824L4.13137 39.7296L4.26363 39.9769L4.39875 40.2184L4.53963 40.457L4.68625 40.6927L4.83862 40.9256L4.99675 41.1528L5.16063 41.377L5.32737 41.5955L5.50275 41.8111L5.681 42.0239L5.865 42.228L6.05188 42.4321L6.2445 42.6305L6.44287 42.8231L6.647 43.01L6.85113 43.194L7.06388 43.3722L7.2795 43.5476L7.498 43.7144L7.72225 43.8783L7.94938 44.0364L8.18225 44.1888L8.418 44.3354L8.65662 44.4763L8.89812 44.6114L9.14538 44.7436L9.39262 44.8673L9.64563 44.9851L9.9015 45.0973L10.1689 45.2065L10.2925 45.2525L10.4248 45.3014L10.557 45.3503L10.6893 45.3963L10.8215 45.4394L10.9566 45.4825L11.0918 45.5256L11.2269 45.563L11.3649 45.6004L11.5 45.6377L11.638 45.6723L11.7789 45.7068L11.9169 45.7355L12.0577 45.7671L12.1958 45.793L12.3366 45.8189L12.4804 45.8448L12.6213 45.8677L12.765 45.8879L12.9087 45.908L13.0525 45.9253L13.1962 45.9396L13.3429 45.954L13.4866 45.9655L13.6333 45.977L13.7828 45.9856L13.9294 45.9914L14.076 45.9971L14.2255 46H56.8359L56.8761 45.9885L57.1493 45.9425L57.4195 45.908L57.6524 45.8764L57.8824 45.8361L58.1124 45.7901L58.3395 45.7412L58.5638 45.6866L58.788 45.6263L59.0094 45.5601L59.2279 45.4911L59.4435 45.4164L59.6591 45.3388L59.8719 45.2525L60.0817 45.1634L60.2887 45.0714L60.4929 44.9736L60.697 44.8701L60.8954 44.7638L61.0938 44.6516L61.2892 44.5366L61.479 44.4159L61.6688 44.2923L61.8556 44.1629L62.0367 44.0306L62.2179 43.8955L62.3961 43.7546L62.5686 43.6109L62.7383 43.4614L62.905 43.3119L63.0689 43.1566L63.2299 42.9956L63.3851 42.8346L63.5375 42.6679L63.687 42.4983L63.8336 42.3258L63.9745 42.1504L64.1125 41.9721L64.2448 41.791L64.3741 41.6041L64.5006 41.4173L64.6214 41.2275L64.7393 41.032L64.8514 40.8365L64.9606 40.6381L65.0641 40.4369L65.1647 40.2299L65.2596 40.0257L65.3488 39.8159L65.435 39.6031L65.5155 39.3904L65.5931 39.1747L65.665 38.9563L65.7311 38.7349L65.7915 38.5135L65.849 38.2892L65.9007 38.0621L65.9467 37.8321L65.987 37.6021L66.0244 37.3693L66.0531 37.1364L66.079 36.9006L66.0991 36.662L66.1135 36.4234L66.1221 36.1819L66.125 35.9375L66.1221 35.6759L66.1106 35.4171L66.0963 35.1613L66.0732 34.9054L66.0445 34.6524L66.01 34.4023L65.9669 34.155L65.9209 33.9077L65.8662 33.6634L65.8088 33.4219L65.7426 33.1833L65.6736 32.9475L65.596 32.7118L65.5155 32.4789L65.4264 32.2517L65.3344 32.0246L65.2366 31.8004L65.1331 31.579L65.0239 31.3605L64.9118 31.1449L64.7939 30.935L64.6702 30.7251L64.5409 30.5181L64.4057 30.3169L64.2678 30.1156L64.1269 29.9201L63.9774 29.7275L63.8279 29.5406L63.6698 29.3566L63.5088 29.1755L63.3449 28.9972L63.1752 28.8247L63.0028 28.6551L62.8245 28.4912L62.6434 28.3302L62.4594 28.1721L62.2725 28.0226L62.0799 27.8731L61.8844 27.7322L61.6831 27.5942L61.4819 27.4591L61.2749 27.3297L61.065 27.2061L60.8551 27.0882L60.6395 26.9761L60.421 26.8669L60.1996 26.7634L59.9754 26.6656L59.7482 26.5736L59.5182 26.4845L59.2882 26.404L59.0525 26.3264L58.8168 26.2574L58.5781 26.1912L58.3366 26.1337L58.0923 26.0791L57.845 26.0331L57.5978 25.99L57.3476 25.9555L57.0946 25.9268L56.8388 25.9037L56.5829 25.8894L56.3241 25.8779L56.0568 25.875L55.867 25.8779L55.6744 25.8836L55.4818 25.8923L55.2891 25.9037L55.0994 25.921L54.9096 25.9411L54.7227 25.9641L54.5359 25.99L54.349 26.0216L54.165 26.0532L53.981 26.0906L53.7999 26.1309L53.6188 26.174L53.4405 26.22L53.2623 26.2689L53.084 26.3235L52.9086 26.3781L52.7361 26.4385L52.5636 26.5017L52.3911 26.565L52.2215 26.634L52.0547 26.7059L51.888 26.7806L51.7241 26.8582L51.5603 26.9388L51.3964 27.0221L51.2383 27.1055L51.0801 27.1946L50.922 27.2866L50.7668 27.3815L50.6144 27.4792L50.4419 27.5914L50.2061 27.7322L49.9617 27.8472L49.703 27.9392L49.4385 28.0082L49.1711 28.0485L48.898 28.0657L48.6249 28.0571L48.3546 28.0226L48.0872 27.9622L47.8285 27.876L47.5784 27.7668L47.3426 27.6316L47.1184 27.4764L46.9085 27.301L46.7159 27.1084L46.5462 26.8956L46.3939 26.6685L46.2645 26.427L46.1581 26.1769L46.0776 25.9152L46.023 25.6507L45.9914 25.3776L45.9856 25.1045L45.9971 24.7595L46 24.4317V24.2334L45.9943 24.0292L45.9885 23.8251L45.9799 23.621L45.9684 23.4197L45.954 23.2185L45.9368 23.0172L45.9195 22.8189L45.8965 22.6205L45.8735 22.4221L45.8476 22.2237L45.8189 22.0282L45.7873 21.8328L45.7528 21.6372L45.7154 21.4446L45.678 21.2491L45.6377 21.0594L45.5946 20.8667L45.5486 20.677L45.5026 20.4872L45.4509 20.2975L45.3991 20.1106L45.3445 19.9237L45.2899 19.7369L45.2295 19.5529L45.1691 19.3689L45.1059 19.1849L45.0397 19.0037L44.9736 18.8226L44.9046 18.6444L44.8327 18.4633L44.758 18.2879L44.6832 18.1096L44.6027 17.9342L44.5223 17.7617L44.4417 17.5864L44.3584 17.4139L44.2692 17.2442L44.183 17.0746L44.091 16.905L43.999 16.7382L43.9041 16.5715L43.8092 16.4076L43.7115 16.2438L43.6109 16.0827L43.5103 15.9217L43.4039 15.7608L43.3004 15.6026L43.1911 15.4445L43.0819 15.2892L42.9726 15.134L42.8576 14.9816L42.7426 14.8293L42.6276 14.6798L42.5098 14.5302L42.389 14.3836L42.2654 14.237L42.1418 14.0932L42.0181 13.9495L41.8916 13.8086L41.7622 13.6677L41.6329 13.5297L41.5006 13.3946L41.3655 13.2595L41.2304 13.1244L41.0952 12.9921L40.9573 12.8628L40.8164 12.7334L40.6755 12.6069L40.5317 12.4832L40.388 12.3596L40.2414 12.236L40.0948 12.1181L39.9453 11.9974L39.7957 11.8824L39.6434 11.7674L39.491 11.6524L39.3358 11.5431L39.1805 11.4339L39.0224 11.3246L38.8643 11.2182L38.7033 11.1147L38.5422 11.0141L38.3812 10.9135L38.2174 10.8157L38.0535 10.7209L37.8868 10.626L37.72 10.534L37.5504 10.442L37.3808 10.3529L37.2111 10.2666L37.0386 10.1832L36.8633 10.1027L36.6908 10.0222L36.5154 9.94462L36.3371 9.867L36.1589 9.79225L35.9806 9.72037L35.8024 9.65137L35.6213 9.58525L35.4401 9.51912L35.2561 9.45588L35.0721 9.3955L34.8881 9.33512L34.7013 9.2805L34.5144 9.22587L34.3275 9.17413L34.1377 9.12237L33.948 9.07638L33.7583 9.03038L33.5656 8.98725L33.3759 8.947L33.1804 8.90962L32.9878 8.87225L32.7923 8.83775L32.5967 8.80613L32.4012 8.77737L32.2029 8.7515L32.0045 8.7285L31.8061 8.7055L31.6077 8.68825L31.4065 8.671L31.2052 8.65662L31.004 8.64512L30.7999 8.6365L30.5957 8.63075L30.3916 8.625H30.0093Z" fill="#8ECDFF"/>
<path d="M40.25 43.125L30.2393 50.6345C30.0829 50.7522 29.9592 50.9078 29.8798 51.0866C29.8004 51.2655 29.768 51.4616 29.7855 51.6565C29.8031 51.8513 29.8701 52.0385 29.9802 52.2003C30.0902 52.362 30.2398 52.493 30.4146 52.5809L33.3356 54.0414C33.4806 54.1153 33.6085 54.219 33.7107 54.3456C33.813 54.4722 33.8875 54.619 33.9293 54.7763C33.971 54.9336 33.9792 55.098 33.9532 55.2587C33.9272 55.4193 33.8676 55.5727 33.7784 55.7089L28.75 63.25L38.7608 55.7405C38.9171 55.6228 39.0408 55.4672 39.1202 55.2884C39.1996 55.1095 39.232 54.9134 39.2145 54.7185C39.1969 54.5237 39.1299 54.3365 39.0198 54.1747C38.9098 54.013 38.7602 53.882 38.5854 53.7941L35.6644 52.3336C35.5194 52.2597 35.3915 52.156 35.2893 52.0294C35.187 51.9028 35.1125 51.756 35.0708 51.5987C35.029 51.4414 35.0208 51.277 35.0468 51.1163C35.0728 50.9557 35.1324 50.8023 35.2216 50.6661L40.25 43.125Z" fill="#FFE97C"/>
<path d="M19.4065 52.3281C19.4065 52.3281 19.8837 57.2501 19.0212 58.7451C18.6373 59.4001 18.0099 59.8766 17.2759 60.0706C16.5419 60.2647 15.761 60.1605 15.1035 59.7809C14.446 59.4013 13.9654 58.7771 13.7665 58.0444C13.5675 57.3117 13.6665 56.5301 14.0417 55.8701C14.9042 54.3751 19.4065 52.3281 19.4065 52.3281ZM53.9065 52.3281C53.9065 52.3281 54.3837 57.2501 53.5212 58.7451C53.1373 59.4001 52.5098 59.8766 51.7759 60.0706C51.0419 60.2647 50.261 60.1605 49.6035 59.7809C48.946 59.4013 48.4654 58.7771 48.2665 58.0444C48.0675 57.3117 48.1665 56.5301 48.5417 55.8701C49.4042 54.3751 53.9065 52.3281 53.9065 52.3281Z" fill="#8ECDFF"/>
</svg>
