<svg width="1920" height="1080" viewBox="0 0 1920 1080" fill="none" xmlns="http://www.w3.org/2000/svg">
<g clip-path="url(#clip0_390_233)">
<path d="M1283.54 1080C1288.52 1070.68 1295.92 1060.47 1301.62 1051.28C1307.34 1042.06 1313.25 1029.73 1320.13 1021.84C1317.92 1036.38 1305.56 1064.35 1300.92 1080H1283.54Z" fill="#C1E7FB"/>
<path d="M1116.57 927L1127.33 927.033C1125.19 937.993 1121.3 950.81 1115.27 960.232C1112.19 961.362 1111.49 961.76 1108.22 960.985C1105.25 959.114 1104.62 957.24 1103.11 954.122C1104.65 942.799 1108.51 934.887 1116.57 927Z" fill="#C1E7FB"/>
<path d="M1410.9 994.25C1427.43 992.552 1436.21 1011.71 1417.83 1022.48C1415.91 1022.64 1410.91 1023.07 1409.52 1022.26C1394.98 1013.89 1396.94 1000.73 1410.9 994.25Z" fill="#C1E7FB"/>
<path d="M809.9 996.089C817.558 995.297 824.434 1000.82 825.354 1008.51C826.273 1016.2 820.894 1023.22 813.267 1024.26C808.218 1024.96 803.188 1022.87 800.108 1018.78C797.028 1014.7 796.379 1009.26 798.408 1004.56C800.437 999.853 804.83 996.617 809.9 996.089Z" fill="#C1E7FB"/>
<path d="M879.734 873.3C893.815 872.833 901.079 890.043 886.653 895.556C874.196 896.816 874.48 892.708 869.519 882.237C873.209 877.588 874.663 876.319 879.734 873.3Z" fill="#C1E7FB"/>
<path d="M1234.87 866.74L1247.19 866.935L1245.36 868.851L1234.59 868.818L1234.87 866.74Z" fill="#B6CDD7"/>
<path d="M344.826 807.115L345.83 808.221C346.101 812.633 328.81 857.576 327.329 866.594C326.16 873.713 320.123 877.324 312.204 875.621C309.543 870.43 308.321 863.151 311.471 857.9C320.456 842.925 331.294 829.318 339.528 813.773C340.751 811.464 343.002 808.975 344.826 807.115Z" fill="#C1E7FB"/>
<path d="M1060.81 663.775L1061.49 664.455C1062.9 668.306 1055.91 692.261 1054.19 697.531C1050.98 707.456 1046.76 729.558 1033.03 725.433C1021.22 713.073 1052.51 677.201 1060.81 663.775Z" fill="#C1E7FB"/>
<path d="M1142.62 727.38C1152.87 726.36 1154.69 727.169 1161.21 735.18C1162.47 744.969 1164.2 747.72 1154.97 753.333C1138.15 754.775 1127.65 739.923 1142.62 727.38Z" fill="#C1E7FB"/>
<path d="M204.979 958.729C211.414 957.927 217.257 962.568 217.99 969.048C218.724 975.528 214.068 981.366 207.62 982.045C201.251 982.725 195.532 978.103 194.808 971.708C194.082 965.303 198.623 959.512 204.979 958.729Z" fill="#C1E7FB"/>
<path d="M181.361 906.609C187.22 906.353 193.332 905.088 196.107 911.677C197.803 915.703 196.027 919.616 194.743 923.467C193.715 926.551 192.631 926.273 189.8 927.341C175.77 927.264 168.657 916.633 181.361 906.609Z" fill="#C1E7FB"/>
<path d="M625.183 927.319C627.959 926.963 630.368 926.871 633.143 926.75C636.062 928.814 632.268 932.128 635.156 938.285L635.36 938.708C633.429 942.412 629.907 942.953 626.258 945.882C621.693 945.41 617.249 944.693 612.717 943.995C612.652 938.714 612.354 935.605 611.652 930.364L625.183 927.319Z" fill="#C1E7FB"/>
<path d="M437.29 976C451.635 976.415 453.625 990.332 440.959 998.074C439.379 998.202 437.617 998.345 436.07 997.929C433.309 997.175 430.999 995.271 429.72 992.696C425.794 984.774 430.725 979.369 437.29 976Z" fill="#C1E7FB"/>
<path d="M1040.57 629.156C1052.37 631.385 1060.59 638.074 1050.22 649.222C1047.75 649.596 1045.34 649.818 1042.92 648.913C1040.89 648.168 1039.24 646.632 1038.34 644.648C1036.01 639.411 1038.49 633.916 1040.57 629.156Z" fill="#C1E7FB"/>
<path d="M1038.62 777.193C1050.24 777.173 1057.82 784.107 1048.69 793.845C1043.03 793.688 1039.37 794.236 1035.86 789.163C1034.52 784.163 1036.27 781.547 1038.62 777.193Z" fill="#C1E7FB"/>
<path d="M1499.87 168.076C1500.97 161.059 1502.01 154.751 1504.19 147.977C1517.16 107.879 1564.95 84.9717 1604.26 99.4319C1628.38 108.304 1639.23 122.681 1649.91 144.839C1654.76 143.642 1659.6 142.241 1664.58 141.701C1713.02 136.444 1711.63 182.884 1718.71 187.011C1727.53 192.16 1741.34 180.162 1763.15 198.134C1773.41 206.635 1779.83 218.939 1780.96 232.266C1780.52 235.736 1780.22 238.451 1780.04 241.949C1768.45 243.077 1750.14 242.789 1737.99 242.847L1660.15 242.85L1406.38 242.865C1407.51 213.591 1418.08 193.479 1449.56 192.68C1456.85 166.396 1475.47 160.655 1499.87 168.076Z" fill="url(#paint0_linear_390_233)"/>
<path d="M738.39 832.85C738.362 830.935 738.452 829.019 738.66 827.116C740.396 811.887 763.459 786.918 769.898 771.541C770.989 768.94 771.662 766.766 773.894 765C774.967 768.296 776.177 770.34 774.544 773.724C765.774 791.893 761.621 815.434 752.871 832.997L751.969 834.783C748.559 838.506 747.862 838.85 743.16 838.457C740.179 836.673 739.916 835.837 738.39 832.85Z" fill="#C1E7FB"/>
<path d="M1638.76 970.85C1638.73 968.935 1638.82 967.019 1639.03 965.116C1640.77 949.887 1663.83 924.918 1670.27 909.541C1671.36 906.94 1672.03 904.766 1674.27 903C1675.34 906.296 1676.55 908.34 1674.92 911.724C1666.15 929.893 1661.99 953.434 1653.24 970.997L1652.34 972.783C1648.93 976.506 1648.24 976.85 1643.53 976.457C1640.55 974.673 1640.29 973.837 1638.76 970.85Z" fill="#C1E7FB"/>
<path d="M1322.01 217.782C1327.67 207.076 1334.72 197.89 1341.35 187.782C1345.45 181.527 1349.84 171.556 1354.77 166.385L1356.09 166.289C1357.5 175.92 1338.18 212.984 1343.24 217.89C1336.16 217.984 1329.08 217.948 1322.01 217.782Z" fill="#C1E7FB"/>
<path d="M582.64 827.172C581.056 826.279 581.139 826.28 579.931 824.896C580.458 820.877 580.034 818.9 584.362 818.156C586.957 819.625 587.313 820.383 589.039 822.87L589.108 823.704C587.121 824.501 583.737 826.92 582.64 827.172Z" fill="#C1E7FB"/>
<path d="M600.416 830.691L596.773 812.926C599.16 813.04 599.616 813.579 601.723 814.922L602.721 814.115C601.377 811.935 599.985 809.823 598.91 807.5C601.151 806.666 600.548 806.971 603.351 807.712C603.953 809.459 604.279 810.614 604.718 812.408C608.909 811.649 607.444 807.629 610.305 808.357C612.112 814.116 613.553 810.633 612.486 813.843C604.727 820.061 604.762 821.468 603.114 831.383C607.782 830.061 609.69 829.332 613.761 826.619C617.116 824.383 619.61 819.714 622.954 820.097L622.453 822.855C626.308 825.194 625.43 821.839 628.478 824.89C626.883 826.871 625.953 826.787 623.398 827.838C624.403 829.942 625.128 830.988 626.428 832.936C623.041 832.872 620.332 831.898 617.087 830.951C613.134 832.293 608.34 833.77 604.517 835.248C609.526 837.899 616.444 842.538 621.578 840.53C624.178 839.513 625.226 838.926 627.425 839.564L627.643 840.987C625.406 841.969 624.15 842.494 622.083 843.777C623.548 845.294 624.285 845.643 626.093 846.761C624.335 850.194 623.766 851.697 620.875 854.264C612.64 854.175 615.878 843.452 606.371 840.954L605.168 841.533C601.797 856.46 608.286 851.006 610.601 860.238L609.958 862.008C608.243 860.603 606.778 859.304 605.143 857.805L603.898 858.318C603.508 860.601 603.092 862.879 602.65 865.153L601.463 865.763C597.41 861.959 602.531 854.2 592.778 859.913L592.632 858.291C596.281 854.184 602.225 847.171 600.889 841.284C597.066 838.414 593.863 841.541 590.297 843.842C585.919 844.894 584.686 845.41 580.579 847.316L577.748 848.041L577.392 847.088C579.493 845.347 580.707 844.653 581.835 842.156C580.529 840.735 579.554 839.913 578.087 838.654L578.868 837.317C580.523 836.894 582.303 837.133 583.703 838.149C587.492 840.897 594.19 837.082 599.302 835.014C586.487 830.001 589.647 832.271 578.697 831.548L578.717 829.485L582.641 827.173C583.738 826.921 587.122 824.503 589.108 823.706L589.04 822.871C590.653 819.422 596.866 831.82 600.416 830.691Z" fill="#C1E7FB"/>
<path d="M580.579 847.316C584.686 845.409 585.919 844.893 590.297 843.842C588.979 847.194 587.356 852.158 585.076 854.705C582.867 853.598 582.711 850.459 582.598 848.067L580.579 847.316Z" fill="#C1E7FB"/>
<path d="M1044.14 70.4915C1080 66.4072 1108.59 88.1032 1116.38 123.496C1134.03 121.658 1144.58 122.981 1158.79 135.585C1182.77 156.866 1177.43 197.258 1145.12 205.811C1136.29 208.146 1116.3 207.259 1106.24 207.275C1082.49 207.27 1058.73 207.141 1034.98 206.89C1013.62 206.892 991.591 205.036 970.13 205.03C962.005 205.029 942.71 205.242 937.143 205.03C889.765 203.233 892.354 139.574 946.444 139.596C954.139 116.286 969.704 107.558 993.745 113.2C1003.22 89.3868 1018.63 75.0826 1044.14 70.4915Z" fill="url(#paint1_linear_390_233)"/>
<path d="M495.469 695C502.86 697.65 497.258 700.407 501.523 705.61L503.127 705.519C503.944 703.267 504.622 701.551 505.616 699.374L507.178 699.707L507.747 701.304C506.794 704.374 503.972 707.198 501.833 709.698L502.618 724.252C505.921 721.746 508.934 719.074 512.061 716.357C512.654 712.79 513.624 705.227 515.799 702.9C518.41 704.004 515.546 709.481 518.36 712.235C521.293 709.875 522.07 709.187 525.518 707.55L526.919 708.117L527.29 709.845C524.879 714.255 523.982 712.146 520.442 716.027C521.658 717.459 531.152 719.94 534.078 720.933C527.812 721.526 521.044 721.06 514.721 720.817C511.722 722.266 507.407 725.149 504.451 727.004C517.73 734.992 515.059 729.865 528.6 730.735C526.314 733.007 522.844 734.037 519.758 735.282C524.075 737.315 525.65 737.889 529.081 741.13L528.523 742.398C525.01 742.238 523.436 742.05 519.961 742.739L519.309 744.36L520.474 746.845L519.972 748.208L518.612 748.032C516.175 745.718 515.42 741.314 514.259 737.696C511.246 734.527 506.185 732.879 502.056 731.165L505.375 744.108C508.329 746.893 512.58 749.606 513.222 752.657L512.049 753.595C509.282 753.463 508.326 752.374 506.261 750.605L505.513 749.959L505.31 760.452C502.684 760.649 503.9 760.895 501.542 759.643C500.486 756.711 500.459 754.85 500.2 751.801L499.323 751.152C497.468 752.772 495.592 754.368 493.695 755.939C492.115 754.846 492.616 755.229 491.894 752.964C492.904 750.63 495.033 749.975 497.424 748.715C500.246 744.555 499.32 735.804 499.134 730.589C489.785 738.582 490.405 739.31 484.682 750.503L483.83 750.588L483.131 744.322C480.79 743.162 477.321 746.607 473.648 745.608C474.675 742.116 477.581 742.569 480.269 738.712C478.224 737.921 476.194 737.091 474.181 736.22L473.809 734.702L475.303 733.056C478.903 732.326 481.053 734.849 485.717 735.927C488.969 734.676 493.849 730.466 496.8 728.158C481.587 718.666 483.83 724.042 472.963 725.771L471.658 724.545C473.036 722.277 474.76 722.78 477.986 720.581C477.505 718.965 473.386 716.794 471.056 714.546L471.313 713.173C474.142 712.444 476.293 713.841 479.535 714.941C483.203 714.137 478.97 711.151 481.468 707.423C484.185 709.931 484.995 713.395 486.241 716.943C489.455 719.641 494.075 724.303 497.766 721.227C498.578 718.195 496.978 713.995 496.071 710.801C492.508 709.318 487.592 707.202 486.347 703.225L487.17 701.881C489.426 701.587 492.213 704.396 494.719 706.068L495.84 704.029C494.573 699.823 494.532 699.289 495.469 695Z" fill="#C1E7FB"/>
<path d="M1018.78 359.221C1019.2 359.668 1020.23 422.433 993.572 413.391C991.06 410.185 989.466 408.399 989.381 404.077C989.119 391.142 1010.03 368.701 1018.78 359.221Z" fill="#C1E7FB"/>
<path d="M117.883 429.559C118.819 430.014 119.008 430.336 119.811 431.059C117.574 442.472 99.6181 491.093 92.7701 503.364C91.4351 505.756 87.1468 505.791 84.3935 505.774C72.6664 490.612 93.597 471.53 100.813 457.945C105.397 449.316 112.238 437.301 117.883 429.559Z" fill="#C1E7FB"/>
<path d="M973.172 290.07L974.841 290.985C973.191 304.282 969.431 351.847 948.713 345.011C938.053 334.294 947.363 322.233 954.881 312.611C960.769 305.085 966.778 297.141 973.172 290.07Z" fill="#C1E7FB"/>
<path d="M915.663 475.236L916.278 476.498C915.97 481.661 896.263 541.875 889.423 547.091C886.521 549.304 885.219 548.645 882.163 548.231C880.15 545.558 878.594 543.423 878.515 539.926C878.295 530.086 910.49 480.452 915.663 475.236Z" fill="#C1E7FB"/>
<path d="M1890.24 585L1890.86 586.262C1890.55 591.424 1870.84 651.638 1864 656.854C1861.1 659.067 1859.8 658.409 1856.74 657.995C1854.73 655.322 1853.17 653.186 1853.1 649.69C1852.88 639.85 1885.07 590.216 1890.24 585Z" fill="#C1E7FB"/>
<path d="M792.486 232.545L793.999 233.238L794.469 234.574C788.422 251.784 782.317 268.99 776.188 286.17C772.901 295.386 770.973 305.667 759.993 305.513C758.374 303.73 755.88 300.56 755.75 298.37C755.122 287.705 787.46 238.965 792.486 232.545Z" fill="#C1E7FB"/>
<path d="M272.453 554.271C274.018 557.443 270.994 566.927 269.5 569.944C264.489 580.065 253.629 621.741 245.97 626.581C242.673 627.63 241.571 627.066 238.343 626.111C228.879 609.702 255.116 585.707 261.366 570.761C262.853 567.205 269.745 557.29 272.453 554.271Z" fill="#C1E7FB"/>
<path d="M318.262 361.602C319.999 362.067 319.927 361.959 321.151 363.263C319.084 372.876 301.462 418.005 296.672 430.168C295.654 432.755 291.184 433.132 288.575 433.5C283.432 428.532 282.012 421.324 285.564 415.46C295.668 398.776 307.476 377.498 318.262 361.602Z" fill="#C1E7FB"/>
<path d="M1049.63 270.523C1051.63 275.227 1047.08 331.695 1024.38 325.187C1010.94 310.2 1039.78 283.127 1049.63 270.523Z" fill="#C1E7FB"/>
<path d="M589.467 153.613C590.196 155.032 591.038 156.698 590.163 158.269C583.761 169.753 576.751 224.203 558.706 219.938C556.464 216.767 554.969 213.019 555.237 209.265C555.816 201.17 585.443 157.209 589.467 153.613Z" fill="#C1E7FB"/>
<path d="M1104.93 300.682L1105.8 301.676C1106.33 308.445 1102.75 322.767 1100.91 329.93C1097.93 341.5 1094.65 359.593 1079.29 355.877C1065.92 342.009 1095.41 311.707 1104.93 300.682Z" fill="#C1E7FB"/>
<path d="M758.202 91.3711C760.77 96.2335 747.043 134.616 744.204 142.116C741.175 150.116 737.314 157.427 727.777 156.222C717.442 143.852 739.061 120.032 745.447 108.969C748.57 103.56 754.1 96.1608 758.202 91.3711Z" fill="#C1E7FB"/>
<path d="M1333.68 33.7656L1334.4 34.9953C1334.59 43.0581 1318.26 92.9043 1311.63 100.346C1308.82 102.221 1306.13 101.879 1302.73 101.9C1294.34 86.2798 1323.72 46.6965 1333.68 33.7656Z" fill="#C1E7FB"/>
<path d="M406.824 269.357C413.386 268.943 419.714 267.937 424.683 273.232C432.033 281.056 426.221 290.498 420.268 296.525C401.358 297.738 391.974 282.463 406.824 269.357Z" fill="#C1E7FB"/>
<path d="M126.161 656.695C137.188 656.106 137.668 656.926 142.618 666.798C140.019 672.292 138.482 675.558 133.616 679.167C114.38 679.682 110.862 660.255 126.161 656.695Z" fill="#C1E7FB"/>
<path d="M1789.14 130.17C1805.03 128.855 1804 148.083 1793.73 152.694C1778.57 150.92 1774.73 138.951 1789.14 130.17Z" fill="#C1E7FB"/>
<path d="M867.216 277.767C871.04 276.179 875.424 277.953 877.09 281.764C878.755 285.574 877.091 290.024 873.342 291.786C870.841 292.962 867.903 292.682 865.664 291.056C863.426 289.43 862.238 286.712 862.56 283.953C862.883 281.194 864.664 278.826 867.216 277.767Z" fill="#C1E7FB"/>
<path d="M568.359 26.1632C571.02 25.3344 573.87 26.685 574.929 29.2769C575.989 31.8688 574.908 34.8457 572.437 36.1401C570.629 37.0875 568.444 36.9257 566.793 35.7221C565.142 34.5184 564.308 32.4795 564.64 30.4555C564.972 28.4315 566.411 26.7698 568.359 26.1632Z" fill="#C8DFE6"/>
<path d="M288.823 -3C296.928 24.3659 297.29 52.5294 294.108 80.7109C293.784 83.5868 292.032 92.2 295.37 93.3701C324.463 103.568 344.676 129.486 345.814 160.983C360.939 159.157 371.256 162.036 383.188 171.247C401.555 185.426 405.127 217.096 390.254 234.973C383.611 242.955 374.864 248.69 364.181 249.76C341.586 251.178 318.332 250.636 295.719 250.328C271.473 249.997 247.385 250.115 223.146 250.009C210.558 249.954 193.581 247.735 181.778 250.133C180.814 250.329 179.722 250.66 178.537 251.09H8.94434V-3H288.823Z" fill="url(#paint2_linear_390_233)" fill-opacity="0.7"/>
</g>
<defs>
<linearGradient id="paint0_linear_390_233" x1="1537.93" y1="107.174" x2="1628.17" y2="309.413" gradientUnits="userSpaceOnUse">
<stop stop-color="#FFFDFB"/>
<stop offset="1" stop-color="#DEE5EF"/>
</linearGradient>
<linearGradient id="paint1_linear_390_233" x1="1040.99" y1="70" x2="1040.99" y2="210" gradientUnits="userSpaceOnUse">
<stop stop-color="#FFFDFB"/>
<stop offset="1" stop-color="#E4EAF2"/>
</linearGradient>
<linearGradient id="paint2_linear_390_233" x1="204.224" y1="-3" x2="204.224" y2="251.09" gradientUnits="userSpaceOnUse">
<stop stop-color="white"/>
<stop offset="1" stop-color="#E1E7F0"/>
</linearGradient>
<clipPath id="clip0_390_233">
<rect width="1920" height="1080" fill="white"/>
</clipPath>
</defs>
</svg>
