<svg width="173" height="154" viewBox="0 0 173 154" fill="none" xmlns="http://www.w3.org/2000/svg">
<path d="M19.7798 34.865C33.4253 6.70405 59.9531 -0.46721 89.3169 0.0231155C105.147 0.287813 127.369 4.396 138.726 16.408C142.471 22.6152 144.449 22.4936 144.283 30.6494C143.726 31.4801 143.311 32.0779 142.696 32.8627C147.315 39.9529 143.819 36.988 145.059 43.9615C145.181 44.4938 146.939 53.3978 146.763 52.927L146.939 57.8996C146.792 63.8993 146.27 68.4519 144.195 74.1644L144.19 78.4806C142.779 80.4419 142.325 81.8386 141.768 84.2077C139.952 85.9058 133.482 91.8957 133.052 93.6987C134.532 94.3351 135.279 94.0303 136.485 94.4337C137.334 97.5203 134.512 100.265 132.754 102.8L132.266 102.95C131.055 104.798 128.331 108.025 127.828 109.319L128.365 110.565L125.699 112.407C119.947 114.884 107.652 118.458 101.353 118.686C98.6822 119.125 96.0112 119.537 93.3306 119.922C90.855 119.602 82.0171 119.699 78.9556 119.64C77.9497 119.458 72.2793 118.717 71.333 118.727C68.0576 118.763 53.627 114.327 51.7891 115.045L52.0908 115.976C49.6494 116.023 49.7407 114.289 45.8521 114.248L46.5366 112.465C45.2319 111.174 38.4385 106.999 36.5376 105.644C33.3115 103.249 30.2876 100.148 27.5835 97.1974C25.5215 94.7995 24.543 93.3286 22.8086 90.6674C21.5918 88.3462 20.5938 86.2369 19.499 83.8561L18.7266 82.6308C18.3189 79.9696 17.3423 77.1014 16.8501 73.7253L17.2739 73.3776L16.9312 71.0642C16.6695 69.3817 16.5425 67.4038 16.3848 65.6842L16.6011 63.3611L16.5337 60.7703L15.7017 56.3393L10.4932 60.2487C10.0518 57.6305 10.0752 57.0274 8.09622 55.3122L7.64844 55.2531L7.22218 54.7394L6.64991 54.0708C4.4502 51.4492 3.64844 52.4933 1.51953 49.4478C5.4624 40.4506 9.29689 35.625 19.7798 34.865Z" fill="#2A3ADD"/>
<path d="M25.7529 55.5332C27.0317 60.708 26.9219 69.7263 30.0771 74.3707C32.208 72.553 30.251 67.342 30.791 64.9378C31.1753 66.1602 31.206 66.0249 31.3159 67.2707C32.7432 72.51 33.919 76.394 37.1924 80.8279C40.4009 82.506 42.8755 85.3293 47.0464 86.138C47.8755 86.2987 48.834 87.0947 50.1201 87.1739C59.2212 87.7345 68.3813 87.4014 77.4956 87.505C93.0376 87.1973 108.931 88.45 124.327 86.3929C127.041 86.0301 132.696 81.1625 135.513 79.8839C134.541 81.6684 131.241 85.3259 132.198 86.7617C139.107 86.3871 142.159 79.7755 144.195 74.1646L144.19 78.4808C142.779 80.4421 142.325 81.8389 141.768 84.208C139.952 85.906 133.482 91.8959 133.052 93.699C134.532 94.3353 135.279 94.0306 136.485 94.434C137.334 97.5205 134.512 100.266 132.754 102.8L132.266 102.95C131.055 104.798 128.331 108.025 127.828 109.32L128.365 110.565L125.699 112.408C119.947 114.885 107.652 118.458 101.353 118.686C98.6821 119.125 96.0112 119.537 93.3306 119.923C90.855 119.602 82.0171 119.699 78.9556 119.64C77.9497 119.459 72.2793 118.717 71.333 118.728C68.0576 118.764 53.6269 114.327 51.7891 115.045L52.0908 115.977C49.6494 116.023 49.7407 114.289 45.8521 114.248L46.5366 112.465C45.2319 111.174 38.4385 106.999 36.5376 105.645C33.3115 103.25 30.2876 100.148 27.5835 97.1977C25.5215 94.7998 24.543 93.3288 22.8086 90.6677C21.5918 88.3464 20.5937 86.2372 19.499 83.8563L18.7266 82.631C18.3189 79.9699 17.3423 77.1017 16.8501 73.7255L17.2739 73.3778L16.9312 71.0644C16.6694 69.382 16.5425 67.4041 16.3848 65.6845L16.6011 63.3613L19.1094 62.4671C19.7979 64.3889 19.73 65.6122 21.0547 66.2935L23.2026 65.8618C24.0181 67.5721 23.771 67.8973 25.062 68.3774L25.6133 67.7396C25.0884 63.5073 25.2139 59.7371 25.7529 55.5332Z" fill="#869EE2"/>
<path d="M127.555 104.584C128.605 104.568 131.207 103.393 132.267 102.949C131.056 104.797 128.331 108.024 127.828 109.319L128.365 110.564L125.699 112.407C119.947 114.884 107.652 118.457 101.354 118.685L101.021 117.881C101.935 116.057 106.373 115.778 108.697 115.295C117.726 113.42 121.148 110.838 127.555 104.584Z" fill="#627AF3"/>
<path d="M115.953 74.912C119.796 74.1633 126.598 74.1472 132.433 73.0957C128.888 76.7482 120.333 77.682 115.953 74.912Z" fill="#2756CF"/>
<path d="M54.5513 43.0045C61.4287 40.3302 64.166 39.8027 70.7427 43.4416C71.1142 43.7888 73.5229 46.0891 73.814 46.2444L75.2842 48.8347C75.7139 50.1997 76.0215 50.9381 76.2119 52.3637C76.6953 55.5742 76.5097 56.946 76.251 60.1732C75.2646 63.1264 74.6689 64.1515 72.7778 66.6866L71.207 67.8284C65.7593 71.3828 60.9287 71.943 55.0908 68.8858L53.1587 67.9388L52.8442 67.4915C50.4165 65.3578 50.519 64.216 48.8252 61.631L48.4306 61.0362C48.1377 59.8084 47.918 58.1079 47.7148 56.8205C47.7646 55.3095 47.9785 53.9064 48.1719 52.4105C48.5171 50.4951 48.5351 50.3726 49.4326 48.672L50.1118 47.0101L51.7661 45.588L51.9858 45.3765C52.6382 44.6581 53.7969 43.6848 54.5513 43.0045Z" fill="#4698E2"/>
<path d="M112.715 40.9352C113.765 39.5322 114.414 39.7773 115.371 37.6138C118.677 30.1622 124.116 27.1295 129.966 34.3193C132.524 36.62 134.224 38.6502 135.879 41.701C140.742 45.5157 140.952 71.7383 129.39 69.6173C127.202 69.2154 121.216 70.3499 119.468 69.1524C119.419 68.4042 119.365 68.0145 119.419 67.2653L119.648 66.6305C122.012 64.1671 123.262 60.0023 123.926 56.738L123.706 55.456L123.188 51.2736L123.013 50.3139L121.45 47.4374C120.117 45.3203 118.672 44.0891 116.88 42.3852L115.923 42.3037L112.715 40.9352Z" fill="#1825DC"/>
<path d="M155.205 44.7539C157.007 47.8868 155.879 48.129 158.437 51.4964C160.459 53.5358 162.197 55.3237 164.082 57.4863C161.699 57.4965 159.873 57.6328 157.559 56.9637C157.061 54.8227 156.484 53.5383 155.669 51.5227C155.83 49.1043 155.503 47.1367 155.205 44.7539Z" fill="#ACC5F2"/>
<path d="M138.727 16.4082C144.947 21.6001 148.517 27.7472 152.599 34.6225C152.721 34.8301 153.995 34.9751 154.269 34.9781C154.317 36.87 154.513 40.4864 154.42 42.2563C153.619 42.499 152.989 42.6621 152.545 43.2999C151.729 44.4749 146.554 44.851 146.822 46.9134C147.066 48.7389 147.364 51.0694 146.764 52.9272C146.939 53.398 145.182 44.494 145.06 43.9617C143.819 36.9882 147.315 39.9531 142.696 32.8629C143.311 32.0781 143.727 31.4803 144.283 30.6496C144.449 22.4938 142.472 22.6154 138.727 16.4082Z" fill="#78EAFA"/>
<path d="M120.274 124.055C131.626 128.184 131.045 139.781 120.444 144.552C116.729 146.226 110.601 146.19 107.686 142.819C105.391 138.34 106.699 136.652 106.968 131.086C107.315 130.626 107.666 130.174 108.032 129.729C112.031 124.889 114.483 124.57 120.274 124.055Z" fill="#CDDFF8"/>
<path d="M19.7798 34.865C33.4253 6.70405 59.9531 -0.46721 89.3169 0.0231155C105.147 0.287813 127.369 4.396 138.726 16.408C142.471 22.6152 144.449 22.4936 144.283 30.6494C143.726 31.4801 143.311 32.0779 142.696 32.8627C147.315 39.9529 143.819 36.988 145.059 43.9615C145.181 44.4938 146.939 53.3978 146.763 52.927L146.939 57.8996C146.792 63.8993 146.27 68.4519 144.195 74.1644C142.159 79.7753 139.107 86.3868 132.198 86.7614C131.241 85.3256 134.542 81.6682 135.513 79.8837C140.303 72.9913 142.637 60.5964 141.075 52.3913C140.391 44.4176 136.348 37.3787 130.806 31.803C127.52 28.8249 124.293 26.823 120.157 25.3198L117.168 24.0007C114.224 23.0967 110.108 22.8711 107.037 22.7148C99.0777 21.3088 63.5913 22.1342 55.0205 23.9529L50.1338 25.5137L49.5191 26.0773L47.9966 26.8943C44.9473 28.7487 43.0518 29.889 40.4302 32.3275C33.0996 40.368 30.2993 47.4465 30.4048 58.5159L30.791 64.9375C30.251 67.3418 32.208 72.5527 30.0772 74.3704C26.9219 69.726 27.0317 60.7077 25.7529 55.533C25.2139 59.7369 25.0884 63.5071 25.6133 67.7393L25.062 68.3771C23.771 67.8971 24.0181 67.5718 23.2027 65.8615L21.0547 66.2933C19.73 65.612 19.7979 64.3886 19.1094 62.4669L16.6011 63.3611L16.5337 60.7703L15.7017 56.3393L10.4932 60.2487C10.0518 57.6305 10.0752 57.0274 8.09622 55.3122L7.64844 55.2531L7.22218 54.7394L6.64991 54.0708C4.4502 51.4492 3.64844 52.4933 1.51953 49.4478C5.4624 40.4506 9.29689 35.625 19.7798 34.865Z" fill="#8FF5FC"/>
<path d="M35.1389 29.5717C42.6077 25.2408 46.6365 19.8203 57.2844 18.5838C76.407 16.3632 100.675 15.8699 119.669 19.4199C123.399 20.1173 132.047 26.3069 135.152 28.5168C140.011 33.4962 142.159 37.6142 145.059 43.9606C145.181 44.4929 146.939 53.3969 146.763 52.9261L146.939 57.8987C146.793 63.8984 146.27 68.451 144.195 74.1635C142.159 79.7744 139.107 86.386 132.198 86.7605C131.241 85.3247 134.542 81.6673 135.513 79.8828C140.303 72.9904 142.637 60.5955 141.075 52.3904C140.391 44.4167 136.348 37.3778 130.806 31.8021C127.52 28.824 124.293 26.8221 120.157 25.3189L117.169 23.9998C114.224 23.0959 110.108 22.8702 107.037 22.714C99.0779 21.3079 63.5916 22.1333 55.0208 23.952L50.134 25.5128L49.5193 26.0764L47.9968 26.8934C44.9475 28.7478 43.052 29.8881 40.4304 32.3266C33.0999 40.3671 30.2996 47.4456 30.405 58.515L30.7913 64.9366C30.2512 67.3409 32.2083 72.5518 30.0774 74.3696C26.9221 69.7251 27.032 60.7069 25.7532 55.5321C24.699 49.4997 26.1404 45.6401 28.0022 39.9422C28.0271 39.9227 34.2493 30.7125 35.1389 29.5717Z" fill="url(#paint0_linear_391_3290)"/>
<path d="M35.1387 29.5717C40.1885 23.0515 43.2002 18.1863 50.9849 13.8979C65.0161 6.16797 91.3383 5.75774 106.812 9.14997C116.065 11.1792 130.865 20.7713 135.152 28.5168C132.046 26.307 123.399 20.1173 119.668 19.4199C100.674 15.87 76.4067 16.3632 57.2842 18.5839C46.6362 19.8204 42.6074 25.2408 35.1387 29.5717Z" fill="#C2F2FA"/>
<path d="M17.6553 42.8419C18.2138 45.8136 18.1304 49.9506 18.1807 53.0669L18.9888 52.6601L21.2476 53.9142C25.6108 53.0816 23.9111 44.6899 27.2793 39.8809L28.0015 39.9434C26.1396 45.6412 24.6982 49.5008 25.7524 55.5332C25.2134 59.7371 25.0879 63.5073 25.6128 67.7396L25.0615 68.3774C23.7705 67.8973 24.0176 67.5721 23.2021 65.8618L21.0542 66.2935C19.7295 65.6122 19.7974 64.3888 19.1089 62.4671L16.6006 63.3613L16.5332 60.7705L15.7012 56.3395L16.5869 51.6321C16.2051 48.5822 17.0112 45.8522 17.6553 42.8419Z" fill="#A3F0FC"/>
<path d="M19.1094 62.467L20.5259 61.584C22.3857 62.2257 22.5688 64.0171 23.2026 65.8616L21.0547 66.2934C19.73 65.6121 19.7979 64.3887 19.1094 62.467Z" fill="#78EAFA"/>
<path d="M8.56443 44.3966C10.6714 42.2976 13.4517 37.8382 16.291 38.4927C17.4687 39.8547 17.3857 40.9531 17.6552 42.8411C17.0112 45.8514 16.2051 48.5814 16.5869 51.6313L15.7012 56.3388L10.4927 60.2482C10.0513 57.63 10.0747 57.0269 8.0957 55.3117C8.99121 54.8033 9.24755 54.7652 10.2261 54.416C9.95165 51.2094 9.17283 47.5974 8.56443 44.3966Z" fill="#A3F0FC"/>
<path d="M10.2261 54.4175C14.084 54.9137 12.6323 52.0938 16.5869 51.6328L15.7012 56.3402L10.4927 60.2496C10.0513 57.6315 10.0747 57.0283 8.0957 55.3132C8.99121 54.8048 9.24755 54.7667 10.2261 54.4175Z" fill="#C2F2FA"/>
<path d="M43.293 101.146C48.207 102.563 60.1592 104.896 65.1538 105.052C75.2783 107.982 107.573 107.644 118.096 104.766C121.45 103.57 124.336 102.228 127.554 104.585C128.604 104.569 131.206 103.393 132.266 102.95C131.055 104.798 128.33 108.025 127.827 109.319L128.364 110.565L125.698 112.407C119.946 114.884 107.651 118.458 101.353 118.686C98.6816 119.125 96.0107 119.537 93.3301 119.922C90.8545 119.602 82.0166 119.699 78.9551 119.64C77.9492 119.458 72.2788 118.717 71.3325 118.727C68.0571 118.764 53.6265 114.327 51.7886 115.045L52.0903 115.976C49.6489 116.023 49.7402 114.289 45.8516 114.248L46.5361 112.465C45.2314 111.174 38.438 106.999 36.5371 105.644C38.3623 103.671 40.6079 101.418 43.293 101.146Z" fill="#4668EC"/>
<path d="M127.554 104.584C128.604 104.568 131.206 103.393 132.266 102.949C131.055 104.797 128.33 108.024 127.827 109.319L128.364 110.564L125.698 112.407C119.946 114.884 107.651 118.457 101.353 118.685C98.6816 119.124 96.0107 119.536 93.3301 119.922C90.8545 119.601 82.0166 119.698 78.9551 119.639C77.9492 119.458 72.2788 118.716 71.3325 118.727C68.0571 118.763 53.6265 114.326 51.7886 115.044L52.0903 115.976C49.6489 116.022 49.7402 114.288 45.8516 114.247L46.5361 112.464C51.7231 112.821 57.3428 112.392 62.4658 112.782C67.8867 113.417 72.5132 114.644 77.998 115.396C89.9854 117.04 106.328 114.1 116.748 107.847C117.988 107.103 117.974 106.021 118.096 104.765C121.45 103.569 124.336 102.227 127.554 104.584Z" fill="#6273F8"/>
<path d="M16.6011 63.361L19.1094 62.4668C19.7979 64.3885 19.73 65.6119 21.0547 66.2932L23.2026 65.8615C24.0181 67.5717 23.771 67.897 25.062 68.3771L25.6133 67.7393C27.71 76.1241 29.8159 76.1632 31.4224 80.7295L31.9199 84.464C33.2217 85.9082 33.9453 86.2119 34.2066 87.8968L33.2559 88.8701C32.8257 90.2102 33.0855 90.4915 33.5127 91.856C28.6787 91.9303 27.5293 88.4428 22.8086 90.6673C21.5918 88.3461 20.5937 86.2368 19.499 83.856L18.7266 82.6307C18.3189 79.9696 17.3423 77.1013 16.8501 73.7252L17.2739 73.3775L16.9312 71.0641C16.6694 69.3817 16.5425 67.4037 16.3848 65.6842L16.6011 63.361Z" fill="#77BAF4"/>
<path d="M16.6011 63.361L19.1094 62.4668C19.7979 64.3885 19.73 65.6119 21.0547 66.2932L23.2026 65.8615C24.0181 67.5717 23.771 67.897 25.062 68.3771L25.6133 67.7393C27.71 76.1241 29.8159 76.1632 31.4224 80.7295L31.9199 84.464C28.2309 81.8561 28.8032 78.7696 23.4141 78.126C21.1958 78.3252 18.666 75.0097 17.2739 73.3775L16.9312 71.0641C16.6694 69.3817 16.5425 67.4037 16.3848 65.6842L16.6011 63.361Z" fill="#9AD8F4"/>
<path d="M19.499 83.8555C22.7837 84.6476 30.5606 87.0758 33.2559 88.8696C32.8257 90.2097 33.0855 90.491 33.5127 91.8555C28.6787 91.9297 27.5293 88.4423 22.8086 90.6668C21.5918 88.3456 20.5938 86.2363 19.499 83.8555Z" fill="#50A9F2"/>
<path d="M65.1543 105.051C69.8794 103.626 80.977 105.876 87.105 105.829C96.9682 105.791 106.802 104.736 116.451 102.68C121.353 101.656 134.366 94.2916 136.485 94.4337C137.334 97.5202 134.512 100.265 132.754 102.8L132.266 102.95C131.207 103.393 128.604 104.568 127.554 104.585C124.336 102.228 121.451 103.57 118.096 104.766C107.574 107.644 75.2788 107.982 65.1543 105.051Z" fill="#6F89F2"/>
<path d="M25.7523 55.5332C27.0311 60.708 26.9212 69.7263 30.0765 74.3707C32.2074 72.553 30.2503 67.342 30.7904 64.9378C31.1746 66.1602 31.2054 66.0249 31.3153 67.2707C32.7425 72.51 33.9183 76.394 37.1918 80.8279C39.5545 85.9446 46.1253 90.4601 51.243 92.5201C47.5848 96.4925 33.8822 83.5868 31.4217 80.7298C29.8153 76.1635 27.7093 76.1244 25.6127 67.7396C25.0878 63.5073 25.2132 59.7371 25.7523 55.5332Z" fill="#D0C8DF"/>
<path d="M22.8086 90.6667C27.5293 88.4422 28.6787 91.9296 33.5127 91.8554C35.6743 92.7843 37.6499 93.8758 39.7197 94.9825L39.8359 95.4186L38.9678 95.8459C40.1289 96.1204 39.7041 95.781 40.3545 96.7616C37.4551 97.2593 34.229 95.842 30.4463 96.2112L30.2808 96.7846L27.5835 97.1967C25.5215 94.7988 24.543 93.3279 22.8086 90.6667Z" fill="#668FEB"/>
<path d="M30.2812 96.7847C32.0137 96.75 34.3848 96.4096 35.4507 97.8332C37.8467 101.034 40.021 99.8067 43.294 101.146C40.6089 101.417 38.3633 103.67 36.5381 105.644C33.312 103.249 30.2881 100.148 27.584 97.1969L30.2812 96.7847Z" fill="#6273F8"/>
<path d="M106.236 96.2758C107.77 95.5442 115.392 96.2377 116.661 97.2819C113.053 99.7926 79.2051 99.1865 72.71 99.0224C70.4883 98.8461 64.0493 98.7631 62.6426 97.7883L62.9038 96.9283C63.8872 96.3398 65.4761 96.0658 66.6128 96.1781C79.9033 97.4918 92.9746 96.3657 106.236 96.2758Z" fill="#9191B7"/>
<path d="M83.6485 100.183C85.6895 99.5954 99.2832 99.4235 100.47 100.183C100.211 101.602 99.9668 100.061 97.5351 102.792C94.5322 103.452 84.415 103.143 80.8359 103.108C77.3496 103.131 69.9585 102.72 66.4473 102.175C71.0781 101.679 79.9522 100.108 83.6485 100.183Z" fill="#77BAF4"/>
<path d="M141.075 52.3906C142.638 60.5958 140.304 72.9907 135.514 79.883C132.696 81.1616 127.042 86.0292 124.327 86.3921C108.932 88.4491 93.0381 87.1964 77.4961 87.5041C68.3818 87.4005 59.2217 87.7336 50.1206 87.173C48.8345 87.0939 47.876 86.2978 47.0469 86.1371C42.876 85.3284 40.4014 82.5051 37.1929 80.8271C33.9195 76.3931 32.7437 72.5091 31.3164 67.2699C34.3252 69.1848 35.8193 71.2232 37.3345 72.2293C39.04 73.0429 42.1968 74.6697 43.9732 74.8748C49.2627 75.4857 55.2114 73.6876 60.4522 73.8541C73.6563 74.2741 86.8418 73.9361 100.045 74.0284C105.23 74.0651 110.753 74.9886 115.953 74.9114C119.796 74.1627 126.598 74.1466 132.433 73.0952C134.84 70.6284 136.075 69.1599 138.185 66.424C138.141 64.366 140.123 61.3772 140.582 58.8616C141.041 56.3513 141.051 54.937 141.075 52.3906Z" fill="#4668EC"/>
<path d="M138.184 66.4238C137.862 68.8105 137.789 69.2852 136.866 71.4961C134.673 73.2371 130.318 77.3511 127.828 77.6847C113.77 79.5708 98.853 78.2498 84.688 78.3045C71.7026 78.3543 58.9526 78.7508 46.0356 78.0901C42.5195 77.8581 39.0732 75.1764 37.334 72.2291C39.0396 73.0427 42.1963 74.6695 43.9727 74.8746C49.2622 75.4856 55.211 73.6874 60.4517 73.8539C73.6558 74.2739 86.8413 73.936 100.044 74.0283C105.23 74.0649 110.752 74.9884 115.953 74.9112C119.795 74.1626 126.597 74.1464 132.432 73.095C134.839 70.6282 136.075 69.1597 138.184 66.4238Z" fill="#3A53E7"/>
<path d="M55.02 23.9533C63.5908 22.1346 99.0772 21.3092 107.036 22.7152C110.107 22.8715 114.224 23.0971 117.168 24.0011L120.156 25.3202C124.292 26.8234 127.52 28.8253 130.806 31.8034C127.383 31.0439 122.173 27.5702 119.033 29.804C116.104 31.7018 111.572 37.1393 108.311 38.0506C99.8584 40.4109 91.2744 42.1905 82.4854 42.4128C79.8682 42.4787 72.5449 42.0699 70.7417 43.4427C64.165 39.8039 61.4277 40.3313 54.5503 43.0056C53.7759 41.4155 52.3721 39.8537 51.3794 38.0638C48.0264 32.0178 46.8418 30.0882 40.4297 32.3279C43.0513 29.8894 44.9468 28.7491 47.9961 26.8947L49.5186 26.0777L50.1333 25.5141L55.02 23.9533Z" fill="#6273F8"/>
<path d="M55.021 23.9533C63.5918 22.1346 99.0781 21.3092 107.037 22.7152C110.108 22.8715 114.225 23.0971 117.169 24.0011C112.599 25.3119 84.166 29.8347 83.3213 30.413C74.3418 30.9863 62.8911 33.7564 54.4145 29.8924C53.1714 29.3258 50.6553 27.0618 49.5195 26.0777L50.1343 25.5141L55.021 23.9533Z" fill="#A9B7EA"/>
<path d="M55.0205 23.9533C63.5913 22.1346 99.0777 21.3092 107.037 22.7152C94.8589 23.3472 65.2129 28.8419 55.0205 23.9533Z" fill="#BEC7EA"/>
<path d="M49.5195 26.0773L50.1343 25.5137C51.1504 26.108 54.207 27.9165 55.188 28.0483C64.5757 29.3122 73.9194 27.7993 83.7314 28.4395C83.4873 29.2121 83.375 29.5935 83.3213 30.4125C74.3418 30.9859 62.8911 33.7559 54.4145 29.8919C53.1714 29.3254 50.6553 27.0613 49.5195 26.0773Z" fill="#9BB1F5"/>
<path d="M117.168 24L120.156 25.3191C117.212 25.0783 117.007 25.6829 114.448 26.5986C99.126 32.0757 82.1924 35.426 65.8203 34.1806C60.8384 33.8016 55.6192 36.3055 52.4688 31.4145C51.187 29.4961 50.0259 27.589 47.9961 26.8936L49.5186 26.0766C50.6543 27.0606 53.1704 29.3247 54.4136 29.8912C62.8901 33.7552 74.3408 30.9852 83.3203 30.4118C84.1651 29.8336 112.598 25.3108 117.168 24Z" fill="#8C95E8"/>
<path d="M97.1631 47.1072C102.895 41.0216 104.536 40.5249 112.715 40.9337L115.923 42.3021L116.88 42.3836C118.672 44.0876 120.117 45.3187 121.45 47.4358L123.013 50.3124L123.188 51.272L123.706 55.4544L123.926 56.7364C123.262 60.0007 122.012 64.1655 119.648 66.6289L119.419 67.2637L117.622 68.3592C115.435 69.5444 110.723 71.5194 108.257 70.7683C103.081 70.424 100.977 68.5511 97.5782 64.9723C95.9131 62.3004 95.4785 60.8109 95.0488 57.7908L95.3076 53.1229C95.6934 50.4359 95.7519 50.0227 96.9824 47.62L97.1631 47.1072Z" fill="url(#paint1_linear_391_3290)"/>
<path d="M123.014 50.3125L123.189 51.2722L123.707 55.4546L123.927 56.7365C123.263 60.0008 122.013 64.1657 119.649 66.629L119.42 67.2639L117.623 68.3593C114.601 64.6599 107.145 65.2699 103.561 61.3351L104.356 61.0928C108.604 57.349 118.814 54.1091 123.014 50.3125Z" fill="#6273F8"/>
<path d="M123.013 50.3125L123.188 51.2722C122.339 54.0134 121.977 54.7767 119.326 56.1012C115.176 58.1753 110.483 60.035 106.138 61.6525L104.355 61.0928C108.604 57.349 118.813 54.1091 123.013 50.3125Z" fill="#3689E5"/>
<path d="M123.707 55.4551L123.927 56.7371C123.263 60.0013 122.013 64.1662 119.649 66.6295C119.249 64.9017 116.598 62.6659 115.201 61.274C118.282 59.891 119.562 59.1823 121.637 56.2487C122.091 55.6109 122.701 55.6895 123.707 55.4551Z" fill="#627AF3"/>
<path d="M97.164 47.1072C102.896 41.0216 104.537 40.5249 112.716 40.9337L115.924 42.3021C116.529 43.6026 117.228 44.6731 117.145 46.0621C113.888 48.1498 110.948 49.2399 107.403 50.6923C103.932 52.6375 100.025 53.395 96.1143 53.8941C95.8701 53.6811 95.46 53.3666 95.3086 53.1229C95.6943 50.4359 95.7529 50.0227 96.9834 47.62L97.164 47.1072Z" fill="#9AD8F4"/>
<path d="M96.9834 47.6211C97.5107 49.7489 97.1494 49.8041 98.4824 50.9997C101.036 50.7833 101.095 49.2454 105.221 48.5319L107.403 50.6934C103.932 52.6386 100.025 53.3961 96.1143 53.8952C95.8701 53.6823 95.46 53.3678 95.3086 53.1241C95.6943 50.4371 95.7529 50.0239 96.9834 47.6211Z" fill="#77BAF4"/>
<path d="M105.221 48.5316C110.675 46.9688 109.547 45.2751 112.921 44.1035C114.801 44.1602 115.514 44.9372 117.145 46.0629C113.888 48.1507 110.948 49.2407 107.403 50.6931L105.221 48.5316Z" fill="#56B6DB"/>
<path d="M115.923 42.3027L116.88 42.3843C118.672 44.0882 120.117 45.3194 121.45 47.4365L120.732 47.7652C118.56 48.7761 116.372 50.336 113.755 51.7435C109.673 53.9411 103.608 54.8456 100.361 57.3939C98.75 58.6544 99.6533 58.8962 97.5586 59.3381C96.1621 58.7325 96.1865 58.7838 95.0488 57.7915L95.3076 53.1236C95.459 53.3673 95.8692 53.6818 96.1133 53.8947C100.024 53.3956 103.931 52.6381 107.402 50.693C110.947 49.2405 113.887 48.1505 117.144 46.0627C117.227 44.6738 116.528 43.6033 115.923 42.3027Z" fill="#50A9F2"/>
<path d="M108.257 70.7693L107.485 69.9171C104.687 69.1655 104.189 68.8666 101.758 67.4782C103.374 67.9587 106.812 69.2412 108.242 68.579C108.34 67.8117 108.428 67.6706 108.33 66.9224C105.669 66.3837 103.916 65.4129 102.007 63.4716C102.144 62.1022 102.105 62.5403 103.56 61.3359C107.144 65.2708 114.6 64.6608 117.622 68.3602C115.435 69.5455 110.723 71.5205 108.257 70.7693Z" fill="#668FEB"/>
<path d="M47.7148 56.8203C49.1255 58.8978 48.6001 58.7865 50.5542 59.6822C52.1753 59.5557 53.0849 59.4287 54.6797 59.1098C57.1304 59.3843 62.4668 59.9537 64.666 60.8508C69.5517 61.3314 72.1645 59.4473 76.251 60.173C75.2646 63.1262 74.6689 64.1513 72.7778 66.6864L71.207 67.8282C65.7593 71.3826 60.9287 71.9427 55.0908 68.8855L53.1587 67.9386L52.8442 67.4912C50.4165 65.3575 50.519 64.2157 48.8252 61.6308L48.4306 61.0359C48.1377 59.8082 47.918 58.1077 47.7148 56.8203Z" fill="#668FEB"/>
<path d="M47.7148 56.8203C49.1255 58.8978 48.6001 58.7865 50.5542 59.6822C52.1753 59.5557 53.0849 59.4287 54.6797 59.1098C57.1304 59.3843 62.4668 59.9537 64.666 60.8508C66.5854 61.4471 67.9448 61.6674 69.4165 63.009C67.2207 64.6919 53.54 62.4454 52.5044 65.8904L52.8442 67.4912C50.4165 65.3575 50.519 64.2157 48.8252 61.6308L48.4306 61.0359C48.1377 59.8082 47.918 58.1077 47.7148 56.8203Z" fill="#6273F8"/>
<path d="M55.0898 68.8873L55.2563 68.206C56.8828 67.197 65.8892 66.7585 68.272 66.4572C69.8984 66.252 70.3638 66.9201 71.2061 67.83C65.7583 71.3843 60.9277 71.9445 55.0898 68.8873Z" fill="#869EE2"/>
<path d="M54.5514 43.0045C61.4288 40.3302 64.1661 39.8027 70.7428 43.4416C71.1144 43.7888 73.5231 46.0891 73.8141 46.2444L75.2843 48.8347C75.714 50.1997 76.0216 50.9381 76.212 52.3637L75.8653 53.1099L75.5626 53.6403C74.0777 54.2297 69.5714 52.6283 67.5201 52.1092L64.8019 51.7498C61.5343 51.2927 53.7296 50.5752 51.6754 48.1578C51.1363 47.5234 51.5665 46.6409 51.7662 45.588L51.9859 45.3765C52.6383 44.6581 53.797 43.6848 54.5514 43.0045Z" fill="url(#paint2_linear_391_3290)"/>
<path d="M51.9859 45.377L52.858 47.4247L53.5616 47.4511C57.5651 47.6337 64.5187 49.2537 68.256 50.7349L68.6002 51.2428C66.8341 51.6501 66.6119 51.6809 64.8019 51.7502C61.5343 51.2931 53.7296 50.5757 51.6754 48.1582C51.1363 47.5238 51.5665 46.6413 51.7662 45.5884L51.9859 45.377Z" fill="#56B6DB"/>
<path d="M75.2837 48.8359C75.7134 50.2009 76.021 50.9394 76.2114 52.3649L75.8647 53.1112L75.562 53.6415C74.0772 54.231 69.5708 52.6296 67.5195 52.1105C69.2271 51.6065 71.2642 51.8463 73.3486 51.6099C74.9565 50.493 74.439 50.9296 75.2837 48.8359Z" fill="#77BAF4"/>
<path d="M51.7652 45.5879C51.5655 46.6408 51.1353 47.5233 51.6743 48.1577C53.7285 50.5752 61.5332 51.2926 64.8008 51.7497L67.5191 52.1091C69.5703 52.6283 74.0767 54.2296 75.5615 53.6402L75.8643 53.1098C75.918 53.9684 76.3184 57.2605 75.0244 57.0749C69.5957 56.2984 50.4893 54.6599 49.4316 48.672L50.1109 47.01L51.7652 45.5879Z" fill="#50A9F2"/>
<path d="M47.7148 56.8221C47.7646 55.3111 47.9785 53.908 48.1719 52.4121C48.3203 54.7216 47.9385 55.1157 49.2261 56.6189C50.6968 57.1806 51.6152 56.7713 53.1714 56.4104C54.6689 57.0184 54.7383 57.3598 54.6797 59.1116C53.0849 59.4305 52.1753 59.5575 50.5542 59.684C48.6001 58.7883 49.1255 58.8997 47.7148 56.8221Z" fill="#3689E5"/>
<path d="M40.4306 32.3272C46.8427 30.0875 48.0273 32.0171 51.3803 38.0631C52.373 39.853 53.7768 41.4148 54.5512 43.005C53.7968 43.6853 52.6381 44.6586 51.9858 45.377L51.766 45.5885L50.1118 47.0106L49.4325 48.6725C48.5351 50.373 48.517 50.4956 48.1718 52.411C47.9784 53.9069 47.7646 55.31 47.7148 56.821C47.9179 58.1084 48.1376 59.8089 48.4306 61.0366L48.8251 61.6315C50.519 64.2164 50.4164 65.3582 52.8441 67.4919L53.1586 67.9393L52.7758 68.8765C46.7089 71.7701 38.8832 69.9905 34.0116 65.4818C33.0951 62.3611 32.8613 60.5644 30.4052 58.5157C30.2997 47.4462 33.1 40.3678 40.4306 32.3272Z" fill="#1825DC"/>
<path d="M73.8135 46.2452C76.0064 44.4494 91.5728 45.1424 95.1909 45.5575C95.8257 45.6303 96.3579 45.5263 96.7534 46.0859C97.1245 46.61 96.9975 46.4053 97.1635 47.1081L96.9829 47.6209C95.7524 50.0237 95.6938 50.4368 95.3081 53.1239L95.0493 57.7917C95.479 60.8118 95.9136 62.3014 97.5786 64.9732C96.8413 66.998 97.2661 66.9155 95.855 67.6271C94.3462 67.6051 94.4487 67.5763 93.0962 66.8759C89.8833 65.216 75.1909 68.0573 72.7773 66.6874C74.6685 64.1523 75.2641 63.1272 76.2505 60.174C76.5093 56.9469 76.6948 55.575 76.2114 52.3645C76.021 50.9389 75.7134 50.2005 75.2837 48.8355L73.8135 46.2452Z" fill="#1825DC"/>
<path d="M154.883 42.5059L155.244 41.0916C157.192 40.5319 161.143 42.3619 163.584 42.8703L165.273 47.5459L166.514 52.1122C166.807 54.114 166.46 54.4994 165.635 56.4597C166.431 57.8139 167.109 58.862 167.686 60.3379C167.085 61.2843 166.582 61.9119 166.323 63.0078C166.519 64.0431 166.675 64.5462 166.685 65.6103C167.607 68.2368 168.223 68.6197 170.742 69.8079C170.147 71.0083 168.784 73.3637 168.784 74.5558L166.919 75.9843C165.293 78.7456 163.677 79.759 160.942 81.375C157.798 82.3498 156.86 82.5036 153.555 82.6457C151.729 86.5976 150.703 88.662 148.369 92.3082L146.606 90.6233C145.132 92.2549 144.36 93.2151 143.091 95.0098L141.978 96.0843C138.442 98.0944 136.133 100.888 132.754 102.8C134.512 100.266 137.334 97.5206 136.484 94.434C135.278 94.0307 134.531 94.3354 133.052 93.699C133.481 91.896 139.951 85.9061 141.768 84.208C142.324 81.8389 142.778 80.4422 144.189 78.4809L144.194 74.1647C146.27 68.4522 146.792 63.8996 146.939 57.8999L146.763 52.9273C147.363 51.0695 147.065 48.739 146.821 46.9135C146.553 44.8511 151.729 44.475 152.544 43.3C152.988 42.6622 153.618 42.4991 154.419 42.2564L154.883 42.5059Z" fill="#77BAF4"/>
<path d="M154.883 42.5059L155.244 41.0916C157.192 40.5319 161.143 42.3619 163.584 42.8703L165.273 47.5459L166.514 52.1122C166.807 54.114 166.46 54.4994 165.635 56.4597C166.431 57.8139 167.109 58.862 167.686 60.3379C167.085 61.2843 166.582 61.9119 166.323 63.0078C166.519 64.0431 166.675 64.5462 166.685 65.6103C165.625 65.3393 164.546 65.5669 163.433 65.6899L162.769 68.3115C159.404 67.3519 158.848 65.2904 155.903 64.6814L155.684 64.1945L155.894 61.99C155.63 58.2227 155.62 55.3106 155.669 51.5223C155.83 49.1038 155.503 47.1362 155.205 44.7534L154.883 42.5059Z" fill="#C2F2FA"/>
<path d="M155.669 51.5215C156.485 53.537 157.061 54.8214 157.559 56.9624C159.874 57.6315 161.7 57.4953 164.083 57.485L165.635 56.4589C166.431 57.8132 167.11 58.8612 167.686 60.3371C167.085 61.2836 166.582 61.9111 166.324 63.007C166.519 64.0424 166.675 64.5454 166.685 65.6096C165.625 65.3385 164.546 65.5661 163.433 65.6892L162.769 68.3107C159.405 67.3511 158.848 65.2897 155.904 64.6807L155.684 64.1938L155.894 61.9892C155.63 58.2219 155.621 55.3098 155.669 51.5215Z" fill="#77BAF4"/>
<path d="M157.559 56.9625C159.873 57.6316 161.699 57.4953 164.082 57.4851L165.635 56.459C166.431 57.8132 167.109 58.8613 167.686 60.3372C167.085 61.2836 166.582 61.9112 166.323 63.0071C165.615 62.7634 164.912 62.5114 164.209 62.2521C160.967 61.0448 159.033 60.1648 157.559 56.9625Z" fill="#94CAEC"/>
<path d="M155.894 61.9905L156.621 60.8223C159.619 61.2828 160.518 64.5769 163.433 65.6904L162.769 68.3119C159.404 67.3523 158.848 65.2909 155.903 64.6819L155.684 64.195L155.894 61.9905Z" fill="#8897F5"/>
<path d="M154.883 42.5059L155.244 41.0916C157.192 40.5319 161.143 42.3619 163.584 42.8703L165.273 47.5459C163.267 47.5435 161.348 47.3013 159.624 48.173L159.307 49.0667L160.151 50.7521C159.204 51.384 159.575 51.2263 158.438 51.4959C155.879 48.1286 157.007 47.8863 155.205 44.7534L154.883 42.5059Z" fill="#A3F0FC"/>
<path d="M155.903 64.6816C158.848 65.2906 159.404 67.3521 162.769 68.3117L163.433 65.6901C164.546 65.5671 165.625 65.3395 166.685 65.6105C167.607 68.237 168.223 68.6199 170.742 69.8081C170.146 71.0085 168.784 73.3639 168.784 74.556L166.919 75.9845C165.293 78.7458 163.677 79.7592 160.942 81.3752C157.798 82.35 156.86 82.5038 153.555 82.6459C154.458 79.2849 155.039 76.7278 155.674 73.3078C155.464 72.0912 155.825 66.2078 155.903 64.6816Z" fill="#668FEB"/>
<path d="M163.434 65.6893C164.547 65.5662 165.626 65.3386 166.685 65.6097C167.608 68.2361 168.224 68.619 170.743 69.8072C170.147 71.0076 168.785 73.3631 168.785 74.5552L166.92 75.9837C163.78 74.2177 166.471 72.4093 162.77 68.3109L163.434 65.6893Z" fill="#77BAF4"/>
<path d="M155.674 73.3066C160.195 73.859 156.128 79.2496 160.942 81.3741C157.798 82.3489 156.86 82.5027 153.555 82.6448C154.458 79.2838 155.039 76.7267 155.674 73.3066Z" fill="#4668EC"/>
<path d="M154.42 42.2559L154.884 42.5054L155.206 44.7529C155.504 47.1357 155.831 49.1033 155.67 51.5217C155.621 55.31 155.631 58.2222 155.895 61.9895L155.685 64.194C155.201 65.8623 155.226 69.8586 155.172 71.8102C152.052 64.8528 152.887 62.4554 146.939 57.8994L146.764 52.9268C147.364 51.069 147.066 48.7385 146.822 46.913C146.554 44.8506 151.729 44.4745 152.545 43.2995C152.989 42.6617 153.619 42.4986 154.42 42.2559Z" fill="#9AD8F4"/>
<path d="M141.768 84.2077C143.228 82.7181 144.336 81.1768 146.265 80.707L147.046 81.2355C147.793 85.5888 143.823 91.4873 143.091 95.0095L141.978 96.0839C138.442 98.0941 136.133 100.888 132.754 102.8C134.512 100.265 137.334 97.5202 136.484 94.4337C135.278 94.0303 134.531 94.335 133.052 93.6987C133.481 91.8956 139.951 85.9058 141.768 84.2077Z" fill="#668FEB"/>
<path d="M144.189 78.4804C145.42 76.2676 147.109 72.5247 148.818 71.0137L149.648 71.1177C151.885 75.894 150.474 80.9379 148.823 85.638C148.35 87 146.743 89.667 146.606 90.6228C145.132 92.2544 144.36 93.2146 143.091 95.0093C143.823 91.4872 147.793 85.5887 147.046 81.2353L146.265 80.7069C144.336 81.1767 143.228 82.718 141.768 84.2075C142.324 81.8384 142.778 80.4417 144.189 78.4804Z" fill="#50A9F2"/>
<path d="M10.4927 60.2492L15.7012 56.3398L16.5332 60.7708L16.6006 63.3617L16.3843 65.6848C16.542 67.4044 16.6689 69.3823 16.9307 71.0648L17.2734 73.3782L16.8496 73.7259C14.4966 73.4109 14.1382 75.1168 13.2266 75.2257C11.1787 75.4699 7.06102 75.3321 5.05223 75.2901L2.89258 71.7016C1.78515 69.058 1.28516 67.6002 0.501953 64.8404C3.03418 65.5076 4.40282 65.5896 6.96092 65.8128L8.94236 64.0381L9.79393 61.3833L10.4927 60.2492Z" fill="#8897F5"/>
<path d="M10.4927 60.2492L15.7012 56.3398L16.5332 60.7708L16.6006 63.3617L16.3843 65.6848L15.6909 63.9228C13.8081 65.8885 13.5967 66.6728 10.8897 67.3204C9.64942 66.6113 8.32373 66.2587 6.96094 65.8128L8.94237 64.0381L9.79395 61.3833L10.4927 60.2492Z" fill="#77BAF4"/>
<path d="M10.4937 60.2492L15.7022 56.3398L16.5342 60.7708C13.709 62.1466 11.9033 63.0227 8.94336 64.0381L9.79493 61.3833L10.4937 60.2492Z" fill="#94CAEC"/>
<path d="M0.501953 64.8398C3.03418 65.507 4.40282 65.589 6.96092 65.8122C8.32371 66.2581 9.64941 66.6107 10.8896 67.3198C8.67626 71.2922 7.23096 70.3687 2.89258 71.701C1.78515 69.0574 1.28516 67.5996 0.501953 64.8398Z" fill="#77BAF4"/>
<path d="M1.51942 49.4473C3.64833 52.4928 4.45009 51.4486 6.6498 54.0702L7.22206 54.7388L7.64833 55.2525L8.09611 55.3116C10.0751 57.0268 10.0517 57.6299 10.4931 60.2481L9.79433 61.3821L8.94276 64.0369L6.96132 65.8116C4.40322 65.5884 3.03458 65.5064 0.502355 64.8393C0.0170036 61.1443 -0.11924 59.8838 0.104882 56.2015C0.33535 53.492 0.805064 52.0239 1.51942 49.4473Z" fill="#A3F0FC"/>
<path d="M0.104882 56.2012C1.59414 60.1423 5.7665 59.3487 9.79433 61.3818L8.94276 64.0366L6.96132 65.8113C4.40322 65.5882 3.03458 65.5061 0.502355 64.839C0.0170036 61.144 -0.11924 59.8835 0.104882 56.2012Z" fill="#9AD8F4"/>
<path d="M154.268 34.9785C160.518 35.4977 165.146 39.0711 168.315 44.3157C168.379 47.8061 168.379 48.9953 166.514 52.1126L165.273 47.5463L163.584 42.8706C161.143 42.3622 157.192 40.5323 155.244 41.092L154.883 42.5063L154.419 42.2567C154.512 40.4869 154.316 36.8705 154.268 34.9785Z" fill="#8FF5FC"/>
<path d="M5.05273 75.2905C7.06152 75.3325 11.1792 75.4702 13.2271 75.226C14.1387 75.1171 14.4971 73.4112 16.8501 73.7262C17.3423 77.1024 18.3189 79.9706 18.7266 82.6317L18.2446 82.5814C11.3335 81.8113 9.18359 80.4306 5.05273 75.2905Z" fill="#2756CF"/>
<path d="M168.315 44.3145C170.073 47.4879 171.396 49.8414 171.807 53.5398C171.729 55.6657 172.256 58.1945 171.382 59.9389C169.541 60.8361 170.039 60.5401 167.686 60.337C167.109 58.8611 166.431 57.8131 165.635 56.4588C166.46 54.4985 166.807 54.1132 166.514 52.1113C168.379 48.994 168.379 47.8048 168.315 44.3145Z" fill="#A3F0FC"/>
<path d="M171.808 53.541C173.121 58.9497 172.418 64.5733 170.743 69.8082C168.224 68.62 167.608 68.2371 166.686 65.6107C166.676 64.5465 166.52 64.0435 166.324 63.0081C166.583 61.9122 167.086 61.2846 167.687 60.3382C170.04 60.5413 169.542 60.8373 171.383 59.9402C172.257 58.1957 171.73 55.6669 171.808 53.541Z" fill="#9AD8F4"/>
<path d="M101.353 118.687C107.652 118.459 119.947 114.885 125.699 112.408L127.047 116.274C127.887 119.826 128.809 123.357 129.825 126.863C130.826 134.172 132.12 144.567 124.483 149.054C118.629 153.727 106.783 154.683 100.24 150.829C95.4452 148.005 94.3808 144.379 93.1161 139.357C92.9257 133.127 93.1991 126.206 93.3309 119.923C96.0116 119.538 98.6825 119.126 101.353 118.687Z" fill="#4668EC"/>
<path d="M120.397 123C132.138 127.401 131.537 139.76 120.573 144.844C116.73 146.628 110.393 146.589 107.378 142.998C105.004 138.224 106.358 136.425 106.635 130.494C106.994 130.003 107.358 129.521 107.736 129.047C111.872 123.889 114.407 123.549 120.397 123Z" fill="#CDDFF8"/>
<path d="M110.957 134.098C110.64 126.752 117.769 125.674 122.354 131.18C132.281 138.378 109.991 151.165 110.957 134.098Z" fill="#DBF2FB"/>
<path d="M110.958 134.098C110.64 126.752 117.769 125.674 122.354 131.18C118.13 132.204 117.232 130.802 114.083 131.366C112.852 132.331 112.09 133.021 110.958 134.098Z" fill="#ECEEF5"/>
<path d="M120.259 117.995C121.846 117.387 125.269 116.69 127.046 116.273C127.886 119.826 128.809 123.357 129.824 126.862C130.825 134.172 132.119 144.567 124.482 149.053C114.312 149.976 98.5498 152.573 97.2168 137.855C105.254 137.633 102.5 142.308 106.284 143.727C107.432 143.273 107.1 143.648 107.686 142.821C110.601 146.191 116.728 146.227 120.444 144.554C131.045 139.783 131.626 128.186 120.273 124.056L120.259 117.995Z" fill="#BDD1F5"/>
<path d="M97.2168 137.854C99.5703 122.417 107.583 122.235 120.259 117.994L120.273 124.055C114.482 124.571 112.031 124.89 108.032 129.729C107.666 130.174 107.314 130.627 106.968 131.087C106.699 136.653 105.391 138.341 107.686 142.82C107.1 143.647 107.432 143.272 106.284 143.726C102.5 142.307 105.254 137.632 97.2168 137.854Z" fill="#BEC7EA"/>
<path d="M45.852 114.248C49.7407 114.289 49.6493 116.023 52.0907 115.976L51.789 115.045C53.6269 114.327 68.0575 118.764 71.3329 118.727C72.2792 118.717 77.9496 119.458 78.9555 119.64C78.8969 123.707 79.0483 131.007 79.4926 135.089C78.2524 146.492 76.4604 151.531 63.8481 153.15L61.8857 153.098C52.956 152.221 47.5893 151.142 42.6327 142.854C42.6049 142.321 41.768 138.876 41.599 138.134C41.4779 134.881 41.788 132.39 42.1191 129.145C43.1303 124.332 44.4828 119.696 45.8041 114.963L45.852 114.248Z" fill="#BEC7EA"/>
<path d="M45.8525 114.248C49.7412 114.289 49.6499 116.023 52.0913 115.976L51.7896 115.045C53.6274 114.327 68.0581 118.764 71.3335 118.727C72.2798 118.717 77.9502 119.458 78.9561 119.64C78.8975 123.707 79.0488 131.007 79.4932 135.089C78.2529 146.492 76.461 151.531 63.8487 153.15L61.8862 153.098C52.9565 152.221 47.5898 151.142 42.6333 142.854C42.6055 142.321 41.7686 138.876 41.5996 138.134C45.6748 145.501 57.9184 150.66 66.0991 148.082C75.4941 144.71 72.4819 140.343 71.8775 133.889C70.7139 121.471 60.8731 121.869 50.0259 116.758C49.0737 116.111 46.9795 115.407 45.8047 114.963L45.8525 114.248Z" fill="#627AF3"/>
<path d="M45.754 133.159C45.6402 125.984 45.0572 118.028 54.69 122.625C59.7618 124.321 59.7174 124.968 63.3341 128.192C64.2393 131.354 65.1778 134.919 66.2339 137.995L63.8956 142.549C54.0435 144.686 51.0279 140.495 45.754 133.159Z" fill="#CDDFF8"/>
<path d="M54.3126 129.793L55.7609 130.848C56.2867 132.614 56.9996 134.081 55.6593 135.527C53.7081 134.066 54.149 131.973 54.3126 129.793Z" fill="#DBF2FB"/>
<path d="M54.3125 129.794C54.4956 127.893 54.1514 128.086 55.207 127.146C55.9839 128.227 55.8901 129.405 55.7607 130.849L54.3125 129.794Z" fill="#ECEEF5"/>
<path d="M45.8042 114.963C46.979 115.407 49.0733 116.111 50.0254 116.758C51.044 119.257 52.7764 120.674 54.6904 122.626C45.0576 118.028 45.6406 125.985 45.7544 133.16C51.0283 140.495 54.0439 144.687 63.896 142.55L62.9912 143.665C64.2671 144.221 65.0703 143.957 66.5908 143.873C65.7954 144.678 65.7432 144.607 64.73 145.017C54.4565 149.184 44.9683 138.245 42.1191 129.145C43.1304 124.332 44.4829 119.696 45.8042 114.963Z" fill="#BDD1F5"/>
<path d="M63.3345 128.193C64.8682 128.605 64.9145 128.624 66.3071 129.388L66.7583 128.785L67.1616 128.785C70.0288 133.514 69.1748 139.272 66.5908 143.874C65.0703 143.958 64.2671 144.222 62.9912 143.666L63.896 142.551L66.2344 137.996C65.1782 134.92 64.2397 131.356 63.3345 128.193Z" fill="#BDD1F5"/>
<path d="M132.755 102.8C136.134 100.888 138.443 98.0941 141.979 96.084C140.538 97.8465 138.595 99.3991 138.033 101.509L138.697 103.276C135.362 106.039 132.198 108.502 128.365 110.565L127.828 109.319C128.331 108.025 131.056 104.798 132.267 102.95L132.755 102.8Z" fill="#8897F5"/>
<path d="M146.607 90.623L148.37 92.3079L145.943 95.9551C143.307 98.2651 141.49 100.922 138.697 103.276L138.033 101.509C138.595 99.3991 140.538 97.8466 141.978 96.084L143.092 95.0096C144.361 93.2148 145.133 92.2547 146.607 90.623Z" fill="#77BAF4"/>
<defs>
<linearGradient id="paint0_linear_391_3290" x1="77.8816" y1="86.407" x2="97.1949" y2="13.925" gradientUnits="userSpaceOnUse">
<stop stop-color="#DBD9E7"/>
<stop offset="1" stop-color="white"/>
</linearGradient>
<linearGradient id="paint1_linear_391_3290" x1="108.252" y1="50.4701" x2="110.567" y2="66.1042" gradientUnits="userSpaceOnUse">
<stop stop-color="#45A7F9"/>
<stop offset="1" stop-color="#6588FC"/>
</linearGradient>
<linearGradient id="paint2_linear_391_3290" x1="63.0997" y1="49.031" x2="64.6291" y2="41.6748" gradientUnits="userSpaceOnUse">
<stop stop-color="#64D0FC"/>
<stop offset="1" stop-color="#78E7FD"/>
</linearGradient>
</defs>
</svg>
