<svg width="48" height="48" viewBox="0 0 48 48" fill="none" xmlns="http://www.w3.org/2000/svg">
<g filter="url(#filter0_d_391_3285)">
<rect x="8" width="40" height="40" rx="10" fill="url(#paint0_linear_391_3285)"/>
</g>
<path d="M31.5305 28.6783C31.7071 28.7949 31.9088 28.868 32.1191 28.8919C32.3294 28.9157 32.5424 28.8896 32.7407 28.8156C32.939 28.7416 33.117 28.6218 33.2603 28.466C33.4035 28.3102 33.5079 28.1227 33.5651 27.919L38.5712 10.2294C38.7067 9.75238 38.6479 9.24107 38.4076 8.80724C38.1673 8.37342 37.765 8.05234 37.2887 7.91417C36.8595 7.79082 36.4003 7.82598 35.9949 8.01322L17.1405 16.7151C16.9218 16.8161 16.7341 16.9736 16.5967 17.1715C16.4594 17.3694 16.3774 17.6005 16.3593 17.8407C16.3412 18.0809 16.3876 18.3216 16.4938 18.5378C16.5999 18.754 16.7619 18.938 16.963 19.0706L20.8982 21.6655C20.9886 21.7272 21.0905 21.7704 21.1978 21.7924C21.3051 21.8144 21.4158 21.8148 21.5232 21.7936C21.6307 21.7724 21.7329 21.73 21.8238 21.669C21.9148 21.6079 21.9926 21.5293 22.0529 21.4378C22.1131 21.3463 22.1546 21.2438 22.1748 21.1361C22.195 21.0284 22.1936 20.9178 22.1706 20.8107C22.1477 20.7036 22.1036 20.6021 22.041 20.5122C21.9784 20.4223 21.8986 20.3458 21.8061 20.287L18.3208 17.9883L36.6862 9.51237C36.732 9.49101 36.7841 9.48698 36.8327 9.50102C36.8891 9.51865 36.9363 9.5577 36.9643 9.60977C36.9923 9.66185 36.9987 9.72282 36.9823 9.77959L32.0907 27.0709L28.5982 24.7669C28.3744 24.6192 28.102 24.5644 27.8385 24.6141C27.5751 24.6638 27.3413 24.8141 27.1867 25.0331L25.2759 27.7363V22.3124L32.5106 16.3509C32.596 16.2825 32.6669 16.1979 32.7193 16.1019C32.7717 16.0059 32.8045 15.9005 32.8158 15.7917C32.827 15.6829 32.8166 15.573 32.785 15.4683C32.7535 15.3636 32.7014 15.2662 32.6319 15.1818C32.5624 15.0974 32.4768 15.0277 32.3801 14.9766C32.2834 14.9255 32.1775 14.8942 32.0686 14.8844C31.9597 14.8746 31.8499 14.8866 31.7457 14.9196C31.6414 14.9526 31.5448 15.006 31.4613 15.0766L24.0017 21.2239C23.884 21.3206 23.7892 21.4422 23.7241 21.5799C23.659 21.7176 23.6252 21.8681 23.6251 22.0204V29.6864C23.6253 29.9054 23.6951 30.1187 23.8245 30.2954C23.954 30.4721 24.1363 30.603 24.3451 30.6692C24.5539 30.7354 24.7783 30.7334 24.9859 30.6636C25.1935 30.5937 25.3735 30.4596 25.4998 30.2807L28.1896 26.4745L31.5315 28.6794L31.5305 28.6783Z" fill="white"/>
<defs>
<filter id="filter0_d_391_3285" x="0" y="0" width="48" height="48" filterUnits="userSpaceOnUse" color-interpolation-filters="sRGB">
<feFlood flood-opacity="0" result="BackgroundImageFix"/>
<feColorMatrix in="SourceAlpha" type="matrix" values="0 0 0 0 0 0 0 0 0 0 0 0 0 0 0 0 0 0 127 0" result="hardAlpha"/>
<feOffset dx="-4" dy="4"/>
<feGaussianBlur stdDeviation="2"/>
<feComposite in2="hardAlpha" operator="out"/>
<feColorMatrix type="matrix" values="0 0 0 0 0.92549 0 0 0 0 0.933333 0 0 0 0 0.996078 0 0 0 1 0"/>
<feBlend mode="normal" in2="BackgroundImageFix" result="effect1_dropShadow_391_3285"/>
<feBlend mode="normal" in="SourceGraphic" in2="effect1_dropShadow_391_3285" result="shape"/>
</filter>
<linearGradient id="paint0_linear_391_3285" x1="28" y1="40" x2="28" y2="0" gradientUnits="userSpaceOnUse">
<stop stop-color="#DBC4A3"/>
<stop offset="0.365385" stop-color="#C4985B"/>
</linearGradient>
</defs>
</svg>
