<svg width="31" height="31" viewBox="0 0 31 31" fill="none" xmlns="http://www.w3.org/2000/svg">
<path d="M17.6853 3.08353C17.9465 2.57033 18.5331 2.31216 19.088 2.46607C21.2092 3.05443 23.1194 4.14628 24.6832 5.60325C25.074 5.96737 25.1801 6.54457 24.9442 7.02386C24.7815 7.35444 24.6895 7.72723 24.6895 8.12508C24.6895 9.50419 25.8046 10.618 27.175 10.618C27.1865 10.618 27.198 10.6179 27.2095 10.6178C27.7451 10.6101 28.2221 10.9552 28.3823 11.4664C28.7852 12.7516 29.002 14.118 29.002 15.5328C29.002 16.4665 28.9076 17.3795 28.7274 18.2621C28.6033 18.8701 28.0397 19.2858 27.4223 19.2251C27.3401 19.217 27.2575 19.2129 27.175 19.213C25.8046 19.213 24.6895 20.3268 24.6895 21.7059C24.6895 22.3197 24.9091 22.8787 25.2748 23.313C25.6737 23.7867 25.6509 24.4851 25.2219 24.9317C23.6252 26.5942 21.6072 27.8506 19.3375 28.5277C18.7051 28.7164 18.0382 28.364 17.8376 27.7354C17.5162 26.728 16.5748 26.0034 15.4697 26.0034C14.3647 26.0034 13.4232 26.728 13.1018 27.7354C12.9013 28.364 12.2343 28.7164 11.602 28.5277C9.3323 27.8506 7.31425 26.5942 5.71756 24.9317C5.28859 24.4851 5.26576 23.7867 5.66465 23.313C6.03035 22.8787 6.24995 22.3197 6.24995 21.7059C6.24995 20.3268 5.13486 19.213 3.7645 19.213C3.68055 19.213 3.59812 19.2171 3.5172 19.2251C2.89971 19.2858 2.3362 18.8701 2.21208 18.2621C2.03192 17.3795 1.9375 16.4665 1.9375 15.5328C1.9375 14.118 2.15426 12.7516 2.55714 11.4664C2.71734 10.9552 3.19436 10.6101 3.72996 10.6178C3.74143 10.6179 3.75297 10.618 3.7645 10.618C5.13486 10.618 6.24995 9.50419 6.24995 8.12508C6.24995 7.72723 6.15792 7.35444 5.99523 7.02386C5.7594 6.54457 5.86548 5.96737 6.25628 5.60325C7.82005 4.14628 9.73028 3.05443 11.8514 2.46607C12.4063 2.31216 12.9929 2.57033 13.2542 3.08353C13.6674 3.89504 14.5062 4.44492 15.4697 4.44492C16.4332 4.44492 17.2721 3.89504 17.6853 3.08353ZM22.2676 8.12508C22.2676 7.687 22.3251 7.26123 22.4332 6.85554C21.4913 6.09513 20.4238 5.48621 19.2673 5.06468C18.3687 6.16315 17.0023 6.8668 15.4697 6.8668C13.9372 6.8668 12.5708 6.16315 11.6721 5.06468C10.5157 5.48621 9.44816 6.09513 8.50623 6.85554C8.61641 7.26972 8.67208 7.6965 8.67183 8.12508C8.67183 10.5322 6.94282 12.5381 4.65745 12.9588C4.46267 13.784 4.35938 14.6457 4.35938 15.5328C4.35938 15.9742 4.38496 16.4092 4.4346 16.8365C6.82951 17.1639 8.67183 19.2211 8.67183 21.7059C8.67183 22.4979 8.4841 23.2475 8.15106 23.911C9.08436 24.7307 10.1551 25.3957 11.3233 25.867C12.1927 24.4945 13.7231 23.5815 15.4697 23.5815C17.2164 23.5815 18.7468 24.4945 19.6162 25.867C20.7844 25.3957 21.8551 24.7307 22.7884 23.911C22.4554 23.2475 22.2676 22.4979 22.2676 21.7059C22.2676 19.2211 24.1099 17.1639 26.5048 16.8365C26.5551 16.4037 26.5802 15.9684 26.5801 15.5328C26.5801 14.6456 26.4768 13.784 26.282 12.9588C23.9966 12.5381 22.2676 10.5322 22.2676 8.12508ZM15.4697 10.172C18.4124 10.172 20.7979 12.5575 20.7979 15.5001C20.7979 18.4428 18.4124 20.8283 15.4697 20.8283C12.5271 20.8283 10.1416 18.4428 10.1416 15.5001C10.1416 12.5575 12.5271 10.172 15.4697 10.172ZM18.6182 15.5001C18.6182 13.7613 17.2086 12.3517 15.4697 12.3517C13.7309 12.3517 12.3213 13.7613 12.3213 15.5001C12.3213 17.239 13.7309 18.6486 15.4697 18.6486C17.2086 18.6486 18.6182 17.239 18.6182 15.5001Z" fill="#BD9556"/>
</svg>
