<svg width="28" height="28" viewBox="0 0 28 28" fill="none" xmlns="http://www.w3.org/2000/svg">
<path d="M22.6203 12.3347C22.2663 12.3186 21.9661 12.5926 21.95 12.9467C21.9474 13.0031 21.9385 13.1204 21.9197 13.2897C21.8877 13.5781 21.8388 13.901 21.7696 14.2496C21.572 15.2453 21.2529 16.2401 20.7875 17.1626C19.484 19.7469 17.3169 21.2734 14.0003 21.2838C10.6838 21.2734 8.51662 19.7469 7.21313 17.1626C6.74777 16.2401 6.42857 15.2453 6.23096 14.2496C6.1618 13.901 6.11291 13.5781 6.0809 13.2897C6.0621 13.1204 6.05317 13.0031 6.0506 12.9467C6.03451 12.5926 5.73439 12.3186 5.38029 12.3347C5.02613 12.3507 4.75211 12.6509 4.76826 13.005C4.7823 13.3151 4.8402 13.8361 4.97187 14.4995C5.19063 15.6019 5.54462 16.7052 6.06702 17.7408C7.48454 20.5511 9.86704 22.3106 13.3256 22.5264V24.867H7.96243C7.60791 24.867 7.32057 25.1544 7.32057 25.5089C7.32057 25.8634 7.60791 26.1507 7.96243 26.1507H20.0445C20.3989 26.1507 20.6863 25.8634 20.6863 25.5089C20.6863 25.1544 20.3989 24.867 20.0445 24.867H14.6093V22.5304C18.1036 22.3332 20.5071 20.5689 21.9336 17.7408C22.456 16.7052 22.81 15.6019 23.0288 14.4995C23.1605 13.8361 23.2183 13.3151 23.2324 13.005C23.2484 12.6509 22.9745 12.3507 22.6203 12.3347Z" fill="#020202"/>
<path d="M13.9501 19.1457C16.8641 19.1457 19.2371 16.7803 19.2371 13.8623V7.13299C19.2371 4.21834 16.87 1.84961 13.9501 1.84961C11.0361 1.84961 8.66309 4.21507 8.66309 7.13299V13.8623C8.66309 16.777 11.0302 19.1457 13.9501 19.1457ZM9.9468 7.13299C9.9468 4.92652 11.7426 3.13332 13.9501 3.13332C16.16 3.13332 17.9535 4.92626 17.9535 7.13299V13.8623C17.9535 16.0688 16.1577 17.8619 13.9501 17.8619C11.7402 17.8619 9.9468 16.0691 9.9468 13.8623V7.13299Z" fill="#020202"/>
</svg>
