<svg width="464" height="304" viewBox="0 0 464 304" fill="none" xmlns="http://www.w3.org/2000/svg">
<circle cx="366.84" cy="96.559" r="84.6555" transform="rotate(8.75871 366.84 96.559)" fill="url(#paint0_linear_390_10)"/>
<mask id="path-2-inside-1_390_10" fill="white">
<path d="M231.882 11.9043C290.922 11.9043 339.921 54.8965 349.279 111.282H367.454C420.645 111.282 463.765 154.403 463.765 207.594C463.764 260.785 420.645 303.904 367.454 303.904H96.3105C43.1198 303.904 0.000206189 260.785 0 207.594C0 154.403 43.1196 111.282 96.3105 111.282H114.485C123.844 54.8966 172.842 11.9045 231.882 11.9043Z"/>
</mask>
<path d="M231.882 11.9043C290.922 11.9043 339.921 54.8965 349.279 111.282H367.454C420.645 111.282 463.765 154.403 463.765 207.594C463.764 260.785 420.645 303.904 367.454 303.904H96.3105C43.1198 303.904 0.000206189 260.785 0 207.594C0 154.403 43.1196 111.282 96.3105 111.282H114.485C123.844 54.8966 172.842 11.9045 231.882 11.9043Z" fill="url(#paint1_linear_390_10)" fill-opacity="0.7"/>
<path d="M231.882 11.9043V10.9043V10.9043V11.9043ZM349.279 111.282L348.293 111.446L348.432 112.282H349.279V111.282ZM367.454 111.282V110.282V110.282V111.282ZM463.765 207.594H464.765V207.594H463.765ZM367.454 303.904V304.904V304.904V303.904ZM96.3105 303.904V304.904V304.904V303.904ZM0 207.594H-1V207.594H0ZM96.3105 111.282V110.282V110.282V111.282ZM114.485 111.282V112.282H115.333L115.472 111.446L114.485 111.282ZM231.882 11.9043V12.9043C290.425 12.9043 339.013 55.5348 348.293 111.446L349.279 111.282L350.266 111.118C340.828 54.2582 291.419 10.9043 231.882 10.9043V11.9043ZM349.279 111.282V112.282H367.454V111.282V110.282H349.279V111.282ZM367.454 111.282V112.282C420.093 112.282 462.765 154.955 462.765 207.594H463.765H464.765C464.765 153.851 421.197 110.282 367.454 110.282V111.282ZM463.765 207.594H462.765C462.764 260.232 420.093 302.904 367.454 302.904V303.904V304.904C421.197 304.904 464.764 261.337 464.765 207.594H463.765ZM367.454 303.904V302.904H96.3105V303.904V304.904H367.454V303.904ZM96.3105 303.904V302.904C43.672 302.904 1.0002 260.232 1 207.594H0H-1C-0.999792 261.337 42.5675 304.904 96.3105 304.904V303.904ZM0 207.594H1C1 154.955 43.6719 112.282 96.3105 112.282V111.282V110.282C42.5673 110.282 -1 153.851 -1 207.594H0ZM96.3105 111.282V112.282H114.485V111.282V110.282H96.3105V111.282ZM114.485 111.282L115.472 111.446C124.752 55.5349 173.339 12.9045 231.882 12.9043V11.9043V10.9043C172.345 10.9045 122.936 54.2583 113.499 111.118L114.485 111.282Z" fill="white" mask="url(#path-2-inside-1_390_10)"/>
<defs>
<linearGradient id="paint0_linear_390_10" x1="375.219" y1="181.215" x2="358.461" y2="11.9036" gradientUnits="userSpaceOnUse">
<stop stop-color="#EE712E"/>
<stop offset="0.4" stop-color="#F6C252"/>
<stop offset="1" stop-color="#FBE14C"/>
</linearGradient>
<linearGradient id="paint1_linear_390_10" x1="231.882" y1="11.9043" x2="231.882" y2="303.904" gradientUnits="userSpaceOnUse">
<stop offset="0.4" stop-color="white"/>
<stop offset="1" stop-color="#CCDBED"/>
</linearGradient>
</defs>
</svg>
