<svg width="63" height="63" viewBox="0 0 63 63" fill="none" xmlns="http://www.w3.org/2000/svg">
<g clip-path="url(#clip0_380_13)">
<path d="M12.2852 31.6577C12.2852 34.2017 12.7862 36.7208 13.7598 39.0712C14.7334 41.4216 16.1603 43.5572 17.9592 45.3561C19.7581 47.155 21.8937 48.582 24.2441 49.5555C26.5945 50.5291 29.1136 51.0302 31.6577 51.0302C34.2017 51.0302 36.7208 50.5291 39.0712 49.5555C41.4216 48.582 43.5572 47.155 45.3561 45.3561C47.155 43.5572 48.582 41.4216 49.5555 39.0712C50.5291 36.7208 51.0302 34.2017 51.0302 31.6577C51.0302 29.1136 50.5291 26.5945 49.5555 24.2441C48.582 21.8937 47.155 19.7581 45.3561 17.9592C43.5572 16.1603 41.4216 14.7334 39.0712 13.7598C36.7208 12.7862 34.2017 12.2852 31.6577 12.2852C29.1136 12.2852 26.5945 12.7862 24.2441 13.7598C21.8937 14.7334 19.7581 16.1603 17.9592 17.9592C16.1603 19.7581 14.7334 21.8937 13.7598 24.2441C12.7862 26.5945 12.2852 29.1136 12.2852 31.6577Z" fill="#FFE97C"/>
<path d="M31.7576 10.4987L32.0279 10.504L32.2981 10.5118L32.5658 10.5223L32.8334 10.5381L33.1011 10.5564L33.3661 10.5801L33.6311 10.6037L33.8961 10.6325L34.1585 10.664L34.4209 10.7008L34.6833 10.7375L34.943 10.7795L35.2002 10.8241L35.4599 10.8713L35.7145 10.9238L35.9716 10.9763L36.2261 11.034L36.478 11.0943L36.7299 11.1573L36.9818 11.2229L37.2311 11.2938L37.4804 11.3646L37.727 11.4407L37.9736 11.5194L38.2177 11.6008L38.4591 11.6847L38.7005 11.7713L38.9419 11.8605L39.1806 11.9524L39.4194 12.0494L39.6556 12.1465L39.8891 12.2489L40.1226 12.3512L40.3535 12.4588L40.5844 12.5664L40.8127 12.6792L41.041 12.7946L41.2666 12.9101L41.4897 13.0308L41.7127 13.1541L41.9331 13.2801L42.1509 13.406L42.3687 13.5372L42.5839 13.6684L42.799 13.8048L43.0089 13.9439L43.2215 14.083L43.4287 14.2247L43.636 14.3716L43.8407 14.5185L44.0427 14.6681L44.2448 14.8203L44.4442 14.9751L44.641 15.1325L44.8378 15.2926L45.0293 15.4527L45.2209 15.618L45.4098 15.7833L45.5987 15.9512L45.785 16.1218L45.9661 16.2949L46.1471 16.4707L46.3282 16.6465L46.504 16.8276L46.6798 17.0086L46.8529 17.1897L47.0235 17.376L47.1914 17.5649L47.3567 17.7538L47.522 17.9454L47.6821 18.1369L47.8422 18.3337L47.9996 18.5305L48.1544 18.7299L48.3066 18.932L48.4562 19.134L48.6031 19.3387L48.75 19.5459L48.8917 19.7532L49.0308 19.9658L49.1699 20.1757L49.3063 20.3908L49.4375 20.606L49.5687 20.8238L49.6946 21.0416L49.8206 21.262L49.9439 21.485L50.0646 21.708L50.1801 21.9337L50.2955 22.162L50.4083 22.3903L50.5159 22.6212L50.6235 22.8521L50.7258 23.0856L50.8282 23.3191L50.9253 23.5553L51.0223 23.7941L51.1142 24.0328L51.2034 24.2742L51.29 24.5156L51.3739 24.757L51.4553 25.0011L51.534 25.2477L51.6101 25.4943L51.6809 25.7436L51.7518 25.9929L51.8174 26.2448L51.8804 26.4967L51.9407 26.7486L51.9984 27.0031L52.0509 27.2602L52.1034 27.5148L52.1506 27.7745L52.1952 28.0317L52.2372 28.2914L52.2739 28.5538L52.3107 28.8162L52.3422 29.0786L52.371 29.3436L52.3946 29.6086L52.4183 29.8736L52.4366 30.1413L52.4524 30.4089L52.4629 30.6766L52.4707 30.9468L52.476 31.2171L52.4786 31.4873L52.476 31.7576L52.4707 32.0279L52.4629 32.2981L52.4524 32.5658L52.4366 32.8334L52.4183 33.1011L52.3946 33.3661L52.371 33.6311L52.3422 33.8961L52.3107 34.1585L52.2739 34.4209L52.2372 34.6833L52.1952 34.943L52.1506 35.2002L52.1034 35.4599L52.0509 35.7145L51.9984 35.9716L51.9407 36.2261L51.8804 36.478L51.8174 36.7299L51.7518 36.9818L51.6809 37.2311L51.6101 37.4804L51.534 37.727L51.4553 37.9736L51.3739 38.2177L51.29 38.4591L51.2034 38.7005L51.1142 38.9419L51.0223 39.1806L50.9253 39.4194L50.8282 39.6556L50.7258 39.8891L50.6235 40.1226L50.5159 40.3535L50.4083 40.5844L50.2955 40.8127L50.1801 41.041L50.0646 41.2666L49.9439 41.4897L49.8206 41.7127L49.6946 41.9331L49.5687 42.1509L49.4375 42.3687L49.3063 42.5839L49.1699 42.799L49.0308 43.0089L48.8917 43.2215L48.75 43.4287L48.6031 43.636L48.4562 43.8407L48.3066 44.0427L48.1544 44.2448L47.9996 44.4442L47.8422 44.641L47.6821 44.8378L47.522 45.0293L47.3567 45.2209L47.1914 45.4098L47.0235 45.5987L46.8529 45.785L46.6798 45.9661L46.504 46.1471L46.3282 46.3282L46.1471 46.504L45.9661 46.6798L45.785 46.8529L45.5987 47.0235L45.4098 47.1914L45.2209 47.3567L45.0293 47.522L44.8378 47.6821L44.641 47.8422L44.4442 47.9996L44.2448 48.1544L44.0427 48.3066L43.8407 48.4562L43.636 48.6031L43.4287 48.75L43.2215 48.8917L43.0089 49.0308L42.799 49.1699L42.5839 49.3063L42.3687 49.4375L42.1509 49.5687L41.9331 49.6946L41.7127 49.8206L41.4897 49.9439L41.2666 50.0646L41.041 50.1801L40.8127 50.2955L40.5844 50.4083L40.3535 50.5159L40.1226 50.6235L39.8891 50.7258L39.6556 50.8282L39.4194 50.9253L39.1806 51.0223L38.9419 51.1142L38.7005 51.2034L38.4591 51.29L38.2177 51.3739L37.9736 51.4553L37.727 51.534L37.4804 51.6101L37.2311 51.6809L36.9818 51.7518L36.7299 51.8174L36.478 51.8804L36.2261 51.9407L35.9716 51.9984L35.7145 52.0509L35.4599 52.1034L35.2002 52.1506L34.943 52.1952L34.6833 52.2372L34.4209 52.2739L34.1585 52.3107L33.8961 52.3422L33.6311 52.371L33.3661 52.3946L33.1011 52.4183L32.8334 52.4366L32.5658 52.4524L32.2981 52.4629L32.0279 52.4707L31.7576 52.476L31.4873 52.4786L31.2171 52.476L30.9468 52.4707L30.6766 52.4629L30.4089 52.4524L30.1413 52.4366L29.8736 52.4183L29.6086 52.3946L29.3436 52.371L29.0786 52.3422L28.8162 52.3107L28.5538 52.2739L28.2914 52.2372L28.0317 52.1952L27.7745 52.1506L27.5148 52.1034L27.2602 52.0509L27.0031 51.9984L26.7486 51.9407L26.4967 51.8804L26.2448 51.8174L25.9929 51.7518L25.7436 51.6809L25.4943 51.6101L25.2477 51.534L25.0011 51.4553L24.757 51.3739L24.5156 51.29L24.2742 51.2034L24.0328 51.1142L23.7941 51.0223L23.5553 50.9253L23.3191 50.8282L23.0856 50.7258L22.8521 50.6235L22.6212 50.5159L22.3903 50.4083L22.162 50.2955L21.9337 50.1801L21.708 50.0646L21.485 49.9439L21.262 49.8206L21.0416 49.6946L20.8238 49.5687L20.606 49.4375L20.3908 49.3063L20.1757 49.1699L19.9658 49.0308L19.7532 48.8917L19.5459 48.75L19.3387 48.6031L19.134 48.4562L18.932 48.3066L18.7299 48.1544L18.5305 47.9996L18.3337 47.8422L18.1369 47.6821L17.9454 47.522L17.7538 47.3567L17.5649 47.1914L17.376 47.0235L17.1897 46.8529L17.0086 46.6798L16.8276 46.504L16.6465 46.3282L16.4707 46.1471L16.2949 45.9661L16.1218 45.785L15.9512 45.5987L15.7833 45.4098L15.618 45.2209L15.4527 45.0293L15.2926 44.8378L15.1325 44.641L14.9751 44.4442L14.8203 44.2448L14.6681 44.0427L14.5185 43.8407L14.3716 43.636L14.2247 43.4287L14.083 43.2215L13.9439 43.0089L13.8048 42.799L13.6684 42.5839L13.5372 42.3687L13.406 42.1509L13.2801 41.9331L13.1541 41.7127L13.0308 41.4897L12.9101 41.2666L12.7946 41.041L12.6792 40.8127L12.5664 40.5844L12.4588 40.3535L12.3512 40.1226L12.2489 39.8891L12.1465 39.6556L12.0494 39.4194L11.9524 39.1806L11.8605 38.9419L11.7713 38.7005L11.6847 38.4591L11.6008 38.2177L11.5194 37.9736L11.4407 37.727L11.3646 37.4804L11.2938 37.2311L11.2229 36.9818L11.1573 36.7299L11.0943 36.478L11.034 36.2261L10.9763 35.9716L10.9238 35.7145L10.8713 35.4599L10.8241 35.2002L10.7795 34.943L10.7375 34.6833L10.7008 34.4209L10.664 34.1585L10.6325 33.8961L10.6037 33.6311L10.5801 33.3661L10.5564 33.1011L10.5381 32.8334L10.5223 32.5658L10.5118 32.2981L10.504 32.0279L10.4987 31.7576L10.4961 31.4873L10.4987 31.2171L10.504 30.9468L10.5118 30.6766L10.5223 30.4089L10.5381 30.1413L10.5564 29.8736L10.5801 29.6086L10.6037 29.3436L10.6325 29.0786L10.664 28.8162L10.7008 28.5538L10.7375 28.2914L10.7795 28.0317L10.8241 27.7745L10.8713 27.5148L10.9238 27.2602L10.9763 27.0031L11.034 26.7486L11.0943 26.4967L11.1573 26.2448L11.2229 25.9929L11.2938 25.7436L11.3646 25.4943L11.4407 25.2477L11.5194 25.0011L11.6008 24.757L11.6847 24.5156L11.7713 24.2742L11.8605 24.0328L11.9524 23.7941L12.0494 23.5553L12.1465 23.3191L12.2489 23.0856L12.3512 22.8521L12.4588 22.6212L12.5664 22.3903L12.6792 22.162L12.7946 21.9337L12.9101 21.708L13.0308 21.485L13.1541 21.262L13.2801 21.0416L13.406 20.8238L13.5372 20.606L13.6684 20.3908L13.8048 20.1757L13.9439 19.9658L14.083 19.7532L14.2247 19.5459L14.3716 19.3387L14.5185 19.134L14.6681 18.932L14.8203 18.7299L14.9751 18.5305L15.1325 18.3337L15.2926 18.1369L15.4527 17.9454L15.618 17.7538L15.7833 17.5649L15.9512 17.376L16.1218 17.1897L16.2949 17.0086L16.4707 16.8276L16.6465 16.6465L16.8276 16.4707L17.0086 16.2949L17.1897 16.1218L17.376 15.9512L17.5649 15.7833L17.7538 15.618L17.9454 15.4527L18.1369 15.2926L18.3337 15.1325L18.5305 14.9751L18.7299 14.8203L18.932 14.6681L19.134 14.5185L19.3387 14.3716L19.5459 14.2247L19.7532 14.083L19.9658 13.9439L20.1757 13.8048L20.3908 13.6684L20.606 13.5372L20.8238 13.406L21.0416 13.2801L21.262 13.1541L21.485 13.0308L21.708 12.9101L21.9337 12.7946L22.162 12.6792L22.3903 12.5664L22.6212 12.4588L22.8521 12.3512L23.0856 12.2489L23.3191 12.1465L23.5553 12.0494L23.7941 11.9524L24.0328 11.8605L24.2742 11.7713L24.5156 11.6847L24.757 11.6008L25.0011 11.5194L25.2477 11.4407L25.4943 11.3646L25.7436 11.2938L25.9929 11.2229L26.2448 11.1573L26.4967 11.0943L26.7486 11.034L27.0031 10.9763L27.2602 10.9238L27.5148 10.8713L27.7745 10.8241L28.0317 10.7795L28.2914 10.7375L28.5538 10.7008L28.8162 10.664L29.0786 10.6325L29.3436 10.6037L29.6086 10.5801L29.8736 10.5564L30.1413 10.5381L30.4089 10.5223L30.6766 10.5118L30.9468 10.504L31.2171 10.4987L31.4873 10.4961L31.7576 10.4987ZM31.2486 13.1226L31.0124 13.1252L30.7763 13.1331L30.5401 13.1436L30.3066 13.1567L30.0731 13.1725L29.8395 13.1935L29.6086 13.2145L29.3777 13.2407L29.1468 13.2669L28.9185 13.2984L28.6903 13.3325L28.462 13.3693L28.2363 13.406L28.0107 13.448L27.785 13.4926L27.562 13.5398L27.339 13.5897L27.1185 13.6422L26.8981 13.6973L26.6804 13.7576L26.4599 13.818L26.2448 13.8809L26.027 13.9465L25.8145 14.0148L25.5993 14.0856L25.3868 14.1591L25.1769 14.2352L24.9669 14.3139L24.757 14.3926L24.5497 14.4766L24.3425 14.5631L24.1378 14.6524L23.9331 14.7416L23.7311 14.836L23.529 14.9305L23.3296 15.0276L23.1302 15.1299L22.9334 15.2322L22.7392 15.3372L22.5424 15.4448L22.3509 15.5524L22.1594 15.6652L21.9678 15.778L21.7815 15.8961L21.5926 16.0142L21.4089 16.1349L21.2226 16.2582L21.0416 16.3815L20.8605 16.5101L20.6795 16.6387L20.5037 16.7699L20.3279 16.9037L20.1521 17.0375L19.9789 17.1766L19.8083 17.3156L19.6404 17.4573L19.4725 17.6016L19.3046 17.7459L19.1419 17.8929L18.9792 18.0425L18.8191 18.1946L18.6591 18.3468L18.5016 18.5016L18.3468 18.6591L18.1946 18.8191L18.0425 18.9792L17.8929 19.1419L17.7459 19.3046L17.6016 19.4725L17.4573 19.6404L17.3156 19.8083L17.1766 19.9789L17.0375 20.1521L16.9037 20.3279L16.7699 20.5037L16.6387 20.6795L16.5101 20.8605L16.3815 21.0416L16.2582 21.2226L16.1349 21.4089L16.0142 21.5926L15.8961 21.7815L15.778 21.9678L15.6652 22.1594L15.5524 22.3509L15.4448 22.5424L15.3372 22.7392L15.2322 22.9334L15.1299 23.1302L15.0276 23.3296L14.9305 23.529L14.836 23.7311L14.7416 23.9331L14.6524 24.1378L14.5631 24.3425L14.4766 24.5497L14.3926 24.757L14.3139 24.9669L14.2352 25.1769L14.1591 25.3868L14.0856 25.5993L14.0148 25.8145L13.9465 26.027L13.8809 26.2448L13.818 26.4599L13.7576 26.6804L13.6973 26.8981L13.6422 27.1185L13.5897 27.339L13.5398 27.562L13.4926 27.785L13.448 28.0107L13.406 28.2363L13.3693 28.462L13.3325 28.6903L13.2984 28.9185L13.2669 29.1468L13.2407 29.3777L13.2145 29.6086L13.1935 29.8395L13.1725 30.0731L13.1567 30.3066L13.1436 30.5401L13.1331 30.7763L13.1252 31.0124L13.1226 31.2486L13.12 31.4873L13.1226 31.7261L13.1252 31.9623L13.1331 32.1984L13.1436 32.4346L13.1567 32.6681L13.1725 32.9016L13.1935 33.1352L13.2145 33.3661L13.2407 33.597L13.2669 33.8279L13.2984 34.0562L13.3325 34.2844L13.3693 34.5127L13.406 34.7384L13.448 34.964L13.4926 35.1897L13.5398 35.4127L13.5897 35.6357L13.6422 35.8562L13.6973 36.0766L13.7576 36.2943L13.818 36.5148L13.8809 36.7299L13.9465 36.9477L14.0148 37.1602L14.0856 37.3754L14.1591 37.5879L14.2352 37.7978L14.3139 38.0078L14.3926 38.2177L14.4766 38.425L14.5631 38.6322L14.6524 38.8369L14.7416 39.0416L14.836 39.2436L14.9305 39.4457L15.0276 39.6451L15.1299 39.8445L15.2322 40.0413L15.3372 40.2355L15.4448 40.4322L15.5524 40.6238L15.6652 40.8153L15.778 41.0069L15.8961 41.1932L16.0142 41.3821L16.1349 41.5658L16.2582 41.7521L16.3815 41.9331L16.5101 42.1142L16.6387 42.2952L16.7699 42.471L16.9037 42.6468L17.0375 42.8226L17.1766 42.9958L17.3156 43.1664L17.4573 43.3343L17.6016 43.5022L17.7459 43.6702L17.8929 43.8328L18.0425 43.9955L18.1946 44.1556L18.3468 44.3156L18.5016 44.4731L18.6591 44.6279L18.8191 44.7801L18.9792 44.9322L19.1419 45.0818L19.3046 45.2287L19.4725 45.3731L19.6404 45.5174L19.8083 45.6591L19.9789 45.7981L20.1521 45.9372L20.3279 46.071L20.5037 46.2048L20.6795 46.336L20.8605 46.4646L21.0416 46.5932L21.2226 46.7165L21.4089 46.8398L21.5926 46.9605L21.7815 47.0786L21.9678 47.1967L22.1594 47.3095L22.3509 47.4223L22.5424 47.5299L22.7392 47.6375L22.9334 47.7425L23.1302 47.8448L23.3296 47.9471L23.529 48.0442L23.7311 48.1387L23.9331 48.2331L24.1378 48.3223L24.3425 48.4115L24.5497 48.4981L24.757 48.5821L24.9669 48.6608L25.1769 48.7395L25.3868 48.8156L25.5993 48.8891L25.8145 48.9599L26.027 49.0282L26.2448 49.0938L26.4599 49.1567L26.6804 49.2171L26.8981 49.2774L27.1185 49.3325L27.339 49.385L27.562 49.4349L27.785 49.4821L28.0107 49.5267L28.2363 49.5687L28.462 49.6054L28.6903 49.6422L28.9185 49.6763L29.1468 49.7078L29.3777 49.734L29.6086 49.7602L29.8395 49.7812L30.0731 49.8022L30.3066 49.818L30.5401 49.8311L30.7763 49.8416L31.0124 49.8494L31.2486 49.8521L31.4873 49.8547L31.7261 49.8521L31.9623 49.8494L32.1984 49.8416L32.4346 49.8311L32.6681 49.818L32.9016 49.8022L33.1352 49.7812L33.3661 49.7602L33.597 49.734L33.8279 49.7078L34.0562 49.6763L34.2844 49.6422L34.5127 49.6054L34.7384 49.5687L34.964 49.5267L35.1897 49.4821L35.4127 49.4349L35.6357 49.385L35.8562 49.3325L36.0766 49.2774L36.2943 49.2171L36.5148 49.1567L36.7299 49.0938L36.9477 49.0282L37.1602 48.9599L37.3754 48.8891L37.5879 48.8156L37.7978 48.7395L38.0078 48.6608L38.2177 48.5821L38.425 48.4981L38.6322 48.4115L38.8369 48.3223L39.0416 48.2331L39.2436 48.1387L39.4457 48.0442L39.6451 47.9471L39.8445 47.8448L40.0413 47.7425L40.2355 47.6375L40.4322 47.5299L40.6238 47.4223L40.8153 47.3095L41.0069 47.1967L41.1932 47.0786L41.3821 46.9605L41.5658 46.8398L41.7521 46.7165L41.9331 46.5932L42.1142 46.4646L42.2952 46.336L42.471 46.2048L42.6468 46.071L42.8226 45.9372L42.9958 45.7981L43.1664 45.6591L43.3343 45.5174L43.5022 45.3731L43.6702 45.2287L43.8328 45.0818L43.9955 44.9322L44.1556 44.7801L44.3156 44.6279L44.4731 44.4731L44.6279 44.3156L44.7801 44.1556L44.9322 43.9955L45.0818 43.8328L45.2287 43.6702L45.3731 43.5022L45.5174 43.3343L45.6591 43.1664L45.7981 42.9958L45.9372 42.8226L46.071 42.6468L46.2048 42.471L46.336 42.2952L46.4646 42.1142L46.5932 41.9331L46.7165 41.7521L46.8398 41.5658L46.9605 41.3821L47.0786 41.1932L47.1967 41.0069L47.3095 40.8153L47.4223 40.6238L47.5299 40.4322L47.6375 40.2355L47.7425 40.0413L47.8448 39.8445L47.9471 39.6451L48.0442 39.4457L48.1387 39.2436L48.2331 39.0416L48.3223 38.8369L48.4115 38.6322L48.4981 38.425L48.5821 38.2177L48.6608 38.0078L48.7395 37.7978L48.8156 37.5879L48.8891 37.3754L48.9599 37.1602L49.0282 36.9477L49.0938 36.7299L49.1567 36.5148L49.2171 36.2943L49.2774 36.0766L49.3325 35.8562L49.385 35.6357L49.4349 35.4127L49.4821 35.1897L49.5267 34.964L49.5687 34.7384L49.6054 34.5127L49.6422 34.2844L49.6763 34.0562L49.7078 33.8279L49.734 33.597L49.7602 33.3661L49.7812 33.1352L49.8022 32.9016L49.818 32.6681L49.8311 32.4346L49.8416 32.1984L49.8494 31.9623L49.8521 31.7261L49.8547 31.4873L49.8521 31.2486L49.8494 31.0124L49.8416 30.7763L49.8311 30.5401L49.818 30.3066L49.8022 30.0731L49.7812 29.8395L49.7602 29.6086L49.734 29.3777L49.7078 29.1468L49.6763 28.9185L49.6422 28.6903L49.6054 28.462L49.5687 28.2363L49.5267 28.0107L49.4821 27.785L49.4349 27.562L49.385 27.339L49.3325 27.1185L49.2774 26.8981L49.2171 26.6804L49.1567 26.4599L49.0938 26.2448L49.0282 26.027L48.9599 25.8145L48.8891 25.5993L48.8156 25.3868L48.7395 25.1769L48.6608 24.9669L48.5821 24.757L48.4981 24.5497L48.4115 24.3425L48.3223 24.1378L48.2331 23.9331L48.1387 23.7311L48.0442 23.529L47.9471 23.3296L47.8448 23.1302L47.7425 22.9334L47.6375 22.7392L47.5299 22.5424L47.4223 22.3509L47.3095 22.1594L47.1967 21.9678L47.0786 21.7815L46.9605 21.5926L46.8398 21.4089L46.7165 21.2226L46.5932 21.0416L46.4646 20.8605L46.336 20.6795L46.2048 20.5037L46.071 20.3279L45.9372 20.1521L45.7981 19.9789L45.6591 19.8083L45.5174 19.6404L45.3731 19.4725L45.2287 19.3046L45.0818 19.1419L44.9322 18.9792L44.7801 18.8191L44.6279 18.6591L44.4731 18.5016L44.3156 18.3468L44.1556 18.1946L43.9955 18.0425L43.8328 17.8929L43.6702 17.7459L43.5022 17.6016L43.3343 17.4573L43.1664 17.3156L42.9958 17.1766L42.8226 17.0375L42.6468 16.9037L42.471 16.7699L42.2952 16.6387L42.1142 16.5101L41.9331 16.3815L41.7521 16.2582L41.5658 16.1349L41.3821 16.0142L41.1932 15.8961L41.0069 15.778L40.8153 15.6652L40.6238 15.5524L40.4322 15.4448L40.2355 15.3372L40.0413 15.2322L39.8445 15.1299L39.6451 15.0276L39.4457 14.9305L39.2436 14.836L39.0416 14.7416L38.8369 14.6524L38.6322 14.5631L38.425 14.4766L38.2177 14.3926L38.0078 14.3139L37.7978 14.2352L37.5879 14.1591L37.3754 14.0856L37.1602 14.0148L36.9477 13.9465L36.7299 13.8809L36.5148 13.818L36.2943 13.7576L36.0766 13.6973L35.8562 13.6422L35.6357 13.5897L35.4127 13.5398L35.1897 13.4926L34.964 13.448L34.7384 13.406L34.5127 13.3693L34.2844 13.3325L34.0562 13.2984L33.8279 13.2669L33.597 13.2407L33.3661 13.2145L33.1352 13.1935L32.9016 13.1725L32.6681 13.1567L32.4346 13.1436L32.1984 13.1331L31.9623 13.1252L31.7261 13.1226L31.4873 13.12L31.2486 13.1226Z" fill="#FCD20B"/>
<path d="M30.1749 61.6303C30.1749 62.3729 30.7758 62.9738 31.5184 62.9738H31.521C31.6888 62.9741 31.855 62.9411 32.0099 62.8767C32.1649 62.8123 32.3055 62.7177 32.4236 62.5985C32.5428 62.4804 32.6373 62.3398 32.7018 62.1849C32.7662 62.0299 32.7992 61.8637 32.7988 61.6959V59.0694C32.7988 58.7131 32.6573 58.3714 32.4053 58.1194C32.1534 57.8675 31.8117 57.7259 31.4554 57.7259H31.4528C31.285 57.7256 31.1188 57.7586 30.9638 57.823C30.8089 57.8874 30.6683 57.982 30.5501 58.1012C30.431 58.2193 30.3364 58.3599 30.272 58.5148C30.2076 58.6698 30.1746 58.836 30.1749 59.0038V61.6303ZM9.24402 51.8746C8.71924 52.3994 8.71924 53.2496 9.24402 53.7743H9.24665C9.3646 53.8944 9.50529 53.9897 9.66049 54.0548C9.81569 54.1199 9.98229 54.1534 10.1506 54.1534C10.3189 54.1534 10.4855 54.1199 10.6407 54.0548C10.7959 53.9897 10.9366 53.8944 11.0545 53.7743L12.9096 51.9192C13.4344 51.3945 13.4344 50.5443 12.9096 50.0195V50.0169C12.6689 49.7789 12.3441 49.6455 12.0057 49.6455C11.6672 49.6455 11.3424 49.7789 11.1017 50.0169L9.24402 51.8746ZM51.8956 53.7507C52.0167 53.876 52.1614 53.976 52.3215 54.0447C52.4815 54.1135 52.6537 54.1497 52.8279 54.1512C53.0021 54.1527 53.1749 54.1195 53.3361 54.0535C53.4973 53.9876 53.6438 53.8902 53.767 53.767C53.8902 53.6438 53.9876 53.4973 54.0536 53.3361C54.1195 53.1748 54.1527 53.0021 54.1512 52.8279C54.1497 52.6537 54.1135 52.4815 54.0447 52.3215C53.976 52.1614 53.876 52.0166 53.7507 51.8956L51.8956 50.0405C51.6496 49.7945 51.316 49.6563 50.9681 49.6563C50.6202 49.6563 50.2865 49.7945 50.0405 50.0405C49.7945 50.2865 49.6563 50.6202 49.6563 50.9681C49.6563 51.316 49.7945 51.6496 50.0405 51.8956L51.8956 53.7507ZM61.6618 32.7988C62.0108 32.7988 62.344 32.6598 62.5907 32.4157C62.8349 32.1683 62.9718 31.8346 62.9718 31.4869C62.9718 31.1392 62.8349 30.8055 62.5907 30.558C62.3435 30.3131 62.0098 30.1754 61.6618 30.1749H59.0379C58.6899 30.1754 58.3562 30.3131 58.109 30.558C57.8648 30.8055 57.7279 31.1392 57.7279 31.4869C57.7279 31.8346 57.8648 32.1683 58.109 32.4157C58.3562 32.6607 58.6899 32.7983 59.0379 32.7988H61.6618ZM1.34344 30.1749C1.16702 30.1749 0.992322 30.2097 0.829328 30.2772C0.666334 30.3447 0.518235 30.4437 0.393485 30.5684C0.268735 30.6932 0.169777 30.8413 0.102263 31.0042C0.0347491 31.1672 0 31.3419 0 31.5184L0 31.521C0 31.8595 0.133819 32.1848 0.375219 32.4236C0.493339 32.5428 0.633952 32.6373 0.788899 32.7017C0.943846 32.7662 1.11004 32.7992 1.27784 32.7988H3.93586C4.28484 32.7988 4.61808 32.6598 4.86472 32.4157C5.10965 32.1686 5.24729 31.8348 5.24781 31.4869V31.4842C5.24816 31.3122 5.21453 31.1418 5.14885 30.9828C5.08317 30.8238 4.98674 30.6793 4.86509 30.5576C4.74344 30.436 4.59896 30.3396 4.43995 30.2739C4.28094 30.2082 4.11052 30.1746 3.93848 30.1749H1.34344ZM11.0991 9.24401C10.5743 8.71923 9.7242 8.71923 9.19942 9.24401V9.24664C9.07938 9.3646 8.98404 9.50528 8.91896 9.66048C8.85388 9.81568 8.82037 9.98228 8.82037 10.1506C8.82037 10.3189 8.85388 10.4855 8.91896 10.6407C8.98404 10.7959 9.07938 10.9366 9.19942 11.0545L11.0781 12.9332C11.1998 13.0553 11.3443 13.1522 11.5035 13.2183C11.6627 13.2844 11.8333 13.3184 12.0057 13.3184C12.178 13.3184 12.3487 13.2844 12.5079 13.2183C12.667 13.1522 12.8116 13.0553 12.9332 12.9332L12.9359 12.9306C13.0575 12.8092 13.154 12.6651 13.2198 12.5064C13.2856 12.3476 13.3195 12.1775 13.3195 12.0057C13.3195 11.8339 13.2856 11.6637 13.2198 11.505C13.154 11.3463 13.0575 11.2021 12.9359 11.0808L11.0991 9.24401ZM53.7507 11.0781C53.876 10.9571 53.976 10.8123 54.0447 10.6523C54.1135 10.4922 54.1497 10.3201 54.1512 10.1459C54.1527 9.97165 54.1195 9.7989 54.0536 9.63766C53.9876 9.47643 53.8902 9.32995 53.767 9.20676C53.6438 9.08358 53.4973 8.98616 53.3361 8.9202C53.1749 8.85423 53.0021 8.82104 52.8279 8.82255C52.6537 8.82406 52.4815 8.86026 52.3215 8.92901C52.1614 8.99777 52.0167 9.09772 51.8956 9.22302L50.0405 11.0781C49.9187 11.1999 49.8221 11.3445 49.7562 11.5037C49.6903 11.6628 49.6563 11.8334 49.6563 12.0057C49.6563 12.1779 49.6903 12.3485 49.7562 12.5077C49.8221 12.6668 49.9187 12.8114 50.0405 12.9332C50.1623 13.055 50.3069 13.1517 50.4661 13.2176C50.6252 13.2835 50.7958 13.3174 50.9681 13.3174C51.1403 13.3174 51.3109 13.2835 51.4701 13.2176C51.6292 13.1517 51.7738 13.055 51.8956 12.9332L53.7507 11.0781ZM32.7988 1.31194C32.7983 0.963981 32.6607 0.630245 32.4157 0.383081C32.1683 0.138875 31.8346 0.00195313 31.4869 0.00195312C31.1392 0.00195313 30.8055 0.138875 30.558 0.383081C30.3131 0.630245 30.1755 0.963981 30.1749 1.31194V3.93585C30.1749 4.28483 30.314 4.61807 30.558 4.86471C30.8055 5.10892 31.1392 5.24584 31.4869 5.24584C31.8346 5.24584 32.1683 5.10892 32.4157 4.86471C32.6607 4.61755 32.7983 4.28381 32.7988 3.93585V1.31194Z" fill="#D3B99C"/>
<path d="M31.5236 57.7286L31.5918 57.7338L31.6601 57.7417L31.7257 57.7522L31.7913 57.7679L31.8542 57.7863L31.9172 57.8073L31.9776 57.8309L32.0379 57.8571L32.0956 57.8886L32.1507 57.9201L32.2058 57.9542L32.2583 57.9936L32.3108 58.0329L32.358 58.0749L32.4052 58.1195L32.4499 58.1668L32.4918 58.214L32.5312 58.2665L32.5706 58.319L32.6047 58.3741L32.6362 58.4292L32.6676 58.4869L32.6939 58.5472L32.7175 58.6076L32.7385 58.6706L32.7569 58.7335L32.7726 58.7991L32.7831 58.8647L32.791 58.9329L32.7962 59.0012L32.7988 59.0694V61.6959L32.7962 61.7589L32.7936 61.8219L32.7857 61.8848L32.7752 61.9452L32.7595 62.0082L32.7437 62.0685L32.7227 62.1262L32.7018 62.184L32.6755 62.2417L32.6493 62.2968L32.6178 62.3519L32.5837 62.4044L32.5469 62.4569L32.5102 62.5067L32.4682 62.5539L32.4236 62.5985L32.379 62.6432L32.3318 62.6851L32.2819 62.7219L32.2294 62.7586L32.177 62.7927L32.1219 62.8242L32.0668 62.8504L32.009 62.8767L31.9513 62.8977L31.8936 62.9187L31.8332 62.9344L31.7703 62.9501L31.7099 62.9606L31.6469 62.9685L31.584 62.9711L31.521 62.9738H31.5184L31.4501 62.9711L31.3819 62.9659L31.3137 62.958L31.2481 62.9475L31.1825 62.9318L31.1195 62.9134L31.0566 62.8924L30.9962 62.8688L30.9359 62.8426L30.8781 62.8111L30.823 62.7796L30.7679 62.7455L30.7155 62.7061L30.663 62.6668L30.6157 62.6248L30.5685 62.5802L30.5239 62.5329L30.4819 62.4857L30.4426 62.4332L30.4032 62.3808L30.3691 62.3257L30.3376 62.2706L30.3061 62.2128L30.2799 62.1525L30.2563 62.0921L30.2353 62.0292L30.2169 61.9662L30.2012 61.9006L30.1907 61.835L30.1828 61.7668L30.1775 61.6985L30.1749 61.6303V59.0038L30.1775 58.9408L30.1802 58.8778L30.188 58.8149L30.1985 58.7545L30.2143 58.6915L30.23 58.6312L30.251 58.5735L30.272 58.5157L30.2983 58.458L30.3245 58.4029L30.356 58.3478L30.3901 58.2953L30.4268 58.2429L30.4636 58.193L30.5055 58.1458L30.5501 58.1012L30.5948 58.0566L30.642 58.0146L30.6918 57.9778L30.7443 57.9411L30.7968 57.907L30.8519 57.8755L30.907 57.8493L30.9647 57.823L31.0224 57.802L31.0802 57.781L31.1405 57.7653L31.2035 57.7496L31.2638 57.7391L31.3268 57.7312L31.3898 57.7286L31.4528 57.7259L31.5236 57.7286ZM12.07 49.6443L12.1329 49.6496L12.1933 49.6574L12.2563 49.6679L12.3166 49.681L12.377 49.6968L12.4373 49.7178L12.495 49.7388L12.5501 49.765L12.6079 49.7939L12.6603 49.8227L12.7155 49.8569L12.7653 49.8936L12.8152 49.9329L12.8624 49.9723L12.9096 50.0195L12.9595 50.0694L13.0041 50.1192L13.0434 50.1743L13.0828 50.2294L13.1195 50.2845L13.151 50.3449L13.1799 50.4026L13.2061 50.463L13.2297 50.5233L13.2481 50.5863L13.2665 50.6493L13.2796 50.7122L13.2901 50.7752L13.298 50.8408L13.3032 50.9038V51.0324L13.298 51.098L13.2901 51.1609L13.2796 51.2239L13.2665 51.2895L13.2481 51.3499L13.2297 51.4128L13.2061 51.4732L13.1799 51.5335L13.151 51.5939L13.1195 51.6516L13.0828 51.7067L13.0434 51.7618L13.0041 51.8169L12.9595 51.8694L12.9096 51.9192L11.0545 53.7743L11.0073 53.8189L10.9601 53.8609L10.9102 53.9003L10.8577 53.9344L10.8052 53.9685L10.7528 54L10.695 54.0262L10.6399 54.0525L10.5796 54.0761L10.5219 54.0945L10.4615 54.1102L10.4012 54.1259L10.3382 54.1364L10.2752 54.1443L10.2122 54.1496H10.0863L10.0233 54.1443L9.96035 54.1364L9.9 54.1259L9.83965 54.1102L9.7793 54.0945L9.71895 54.0761L9.66122 54.0525L9.6035 54.0262L9.5484 54L9.49329 53.9685L9.44082 53.9344L9.39096 53.9003L9.34111 53.8609L9.29125 53.8189L9.24665 53.7743H9.24402L9.19679 53.7245L9.15219 53.672L9.1102 53.6169L9.07347 53.5618L9.03673 53.5067L9.00525 53.449L8.97638 53.3886L8.95015 53.3283L8.92653 53.2679L8.90554 53.205L8.8898 53.1446L8.87668 53.0816L8.86618 53.016L8.85831 52.9531L8.85306 52.8875L8.85044 52.8245L8.85306 52.7589L8.85831 52.6959L8.86618 52.6303L8.87668 52.5673L8.8898 52.5044L8.90554 52.4414L8.92653 52.3784L8.95015 52.3181L8.97638 52.2577L9.00525 52.2L9.03673 52.1423L9.07347 52.0845L9.1102 52.0294L9.15219 51.977L9.19679 51.9245L9.24402 51.8746L11.1017 50.0169L11.149 49.9723L11.1962 49.9329L11.2461 49.8936L11.2959 49.8569L11.3484 49.8227L11.4035 49.7939L11.4586 49.765L11.5163 49.7388L11.5741 49.7178L11.6344 49.6968L11.6948 49.681L11.7551 49.6679L11.8155 49.6574L11.8784 49.6496L11.9414 49.6443L12.0044 49.6417L12.07 49.6443ZM51.0324 49.6574L51.098 49.6627L51.1609 49.6706L51.2265 49.681L51.2895 49.6968L51.3499 49.7125L51.4102 49.7335L51.4706 49.7571L51.5283 49.7834L51.586 49.8122L51.6411 49.8437L51.6962 49.8778L51.7487 49.9146L51.8012 49.9539L51.8484 49.9959L51.8956 50.0405L53.7507 51.8956L53.7953 51.9429L53.8373 51.9927L53.8793 52.0426L53.916 52.095L53.9501 52.1501L53.9816 52.2052L54.0105 52.263L54.0367 52.3207L54.0577 52.3811L54.0787 52.4414L54.0971 52.5044L54.1102 52.5673L54.1207 52.6303L54.1286 52.6933L54.1338 52.7589L54.1364 52.8245L54.1338 52.8901L54.1286 52.9531L54.1207 53.0187L54.1102 53.0816L54.0971 53.1446L54.0787 53.205L54.0577 53.2653L54.0367 53.3257L54.0105 53.3834L53.9816 53.4411L53.9501 53.4962L53.916 53.5513L53.8793 53.6038L53.8373 53.6563L53.7953 53.7035L53.7507 53.7507L53.7035 53.7953L53.6563 53.8373L53.6038 53.8793L53.5513 53.916L53.4962 53.9501L53.4411 53.9816L53.3834 54.0105L53.3257 54.0367L53.2653 54.0577L53.205 54.0787L53.1446 54.0971L53.0816 54.1102L53.0187 54.1207L52.9531 54.1286L52.8901 54.1338L52.8245 54.1364L52.7589 54.1338L52.6933 54.1286L52.6303 54.1207L52.5673 54.1102L52.5044 54.0971L52.4414 54.0787L52.3811 54.0577L52.3207 54.0367L52.263 54.0105L52.2052 53.9816L52.1501 53.9501L52.095 53.916L52.0426 53.8793L51.9927 53.8373L51.9429 53.7953L51.8956 53.7507L50.0405 51.8956L49.9959 51.8484L49.9539 51.8012L49.9146 51.7487L49.8778 51.6962L49.8437 51.6411L49.8122 51.586L49.7834 51.5283L49.7571 51.4706L49.7335 51.4102L49.7125 51.3499L49.6968 51.2895L49.681 51.2265L49.6706 51.1609L49.6627 51.098L49.6574 51.0324V50.9038L49.6627 50.8382L49.6706 50.7752L49.681 50.7122L49.6968 50.6493L49.7125 50.5863L49.7335 50.5259L49.7571 50.4656L49.7834 50.4079L49.8122 50.3501L49.8437 50.295L49.8778 50.2399L49.9146 50.1875L49.9539 50.1376L49.9959 50.0878L50.0405 50.0405L50.0878 49.9959L50.1376 49.9539L50.1875 49.9146L50.2399 49.8778L50.295 49.8437L50.3501 49.8122L50.4079 49.7834L50.4656 49.7571L50.5259 49.7335L50.5863 49.7125L50.6493 49.6968L50.7122 49.681L50.7752 49.6706L50.8382 49.6627L50.9038 49.6574H51.0324ZM61.6618 30.1749L61.7274 30.1775L61.7904 30.1802L61.856 30.188L61.9189 30.2012L61.9819 30.2143L62.0423 30.2327L62.1052 30.251L62.163 30.2746L62.2233 30.3009L62.2784 30.3297L62.3362 30.3612L62.3886 30.3953L62.4411 30.4321L62.4936 30.4714L62.5434 30.5134L62.5907 30.558L62.6353 30.6052L62.6773 30.6551L62.7166 30.7076L62.7534 30.7601L62.7875 30.8125L62.819 30.8703L62.8478 30.9254L62.8741 30.9857L62.8977 31.0434L62.916 31.1064L62.9344 31.1668L62.9475 31.2297L62.9606 31.2927L62.9685 31.3583L62.9711 31.4213L62.9738 31.4869L62.9711 31.5525L62.9685 31.6154L62.9606 31.681L62.9475 31.744L62.9344 31.807L62.916 31.8673L62.8977 31.9303L62.8741 31.988L62.8478 32.0484L62.819 32.1035L62.7875 32.1612L62.7534 32.2137L62.7166 32.2662L62.6773 32.3187L62.6353 32.3685L62.5907 32.4157L62.5434 32.4604L62.4936 32.5023L62.4411 32.5417L62.3886 32.5784L62.3362 32.6125L62.2784 32.644L62.2233 32.6729L62.163 32.6991L62.1052 32.7227L62.0423 32.7411L61.9819 32.7595L61.9189 32.7726L61.856 32.7857L61.7904 32.7936L61.7274 32.7962L61.6618 32.7988H59.0379L58.9723 32.7962L58.9093 32.7936L58.8437 32.7857L58.7808 32.7726L58.7178 32.7595L58.6574 32.7411L58.5945 32.7227L58.5367 32.6991L58.4764 32.6729L58.4213 32.644L58.3636 32.6125L58.3111 32.5784L58.2586 32.5417L58.2061 32.5023L58.1563 32.4604L58.109 32.4157L58.0644 32.3685L58.0224 32.3187L57.9831 32.2662L57.9464 32.2137L57.9122 32.1612L57.8808 32.1035L57.8519 32.0484L57.8257 31.988L57.802 31.9303L57.7837 31.8673L57.7653 31.807L57.7522 31.744L57.7391 31.681L57.7312 31.6154L57.7286 31.5525L57.7259 31.4869L57.7286 31.4213L57.7312 31.3583L57.7391 31.2927L57.7522 31.2297L57.7653 31.1668L57.7837 31.1064L57.802 31.0434L57.8257 30.9857L57.8519 30.9254L57.8808 30.8703L57.9122 30.8125L57.9464 30.7601L57.9831 30.7076L58.0224 30.6551L58.0644 30.6052L58.109 30.558L58.1563 30.5134L58.2061 30.4714L58.2586 30.4321L58.3111 30.3953L58.3636 30.3612L58.4213 30.3297L58.4764 30.3009L58.5367 30.2746L58.5945 30.251L58.6574 30.2327L58.7178 30.2143L58.7808 30.2012L58.8437 30.188L58.9093 30.1802L58.9723 30.1775L59.0379 30.1749H61.6618ZM3.93848 30.1749L4.00671 30.1775L4.0723 30.1828L4.1379 30.1907L4.2035 30.2012L4.26647 30.2169L4.32682 30.2327L4.3898 30.2536L4.44752 30.2773L4.50525 30.3035L4.56297 30.3324L4.61808 30.3638L4.67055 30.398L4.72303 30.4347L4.77026 30.4741L4.82012 30.516L4.86472 30.558L4.90671 30.6026L4.94869 30.6525L4.98805 30.6997L5.02478 30.7522L5.05889 30.8047L5.09038 30.8598L5.11924 30.9175L5.14548 30.9752L5.1691 31.0329L5.19009 31.0959L5.20583 31.1563L5.22157 31.2192L5.23207 31.2848L5.23994 31.3504L5.24519 31.416L5.24781 31.4869L5.24519 31.5525L5.24257 31.6154L5.23469 31.681L5.22157 31.744L5.20845 31.807L5.19009 31.8673L5.17172 31.9303L5.1481 31.988L5.12187 32.0484L5.093 32.1035L5.06152 32.1612L5.02741 32.2137L4.99067 32.2662L4.95131 32.3187L4.90933 32.3685L4.86472 32.4157L4.81749 32.4604L4.76764 32.5023L4.71516 32.5417L4.66268 32.5784L4.6102 32.6125L4.55248 32.644L4.49738 32.6729L4.43703 32.6991L4.3793 32.7227L4.31633 32.7411L4.25598 32.7595L4.193 32.7726L4.13003 32.7857L4.06443 32.7936L4.00146 32.7962L3.93586 32.7988H1.27784L1.21487 32.7962L1.15189 32.7936L1.08892 32.7857L1.02857 32.7752L0.965598 32.7595L0.905248 32.7437L0.847522 32.7227L0.789796 32.7018L0.73207 32.6755L0.676968 32.6493L0.621866 32.6178L0.569388 32.5837L0.51691 32.5469L0.467055 32.5102L0.419825 32.4682L0.375219 32.4236L0.330612 32.379L0.28863 32.3318L0.251895 32.2819L0.21516 32.2294L0.18105 32.177L0.149563 32.1219L0.123324 32.0668L0.0970845 32.009L0.0760933 31.9513L0.0551021 31.8936L0.0393586 31.8332L0.0236152 31.7703L0.0131195 31.7099L0.00524783 31.6469L0.00262391 31.584L0 31.521V31.5184L0.00262391 31.4501L0.00787174 31.3819L0.0157434 31.3137L0.0262391 31.2481L0.0419825 31.1825L0.0603499 31.1195L0.0813411 31.0566L0.104956 30.9962L0.131195 30.9359L0.162682 30.8781L0.194169 30.823L0.22828 30.7679L0.267638 30.7155L0.306997 30.663L0.34898 30.6157L0.393586 30.5685L0.440816 30.5239L0.488047 30.4819L0.540525 30.4426L0.593003 30.4032L0.648105 30.3691L0.703207 30.3376L0.760933 30.3061L0.821283 30.2799L0.881633 30.2563L0.944606 30.2353L1.00758 30.2169L1.07318 30.2012L1.13878 30.1907L1.207 30.1828L1.27522 30.1775L1.34344 30.1749H3.93848ZM10.2149 8.85306L10.2778 8.85831L10.3434 8.86618L10.4064 8.87668L10.4694 8.8898L10.5324 8.90554L10.5953 8.92653L10.6557 8.95015L10.716 8.97638L10.7738 9.00525L10.8315 9.03673L10.8892 9.07347L10.9443 9.1102L10.9968 9.15219L11.0493 9.19679L11.0991 9.24402L12.9359 11.0808L12.9805 11.128L13.0251 11.1778L13.0644 11.2303L13.1038 11.2854L13.1379 11.3405L13.1694 11.3956L13.1982 11.4534L13.2219 11.5137L13.2455 11.5714L13.2638 11.6318L13.2822 11.6948L13.2953 11.7551L13.3058 11.8181L13.3137 11.881L13.3163 11.9414L13.319 12.0044L13.3163 12.0673L13.3137 12.1303L13.3058 12.1933L13.2953 12.2563L13.2822 12.3166L13.2638 12.377L13.2455 12.4373L13.2219 12.4977L13.1982 12.5554L13.1694 12.6131L13.1379 12.6708L13.1038 12.7259L13.0644 12.7784L13.0251 12.8309L12.9805 12.8834L12.9359 12.9306L12.9332 12.9332L12.886 12.9778L12.8362 13.0198L12.7863 13.0592L12.7338 13.0959L12.6787 13.13L12.6236 13.1615L12.5659 13.1904L12.5082 13.2166L12.4478 13.2402L12.3875 13.2612L12.3245 13.277L12.2615 13.2927L12.1985 13.3032L12.1356 13.3111L12.07 13.3163H11.9414L11.8758 13.3111L11.8128 13.3032L11.7472 13.2927L11.6843 13.277L11.6239 13.2612L11.5636 13.2402L11.5032 13.2166L11.4455 13.1904L11.3878 13.1615L11.3327 13.13L11.2776 13.0959L11.2251 13.0592L11.1726 13.0198L11.1254 12.9778L11.0781 12.9332L9.19942 11.0545L9.15481 11.0073L9.11283 10.9601L9.07347 10.9102L9.03936 10.8577L9.00525 10.8052L8.97376 10.7528L8.94752 10.695L8.92128 10.6399L8.89767 10.5796L8.8793 10.5219L8.86356 10.4615L8.84781 10.4012L8.83732 10.3382L8.82945 10.2752L8.8242 10.2122V10.0863L8.82945 10.0233L8.83732 9.96035L8.84781 9.9L8.86356 9.83965L8.8793 9.7793L8.89767 9.71895L8.92128 9.66122L8.94752 9.6035L8.97376 9.5484L9.00525 9.49329L9.03936 9.44082L9.07347 9.39096L9.11283 9.34111L9.15481 9.29125L9.19942 9.24665V9.24402L9.24927 9.19679L9.30175 9.15219L9.35685 9.1102L9.41195 9.07347L9.46706 9.03673L9.52478 9.00525L9.58513 8.97638L9.64548 8.95015L9.70583 8.92653L9.7688 8.90554L9.82915 8.8898L9.89213 8.87668L9.95773 8.86618L10.0207 8.85831L10.0863 8.85306L10.1493 8.85044L10.2149 8.85306ZM52.8901 8.83994L52.9531 8.84519L53.0187 8.85306L53.0816 8.86356L53.1446 8.87668L53.205 8.89504L53.2653 8.91603L53.3257 8.93703L53.3834 8.96327L53.4411 8.99213L53.4962 9.02361L53.5513 9.05773L53.6038 9.09446L53.6563 9.13644L53.7035 9.17843L53.7507 9.22303L53.7953 9.27026L53.8373 9.31749L53.8793 9.36997L53.916 9.42245L53.9501 9.47755L53.9816 9.53265L54.0105 9.59038L54.0367 9.6481L54.0577 9.70846L54.0787 9.7688L54.0971 9.82915L54.1102 9.89213L54.1207 9.9551L54.1286 10.0207L54.1338 10.0837L54.1364 10.1493L54.1338 10.2149L54.1286 10.2805L54.1207 10.3434L54.1102 10.4064L54.0971 10.4694L54.0787 10.5324L54.0577 10.5927L54.0367 10.6531L54.0105 10.7108L53.9816 10.7685L53.9501 10.8236L53.916 10.8787L53.8793 10.9312L53.8373 10.981L53.7953 11.0309L53.7507 11.0781L51.8956 12.9332L51.8484 12.9778L51.8012 13.0198L51.7487 13.0592L51.6962 13.0959L51.6411 13.13L51.586 13.1615L51.5283 13.1904L51.4706 13.2166L51.4102 13.2402L51.3499 13.2612L51.2895 13.277L51.2265 13.2927L51.1609 13.3032L51.098 13.3111L51.0324 13.3163H50.9038L50.8382 13.3111L50.7752 13.3032L50.7122 13.2927L50.6493 13.277L50.5863 13.2612L50.5259 13.2402L50.4656 13.2166L50.4079 13.1904L50.3501 13.1615L50.295 13.13L50.2399 13.0959L50.1875 13.0592L50.1376 13.0198L50.0878 12.9778L50.0405 12.9332L49.9959 12.886L49.9539 12.8362L49.9146 12.7863L49.8778 12.7338L49.8437 12.6787L49.8122 12.6236L49.7834 12.5659L49.7571 12.5082L49.7335 12.4478L49.7125 12.3875L49.6968 12.3245L49.681 12.2615L49.6706 12.1985L49.6627 12.1356L49.6574 12.07V11.9414L49.6627 11.8758L49.6706 11.8128L49.681 11.7472L49.6968 11.6843L49.7125 11.6239L49.7335 11.5636L49.7571 11.5032L49.7834 11.4455L49.8122 11.3878L49.8437 11.3327L49.8778 11.2776L49.9146 11.2251L49.9539 11.1726L49.9959 11.1254L50.0405 11.0781L51.8956 9.22303L51.9429 9.17843L51.9927 9.13644L52.0426 9.09446L52.095 9.05773L52.1501 9.02361L52.2052 8.99213L52.263 8.96327L52.3207 8.93703L52.3811 8.91603L52.4414 8.89504L52.5044 8.87668L52.5673 8.86356L52.6303 8.85306L52.6933 8.84519L52.7589 8.83994L52.8245 8.83732L52.8901 8.83994ZM31.5525 0.00262391L31.6154 0.00524783L31.681 0.0131195L31.744 0.0262391L31.807 0.0393586L31.8673 0.057726L31.9303 0.0760933L31.988 0.0997085L32.0484 0.125948L32.1035 0.154811L32.1612 0.186297L32.2137 0.220408L32.2662 0.257143L32.3187 0.296501L32.3685 0.338484L32.4157 0.38309L32.4604 0.430321L32.5023 0.480175L32.5417 0.532653L32.5784 0.585131L32.6125 0.637609L32.644 0.695335L32.6729 0.750437L32.6991 0.810787L32.7227 0.868513L32.7411 0.931487L32.7595 0.991837L32.7726 1.05481L32.7857 1.11778L32.7936 1.18338L32.7962 1.24636L32.7988 1.31195V3.93586L32.7962 4.00146L32.7936 4.06443L32.7857 4.13003L32.7726 4.193L32.7595 4.25598L32.7411 4.31633L32.7227 4.3793L32.6991 4.43703L32.6729 4.49738L32.644 4.55248L32.6125 4.6102L32.5784 4.66268L32.5417 4.71516L32.5023 4.76764L32.4604 4.81749L32.4157 4.86472L32.3685 4.90933L32.3187 4.95131L32.2662 4.99067L32.2137 5.02741L32.1612 5.06152L32.1035 5.093L32.0484 5.12187L31.988 5.1481L31.9303 5.17172L31.8673 5.19009L31.807 5.20845L31.744 5.22157L31.681 5.23469L31.6154 5.24257L31.5525 5.24519L31.4869 5.24781L31.4213 5.24519L31.3583 5.24257L31.2927 5.23469L31.2297 5.22157L31.1668 5.20845L31.1064 5.19009L31.0434 5.17172L30.9857 5.1481L30.9254 5.12187L30.8703 5.093L30.8125 5.06152L30.7601 5.02741L30.7076 4.99067L30.6551 4.95131L30.6052 4.90933L30.558 4.86472L30.5134 4.81749L30.4714 4.76764L30.4321 4.71516L30.3953 4.66268L30.3612 4.6102L30.3297 4.55248L30.3009 4.49738L30.2746 4.43703L30.251 4.3793L30.2327 4.31633L30.2143 4.25598L30.2012 4.193L30.188 4.13003L30.1802 4.06443L30.1775 4.00146L30.1749 3.93586V1.31195L30.1775 1.24636L30.1802 1.18338L30.188 1.11778L30.2012 1.05481L30.2143 0.991837L30.2327 0.931487L30.251 0.868513L30.2746 0.810787L30.3009 0.750437L30.3297 0.695335L30.3612 0.637609L30.3953 0.585131L30.4321 0.532653L30.4714 0.480175L30.5134 0.430321L30.558 0.38309L30.6052 0.338484L30.6551 0.296501L30.7076 0.257143L30.7601 0.220408L30.8125 0.186297L30.8703 0.154811L30.9254 0.125948L30.9857 0.0997085L31.0434 0.0760933L31.1064 0.057726L31.1668 0.0393586L31.2297 0.0262391L31.2927 0.0131195L31.3583 0.00524783L31.4213 0.00262391L31.4869 0L31.5525 0.00262391Z" fill="#FCD20B"/>
</g>
<defs>
<clipPath id="clip0_380_13">
<rect width="63" height="63" fill="white"/>
</clipPath>
</defs>
</svg>
