<svg width="25" height="25" viewBox="0 0 25 25" fill="none" xmlns="http://www.w3.org/2000/svg">
<path d="M22.6587 12.5093C22.6465 11.2031 22.3779 9.93359 21.8604 8.7373C21.3477 7.55566 20.6152 6.49609 19.6851 5.58545C18.7549 4.67725 17.6709 3.96436 16.4624 3.46387C15.2148 2.94873 13.8892 2.6875 12.522 2.6875C11.1572 2.6875 9.83154 2.94873 8.58154 3.46387C7.37549 3.96191 6.2915 4.6748 5.35889 5.58545C4.42627 6.49609 3.69385 7.55566 3.18359 8.7373C2.65381 9.96289 2.38281 11.2617 2.38281 12.6021C2.38281 13.9424 2.65137 15.2437 3.18359 16.4668C3.69629 17.6484 4.42871 18.708 5.35889 19.6187C6.28906 20.5269 7.37305 21.2397 8.58154 21.7402C9.8291 22.2554 11.1548 22.5166 12.522 22.5166C12.9736 22.5166 13.4302 22.4873 13.8745 22.4287C14.2505 22.3945 14.7754 22.1821 15.0732 21.6841C15.4053 21.1274 15.3687 20.395 14.9609 19.5112C14.7095 18.9668 14.7168 18.4517 14.9805 18.0952C15.4126 17.5142 16.5039 17.2993 17.9761 17.5068H17.9858C17.9883 17.5068 17.9932 17.5068 17.9956 17.5093C18.0029 17.5093 18.0078 17.5117 18.0151 17.5117H18.0176C18.1934 17.5312 18.3667 17.541 18.5376 17.541C19.5215 17.541 20.4028 17.2163 21.1108 16.584C22.0972 15.7051 22.6636 14.2793 22.6636 12.6704V12.6436V12.5947C22.666 12.5703 22.6636 12.5386 22.6587 12.5093ZM20.0732 15.4219C19.5752 15.8662 18.9355 16.0469 18.1787 15.9614C17.1362 15.8174 16.228 15.8467 15.4761 16.0518C14.7241 16.2568 14.1211 16.6426 13.728 17.1675C13.4131 17.5898 13.2373 18.1025 13.2178 18.647C13.2007 19.1426 13.313 19.6675 13.5425 20.168C13.7427 20.6025 13.7402 20.8101 13.7329 20.8735C13.728 20.876 13.7256 20.876 13.7207 20.876L13.6914 20.8809C13.3081 20.9321 12.915 20.9565 12.5244 20.9565C7.79541 20.9565 3.9502 17.209 3.9502 12.6045C3.9502 8 7.79785 4.25244 12.5244 4.25244C17.2534 4.25244 21.0986 8 21.0986 12.6045C21.0986 12.6313 21.1011 12.6606 21.1035 12.6875C21.1011 13.8447 20.7251 14.8408 20.0732 15.4219Z" fill="#BD9556"/>
<path d="M4.91992 11.3296C4.91992 11.5139 4.95623 11.6965 5.02678 11.8668C5.09733 12.0371 5.20073 12.1919 5.33109 12.3222C5.46144 12.4526 5.6162 12.556 5.78652 12.6265C5.95683 12.6971 6.13938 12.7334 6.32373 12.7334C6.50808 12.7334 6.69063 12.6971 6.86094 12.6265C7.03126 12.556 7.18602 12.4526 7.31637 12.3222C7.44673 12.1919 7.55013 12.0371 7.62068 11.8668C7.69123 11.6965 7.72754 11.5139 7.72754 11.3296C7.72754 11.1452 7.69123 10.9627 7.62068 10.7924C7.55013 10.6221 7.44673 10.4673 7.31637 10.3369C7.18602 10.2066 7.03126 10.1032 6.86094 10.0326C6.69063 9.96209 6.50808 9.92578 6.32373 9.92578C6.13938 9.92578 5.95683 9.96209 5.78652 10.0326C5.6162 10.1032 5.46144 10.2066 5.33109 10.3369C5.20073 10.4673 5.09733 10.6221 5.02678 10.7924C4.95623 10.9627 4.91992 11.1452 4.91992 11.3296Z" fill="#BD9556"/>
<path d="M8.55957 7.35303C8.55957 7.72534 8.70747 8.0824 8.97074 8.34567C9.234 8.60894 9.59107 8.75684 9.96338 8.75684C10.3357 8.75684 10.6928 8.60894 10.956 8.34567C11.2193 8.0824 11.3672 7.72534 11.3672 7.35303C11.3672 6.98071 11.2193 6.62365 10.956 6.36038C10.6928 6.09712 10.3357 5.94922 9.96338 5.94922C9.59107 5.94922 9.234 6.09712 8.97074 6.36038C8.70747 6.62365 8.55957 6.98071 8.55957 7.35303Z" fill="#BD9556"/>
<path d="M13.5889 7.32959C13.5889 7.7019 13.7368 8.05897 14 8.32223C14.2633 8.5855 14.6204 8.7334 14.9927 8.7334C15.365 8.7334 15.7221 8.5855 15.9853 8.32223C16.2486 8.05897 16.3965 7.7019 16.3965 7.32959C16.3965 6.95728 16.2486 6.60021 15.9853 6.33695C15.7221 6.07368 15.365 5.92578 14.9927 5.92578C14.6204 5.92578 14.2633 6.07368 14 6.33695C13.7368 6.60021 13.5889 6.95728 13.5889 7.32959Z" fill="#BD9556"/>
<path d="M16.9287 10.7866C16.9287 11.1589 17.0766 11.516 17.3399 11.7793C17.6031 12.0425 17.9602 12.1904 18.3325 12.1904C18.7048 12.1904 19.0619 12.0425 19.3252 11.7793C19.5884 11.516 19.7363 11.1589 19.7363 10.7866C19.7363 10.4143 19.5884 10.0572 19.3252 9.79398C19.0619 9.53071 18.7048 9.38281 18.3325 9.38281C17.9602 9.38281 17.6031 9.53071 17.3399 9.79398C17.0766 10.0572 16.9287 10.4143 16.9287 10.7866Z" fill="#BD9556"/>
</svg>
