<svg width="25" height="25" viewBox="0 0 25 25" fill="none" xmlns="http://www.w3.org/2000/svg">
<path d="M22.6603 24.25L22.6383 24.0674C22.028 19.0207 17.3272 14.9144 12.1591 14.9144C6.99095 14.9144 2.29013 19.0203 1.68025 24.0674L1.65825 24.25H0.27832L0.302962 24.0199C0.780392 19.5699 3.89491 15.559 8.05317 14.0405L8.1799 13.9938L8.06637 13.9208C5.9406 12.5536 4.67156 10.276 4.67156 7.82728C4.67156 3.7909 8.17066 0.25 12.1591 0.25C16.1479 0.25 19.6466 3.7909 19.6466 7.82816C19.6466 10.2765 18.3775 12.5541 16.2518 13.9217L16.1382 13.9947L16.265 14.0414C20.4232 15.5603 23.5378 19.5707 24.0152 24.0207L24.0398 24.25H22.6603ZM12.1591 1.64797C9.07668 1.64797 6.05149 4.70924 6.05149 7.82772C6.05149 11.0835 9.27601 13.5164 12.1591 13.5164C15.0421 13.5164 18.2667 11.0839 18.2667 7.82772C18.2667 4.70924 15.2415 1.64797 12.1591 1.64797Z" fill="#B8B8B8" stroke="#B8B8B8" stroke-width="0.5"/>
</svg>
