<svg width="23" height="27" viewBox="0 0 23 27" fill="none" xmlns="http://www.w3.org/2000/svg">
<path d="M11.0855 5.06184C8.47292 5.06184 6.34686 6.96472 6.34686 9.3043C6.34686 11.6427 8.47292 13.5432 11.0855 13.5432C13.6981 13.5432 15.8215 11.6427 15.8215 9.3043C15.8215 6.96472 13.6981 5.06184 11.0855 5.06184ZM11.0855 11.665C10.3884 11.6656 9.71958 11.4172 9.22583 10.9744C8.73207 10.5316 8.45378 9.93048 8.45205 9.30312C8.45205 8.67469 8.72943 8.072 9.22317 7.62763C9.71692 7.18326 10.3866 6.93362 11.0848 6.93362C11.7831 6.93362 12.4528 7.18326 12.9465 7.62763C13.4402 8.072 13.7176 8.67469 13.7176 9.30312C13.7176 10.6061 12.5359 11.665 11.0855 11.665ZM22.1736 9.93351C22.1736 4.45611 17.1989 0 11.0855 0C4.9721 0 0 4.45611 0 9.93351C0 14.2288 6.82686 22.8851 9.7629 26.4068C9.91729 26.5911 10.1171 26.7405 10.3466 26.8435C10.5761 26.9464 10.8291 27 11.0855 27C11.3419 27 11.5948 26.9464 11.8244 26.8435C12.0539 26.7405 12.2537 26.5911 12.4081 26.4068C15.3441 22.8851 22.1736 14.23 22.1736 9.93351ZM11.2603 24.903C11.1697 25.0131 11.0012 25.0131 10.9107 24.903C5.36731 18.1848 1.91997 12.448 1.91997 9.93351C1.91997 5.40579 6.03122 1.7221 11.0855 1.7221C16.1385 1.7221 20.2484 5.40579 20.2484 9.93351C20.2497 12.4492 16.8063 18.1848 11.2603 24.903Z" fill="#251D24"/>
</svg>
