<svg width="28" height="27" viewBox="0 0 28 27" fill="none" xmlns="http://www.w3.org/2000/svg">
<g clip-path="url(#clip0_378_10078)">
<path d="M13.9829 27.0943C13.8023 27.0928 13.6293 27.0256 13.5006 26.9069L2.46258 16.5694C0.921208 15.1148 0.0394408 13.1592 0.00129131 11.1106C-0.0368582 9.062 0.771558 7.07876 2.25783 5.57474C3.74411 4.07073 5.79342 3.16213 7.97809 3.03857C10.1628 2.91501 12.314 3.58603 13.9829 4.91159C15.6501 3.57474 17.8057 2.8944 19.9973 3.01333C22.1888 3.13227 24.246 4.04125 25.737 5.54951C27.2281 7.05777 28.0371 9.04806 27.9944 11.1027C27.9516 13.1574 27.0604 15.1167 25.5078 16.5694L14.4652 26.9069C14.402 26.9664 14.3269 27.0136 14.2441 27.0458C14.1613 27.078 14.0725 27.0945 13.9829 27.0943ZM8.46389 4.28121C7.05413 4.27973 5.67563 4.67002 4.50305 5.40264C3.33046 6.13527 2.41657 7.17724 1.87716 8.39655C1.33775 9.61585 1.1971 10.9576 1.47304 12.2518C1.74897 13.546 2.42907 14.7344 3.42716 15.6665L13.2996 24.9125C13.6841 25.2725 14.2819 25.2727 14.6665 24.9128L24.5477 15.6665C25.8836 14.4148 26.6335 12.7177 26.6327 10.9483C26.6318 9.17904 25.8802 7.48252 24.5432 6.23199C23.8812 5.6128 23.0953 5.12173 22.2306 4.78684C21.3658 4.45195 20.4391 4.27979 19.5033 4.28018C17.6133 4.28098 15.801 4.9846 14.4652 6.23625C14.3366 6.35487 14.1634 6.42136 13.9829 6.42136C13.8024 6.42136 13.6292 6.35487 13.5006 6.23625C12.8406 5.61508 12.0557 5.12249 11.1912 4.78692C10.3267 4.45136 9.39976 4.27948 8.46389 4.28121Z" fill="#B8B8B8" stroke="#B8B8B8" stroke-width="0.5"/>
<path d="M4.68313 9.18661C4.58403 9.18558 4.48573 9.16976 4.39194 9.13976C4.27865 9.10377 4.17406 9.04722 4.08414 8.97334C3.99423 8.89946 3.92075 8.80972 3.86793 8.70923C3.8151 8.60874 3.78396 8.49949 3.77629 8.38773C3.76861 8.27596 3.78456 8.16388 3.82321 8.05789C4.01892 7.42115 4.40227 6.8489 4.92935 6.4067C5.45643 5.9645 6.10591 5.67025 6.80338 5.55765C7.04472 5.53336 7.28649 5.59982 7.47549 5.7424C7.66449 5.88498 7.78524 6.09201 7.81118 6.31794C7.83713 6.54387 7.76614 6.77019 7.61383 6.94713C7.46152 7.12406 7.24037 7.2371 6.99903 7.26139C6.6443 7.338 6.31919 7.50513 6.05978 7.74422C5.80036 7.98332 5.61678 8.28502 5.52941 8.61586C5.46787 8.78074 5.35367 8.92392 5.20229 9.02601C5.05092 9.1281 4.86968 9.18417 4.68313 9.18661Z" fill="#B8B8B8"/>
</g>
<defs>
<clipPath id="clip0_378_10078">
<rect width="28" height="27" fill="white"/>
</clipPath>
</defs>
</svg>
