<svg width="31" height="31" viewBox="0 0 31 31" fill="none" xmlns="http://www.w3.org/2000/svg">
<path d="M21.9587 5.16602H24.2204C26.1824 5.16602 27.7712 6.75606 27.7712 8.72101V24.2149C27.7712 26.1785 26.1818 27.7702 24.2204 27.7702H6.78028C4.81824 27.7702 3.22949 26.1801 3.22949 24.2152V8.72133C3.22949 6.75767 4.81889 5.16602 6.78028 5.16602H9.04199V4.19727C9.04199 3.94034 9.14406 3.69393 9.32573 3.51226C9.50741 3.33058 9.75381 3.22852 10.0107 3.22852C10.2677 3.22852 10.5141 3.33058 10.6958 3.51226C10.8774 3.69393 10.9795 3.94034 10.9795 4.19727V5.16602H20.0212V4.19727C20.0212 3.94034 20.1232 3.69393 20.3049 3.51226C20.4866 3.33058 20.733 3.22852 20.9899 3.22852C21.2468 3.22852 21.4932 3.33058 21.6749 3.51226C21.8566 3.69393 21.9587 3.94034 21.9587 4.19727V5.16602ZM21.9587 7.10352V8.07227C21.9587 8.32919 21.8566 8.5756 21.6749 8.75728C21.4932 8.93895 21.2468 9.04102 20.9899 9.04102C20.733 9.04102 20.4866 8.93895 20.3049 8.75728C20.1232 8.5756 20.0212 8.32919 20.0212 8.07227V7.10352H10.9795V8.07227C10.9795 8.32919 10.8774 8.5756 10.6958 8.75728C10.5141 8.93895 10.2677 9.04102 10.0107 9.04102C9.75381 9.04102 9.50741 8.93895 9.32573 8.75728C9.14406 8.5756 9.04199 8.32919 9.04199 8.07227V7.10352H6.78028C6.56814 7.10377 6.35813 7.14581 6.16224 7.22724C5.96634 7.30867 5.78841 7.42789 5.6386 7.57809C5.48879 7.72829 5.37003 7.90653 5.28911 8.10264C5.20819 8.29874 5.1667 8.50886 5.16699 8.72101V24.2149C5.16644 24.4271 5.20776 24.6374 5.28858 24.8336C5.36941 25.0298 5.48815 25.2082 5.63801 25.3585C5.78787 25.5087 5.9659 25.628 6.16191 25.7094C6.35792 25.7907 6.56805 25.8326 6.78028 25.8327H24.2204C24.4325 25.8324 24.6425 25.7904 24.8384 25.709C25.0343 25.6275 25.2122 25.5083 25.3621 25.3581C25.5119 25.2079 25.6306 25.0297 25.7115 24.8336C25.7925 24.6375 25.834 24.4273 25.8337 24.2152V8.72133C25.8342 8.5091 25.7929 8.29885 25.7121 8.10261C25.6312 7.90637 25.5125 7.72801 25.3626 7.57773C25.2128 7.42745 25.0348 7.30821 24.8387 7.22684C24.6427 7.14546 24.4326 7.10356 24.2204 7.10352H21.9587ZM21.6357 13.8848C21.8927 13.8848 22.1391 13.9868 22.3208 14.1685C22.5024 14.3502 22.6045 14.5966 22.6045 14.8535C22.6045 15.1104 22.5024 15.3568 22.3208 15.5385C22.1391 15.7202 21.8927 15.8223 21.6357 15.8223H9.36491C9.10798 15.8223 8.86158 15.7202 8.6799 15.5385C8.49822 15.3568 8.39616 15.1104 8.39616 14.8535C8.39616 14.5966 8.49822 14.3502 8.6799 14.1685C8.86158 13.9868 9.10798 13.8848 9.36491 13.8848H21.6357ZM17.7607 18.7285C18.0177 18.7285 18.2641 18.8306 18.4458 19.0123C18.6274 19.1939 18.7295 19.4403 18.7295 19.6973C18.7295 19.9542 18.6274 20.2006 18.4458 20.3823C18.2641 20.5639 18.0177 20.666 17.7607 20.666H9.36491C9.10798 20.666 8.86158 20.5639 8.6799 20.3823C8.49822 20.2006 8.39616 19.9542 8.39616 19.6973C8.39616 19.4403 8.49822 19.1939 8.6799 19.0123C8.86158 18.8306 9.10798 18.7285 9.36491 18.7285H17.7607Z" fill="#B8B8B8"/>
</svg>
