<svg width="44" height="44" viewBox="0 0 44 44" fill="none" xmlns="http://www.w3.org/2000/svg">
<g clip-path="url(#clip0_380_94)">
<path d="M8.58008 22.1101C8.58008 23.8869 8.93004 25.6463 9.60999 27.2878C10.2899 28.9293 11.2865 30.4209 12.5429 31.6772C13.7993 32.9336 15.2908 33.9302 16.9324 34.6102C18.5739 35.2901 20.3333 35.6401 22.1101 35.6401C23.8869 35.6401 25.6463 35.2901 27.2878 34.6102C28.9293 33.9302 30.4209 32.9336 31.6772 31.6772C32.9336 30.4209 33.9302 28.9293 34.6102 27.2878C35.2901 25.6463 35.6401 23.8869 35.6401 22.1101C35.6401 20.3333 35.2901 18.5739 34.6102 16.9324C33.9302 15.2908 32.9336 13.7993 31.6772 12.5429C30.4209 11.2865 28.9293 10.2899 27.2878 9.60999C25.6463 8.93004 23.8869 8.58008 22.1101 8.58008C20.3333 8.58008 18.5739 8.93004 16.9324 9.60999C15.2908 10.2899 13.7993 11.2865 12.5429 12.5429C11.2865 13.7993 10.2899 15.2908 9.60999 16.9324C8.93004 18.5739 8.58008 20.3333 8.58008 22.1101Z" fill="#FDF8ED"/>
<path d="M22.1794 7.33191L22.3681 7.33558L22.5569 7.34107L22.7438 7.3484L22.9307 7.3594L23.1177 7.37223L23.3028 7.38872L23.4878 7.40521L23.6729 7.42537L23.8562 7.44736L24.0394 7.47302L24.2227 7.49867L24.4041 7.528L24.5837 7.55915L24.7651 7.59214L24.9429 7.62879L25.1225 7.66544L25.3003 7.70576L25.4762 7.7479L25.6521 7.79189L25.828 7.8377L26.0021 7.88718L26.1762 7.93666L26.3485 7.9898L26.5208 8.04478L26.6912 8.10159L26.8598 8.16023L27.0284 8.22071L27.197 8.28301L27.3637 8.34715L27.5305 8.41496L27.6954 8.48276L27.8585 8.55424L28.0216 8.62571L28.1829 8.70084L28.3442 8.77598L28.5036 8.85478L28.663 8.93541L28.8206 9.01604L28.9764 9.10034L29.1322 9.18647L29.2861 9.27444L29.4382 9.3624L29.5903 9.45403L29.7406 9.54566L29.8908 9.64095L30.0375 9.73808L30.1859 9.8352L30.3307 9.93416L30.4754 10.0368L30.6184 10.1394L30.7595 10.2439L30.9006 10.3502L31.0399 10.4583L31.1773 10.5682L31.3148 10.68L31.4485 10.7918L31.5823 10.9073L31.7143 11.0227L31.8462 11.14L31.9763 11.2591L32.1028 11.3801L32.2292 11.5028L32.3557 11.6256L32.4784 11.7521L32.6012 11.8785L32.7222 12.005L32.8413 12.1351L32.9586 12.267L33.074 12.399L33.1895 12.5327L33.3013 12.6665L33.413 12.804L33.523 12.9414L33.6311 13.0807L33.7374 13.2218L33.8419 13.3629L33.9445 13.5058L34.0471 13.6506L34.1461 13.7954L34.2432 13.9438L34.3403 14.0904L34.4356 14.2407L34.5272 14.391L34.6189 14.5431L34.7068 14.6952L34.7948 14.8491L34.8809 15.0049L34.9652 15.1606L35.0459 15.3183L35.1265 15.4777L35.2053 15.6371L35.2804 15.7984L35.3556 15.9597L35.427 16.1227L35.4985 16.2858L35.5663 16.4508L35.6341 16.6175L35.6983 16.7843L35.7606 16.9529L35.821 17.1215L35.8797 17.2901L35.9365 17.4605L35.9915 17.6328L36.0446 17.805L36.0941 17.9791L36.1436 18.1532L36.1894 18.3292L36.2334 18.5051L36.2755 18.681L36.3158 18.8588L36.3525 19.0384L36.3891 19.2161L36.4221 19.3976L36.4533 19.5771L36.4826 19.7586L36.5083 19.9418L36.5339 20.1251L36.5559 20.3083L36.5761 20.4934L36.5926 20.6785L36.609 20.8636L36.6219 21.0505L36.6329 21.2375L36.6402 21.4244L36.6457 21.6131L36.6494 21.8019L36.6512 21.9906L36.6494 22.1794L36.6457 22.3681L36.6402 22.5569L36.6329 22.7438L36.6219 22.9307L36.609 23.1177L36.5926 23.3028L36.5761 23.4878L36.5559 23.6729L36.5339 23.8562L36.5083 24.0394L36.4826 24.2227L36.4533 24.4041L36.4221 24.5837L36.3891 24.7651L36.3525 24.9429L36.3158 25.1225L36.2755 25.3003L36.2334 25.4762L36.1894 25.6521L36.1436 25.828L36.0941 26.0021L36.0446 26.1762L35.9915 26.3485L35.9365 26.5208L35.8797 26.6912L35.821 26.8598L35.7606 27.0284L35.6983 27.197L35.6341 27.3637L35.5663 27.5305L35.4985 27.6954L35.427 27.8585L35.3556 28.0216L35.2804 28.1829L35.2053 28.3442L35.1265 28.5036L35.0459 28.663L34.9652 28.8206L34.8809 28.9764L34.7948 29.1322L34.7068 29.2861L34.6189 29.4382L34.5272 29.5903L34.4356 29.7406L34.3403 29.8908L34.2432 30.0375L34.1461 30.1859L34.0471 30.3307L33.9445 30.4754L33.8419 30.6184L33.7374 30.7595L33.6311 30.9006L33.523 31.0399L33.413 31.1773L33.3013 31.3148L33.1895 31.4485L33.074 31.5823L32.9586 31.7143L32.8413 31.8462L32.7222 31.9763L32.6012 32.1028L32.4784 32.2292L32.3557 32.3557L32.2292 32.4784L32.1028 32.6012L31.9763 32.7222L31.8462 32.8413L31.7143 32.9586L31.5823 33.074L31.4485 33.1895L31.3148 33.3013L31.1773 33.413L31.0399 33.523L30.9006 33.6311L30.7595 33.7374L30.6184 33.8419L30.4754 33.9445L30.3307 34.0471L30.1859 34.1461L30.0375 34.2432L29.8908 34.3403L29.7406 34.4356L29.5903 34.5272L29.4382 34.6189L29.2861 34.7068L29.1322 34.7948L28.9764 34.8809L28.8206 34.9652L28.663 35.0459L28.5036 35.1265L28.3442 35.2053L28.1829 35.2804L28.0216 35.3556L27.8585 35.427L27.6954 35.4985L27.5305 35.5663L27.3637 35.6341L27.197 35.6983L27.0284 35.7606L26.8598 35.821L26.6912 35.8797L26.5208 35.9365L26.3485 35.9915L26.1762 36.0446L26.0021 36.0941L25.828 36.1436L25.6521 36.1894L25.4762 36.2334L25.3003 36.2755L25.1225 36.3158L24.9429 36.3525L24.7651 36.3891L24.5837 36.4221L24.4041 36.4533L24.2227 36.4826L24.0394 36.5083L23.8562 36.5339L23.6729 36.5559L23.4878 36.5761L23.3028 36.5926L23.1177 36.609L22.9307 36.6219L22.7438 36.6329L22.5569 36.6402L22.3681 36.6457L22.1794 36.6494L21.9906 36.6512L21.8019 36.6494L21.6131 36.6457L21.4244 36.6402L21.2375 36.6329L21.0505 36.6219L20.8636 36.609L20.6785 36.5926L20.4934 36.5761L20.3083 36.5559L20.1251 36.5339L19.9418 36.5083L19.7586 36.4826L19.5771 36.4533L19.3976 36.4221L19.2161 36.3891L19.0384 36.3525L18.8588 36.3158L18.681 36.2755L18.5051 36.2334L18.3292 36.1894L18.1532 36.1436L17.9791 36.0941L17.805 36.0446L17.6328 35.9915L17.4605 35.9365L17.2901 35.8797L17.1215 35.821L16.9529 35.7606L16.7843 35.6983L16.6175 35.6341L16.4508 35.5663L16.2858 35.4985L16.1227 35.427L15.9597 35.3556L15.7984 35.2804L15.6371 35.2053L15.4777 35.1265L15.3183 35.0459L15.1606 34.9652L15.0049 34.8809L14.8491 34.7948L14.6952 34.7068L14.5431 34.6189L14.391 34.5272L14.2407 34.4356L14.0904 34.3403L13.9438 34.2432L13.7954 34.1461L13.6506 34.0471L13.5058 33.9445L13.3629 33.8419L13.2218 33.7374L13.0807 33.6311L12.9414 33.523L12.804 33.413L12.6665 33.3013L12.5327 33.1895L12.399 33.074L12.267 32.9586L12.1351 32.8413L12.005 32.7222L11.8785 32.6012L11.7521 32.4784L11.6256 32.3557L11.5028 32.2292L11.3801 32.1028L11.2591 31.9763L11.14 31.8462L11.0227 31.7143L10.9073 31.5823L10.7918 31.4485L10.68 31.3148L10.5682 31.1773L10.4583 31.0399L10.3502 30.9006L10.2439 30.7595L10.1394 30.6184L10.0368 30.4754L9.93416 30.3307L9.8352 30.1859L9.73808 30.0375L9.64095 29.8908L9.54566 29.7406L9.45403 29.5903L9.3624 29.4382L9.27444 29.2861L9.18647 29.1322L9.10034 28.9764L9.01604 28.8206L8.93541 28.663L8.85478 28.5036L8.77598 28.3442L8.70084 28.1829L8.62571 28.0216L8.55424 27.8585L8.48276 27.6954L8.41496 27.5305L8.34715 27.3637L8.28301 27.197L8.22071 27.0284L8.16023 26.8598L8.10159 26.6912L8.04478 26.5208L7.9898 26.3485L7.93666 26.1762L7.88718 26.0021L7.8377 25.828L7.79189 25.6521L7.7479 25.4762L7.70576 25.3003L7.66544 25.1225L7.62879 24.9429L7.59214 24.7651L7.55915 24.5837L7.528 24.4041L7.49867 24.2227L7.47302 24.0394L7.44736 23.8562L7.42537 23.6729L7.40521 23.4878L7.38872 23.3028L7.37223 23.1177L7.3594 22.9307L7.3484 22.7438L7.34107 22.5569L7.33558 22.3681L7.33191 22.1794L7.33008 21.9906L7.33191 21.8019L7.33558 21.6131L7.34107 21.4244L7.3484 21.2375L7.3594 21.0505L7.37223 20.8636L7.38872 20.6785L7.40521 20.4934L7.42537 20.3083L7.44736 20.1251L7.47302 19.9418L7.49867 19.7586L7.528 19.5771L7.55915 19.3976L7.59214 19.2161L7.62879 19.0384L7.66544 18.8588L7.70576 18.681L7.7479 18.5051L7.79189 18.3292L7.8377 18.1532L7.88718 17.9791L7.93666 17.805L7.9898 17.6328L8.04478 17.4605L8.10159 17.2901L8.16023 17.1215L8.22071 16.9529L8.28301 16.7843L8.34715 16.6175L8.41496 16.4508L8.48276 16.2858L8.55424 16.1227L8.62571 15.9597L8.70084 15.7984L8.77598 15.6371L8.85478 15.4777L8.93541 15.3183L9.01604 15.1606L9.10034 15.0049L9.18647 14.8491L9.27444 14.6952L9.3624 14.5431L9.45403 14.391L9.54566 14.2407L9.64095 14.0904L9.73808 13.9438L9.8352 13.7954L9.93416 13.6506L10.0368 13.5058L10.1394 13.3629L10.2439 13.2218L10.3502 13.0807L10.4583 12.9414L10.5682 12.804L10.68 12.6665L10.7918 12.5327L10.9073 12.399L11.0227 12.267L11.14 12.1351L11.2591 12.005L11.3801 11.8785L11.5028 11.7521L11.6256 11.6256L11.7521 11.5028L11.8785 11.3801L12.005 11.2591L12.1351 11.14L12.267 11.0227L12.399 10.9073L12.5327 10.7918L12.6665 10.68L12.804 10.5682L12.9414 10.4583L13.0807 10.3502L13.2218 10.2439L13.3629 10.1394L13.5058 10.0368L13.6506 9.93416L13.7954 9.8352L13.9438 9.73808L14.0904 9.64095L14.2407 9.54566L14.391 9.45403L14.5431 9.3624L14.6952 9.27444L14.8491 9.18647L15.0049 9.10034L15.1606 9.01604L15.3183 8.93541L15.4777 8.85478L15.6371 8.77598L15.7984 8.70084L15.9597 8.62571L16.1227 8.55424L16.2858 8.48276L16.4508 8.41496L16.6175 8.34715L16.7843 8.28301L16.9529 8.22071L17.1215 8.16023L17.2901 8.10159L17.4605 8.04478L17.6328 7.9898L17.805 7.93666L17.9791 7.88718L18.1532 7.8377L18.3292 7.79189L18.5051 7.7479L18.681 7.70576L18.8588 7.66544L19.0384 7.62879L19.2161 7.59214L19.3976 7.55915L19.5771 7.528L19.7586 7.49867L19.9418 7.47302L20.1251 7.44736L20.3083 7.42537L20.4934 7.40521L20.6785 7.38872L20.8636 7.37223L21.0505 7.3594L21.2375 7.3484L21.4244 7.34107L21.6131 7.33558L21.8019 7.33191L21.9906 7.33008L22.1794 7.33191ZM21.8239 9.16448L21.6589 9.16631L21.494 9.17181L21.3291 9.17914L21.166 9.1883L21.0029 9.1993L20.8398 9.21396L20.6785 9.22862L20.5173 9.24695L20.356 9.26527L20.1966 9.28726L20.0371 9.31109L19.8777 9.33674L19.7201 9.3624L19.5625 9.39172L19.4049 9.42287L19.2491 9.45586L19.0933 9.49068L18.9394 9.52733L18.7855 9.56581L18.6334 9.60796L18.4794 9.65011L18.3292 9.69409L18.1771 9.73991L18.0286 9.78755L17.8784 9.83703L17.7299 9.88835L17.5833 9.94149L17.4367 9.99647L17.2901 10.0514L17.1453 10.1101L17.0005 10.1706L16.8576 10.2329L16.7147 10.2952L16.5736 10.3611L16.4325 10.4271L16.2932 10.4949L16.1539 10.5664L16.0165 10.6379L15.8808 10.7112L15.7434 10.7863L15.6096 10.8614L15.4759 10.9402L15.3421 11.019L15.212 11.1015L15.08 11.184L14.9517 11.2683L14.8216 11.3544L14.6952 11.4405L14.5687 11.5303L14.4423 11.6201L14.3195 11.7118L14.1967 11.8052L14.0739 11.8987L13.953 11.9958L13.8339 12.0929L13.7166 12.1919L13.5993 12.2927L13.482 12.3935L13.3684 12.4961L13.2548 12.6005L13.143 12.7068L13.0312 12.8131L12.9212 12.9212L12.8131 13.0312L12.7068 13.143L12.6005 13.2548L12.4961 13.3684L12.3935 13.482L12.2927 13.5993L12.1919 13.7166L12.0929 13.8339L11.9958 13.953L11.8987 14.0739L11.8052 14.1967L11.7118 14.3195L11.6201 14.4423L11.5303 14.5687L11.4405 14.6952L11.3544 14.8216L11.2683 14.9517L11.184 15.08L11.1015 15.212L11.019 15.3421L10.9402 15.4759L10.8614 15.6096L10.7863 15.7434L10.7112 15.8808L10.6379 16.0165L10.5664 16.1539L10.4949 16.2932L10.4271 16.4325L10.3611 16.5736L10.2952 16.7147L10.2329 16.8576L10.1706 17.0005L10.1101 17.1453L10.0514 17.2901L9.99647 17.4367L9.94149 17.5833L9.88835 17.7299L9.83703 17.8784L9.78755 18.0286L9.73991 18.1771L9.69409 18.3292L9.65011 18.4794L9.60796 18.6334L9.56581 18.7855L9.52733 18.9394L9.49068 19.0933L9.45586 19.2491L9.42287 19.4049L9.39172 19.5625L9.3624 19.7201L9.33674 19.8777L9.31109 20.0371L9.28726 20.1966L9.26527 20.356L9.24695 20.5173L9.22862 20.6785L9.21396 20.8398L9.1993 21.0029L9.1883 21.166L9.17914 21.3291L9.17181 21.494L9.16631 21.6589L9.16448 21.8239L9.16265 21.9906L9.16448 22.1574L9.16631 22.3223L9.17181 22.4873L9.17914 22.6522L9.1883 22.8153L9.1993 22.9784L9.21396 23.1415L9.22862 23.3028L9.24695 23.464L9.26527 23.6253L9.28726 23.7847L9.31109 23.9442L9.33674 24.1036L9.3624 24.2612L9.39172 24.4188L9.42287 24.5764L9.45586 24.7322L9.49068 24.8879L9.52733 25.0419L9.56581 25.1958L9.60796 25.3479L9.65011 25.5018L9.69409 25.6521L9.73991 25.8042L9.78755 25.9527L9.83703 26.1029L9.88835 26.2514L9.94149 26.398L9.99647 26.5446L10.0514 26.6912L10.1101 26.836L10.1706 26.9807L10.2329 27.1237L10.2952 27.2666L10.3611 27.4077L10.4271 27.5488L10.4949 27.6881L10.5664 27.8274L10.6379 27.9648L10.7112 28.1004L10.7863 28.2379L10.8614 28.3716L10.9402 28.5054L11.019 28.6392L11.1015 28.7693L11.184 28.9013L11.2683 29.0295L11.3544 29.1597L11.4405 29.2861L11.5303 29.4125L11.6201 29.539L11.7118 29.6618L11.8052 29.7846L11.8987 29.9073L11.9958 30.0283L12.0929 30.1474L12.1919 30.2647L12.2927 30.382L12.3935 30.4993L12.4961 30.6129L12.6005 30.7265L12.7068 30.8383L12.8131 30.9501L12.9212 31.06L13.0312 31.1681L13.143 31.2744L13.2548 31.3807L13.3684 31.4852L13.482 31.5878L13.5993 31.6886L13.7166 31.7894L13.8339 31.8883L13.953 31.9855L14.0739 32.0826L14.1967 32.1761L14.3195 32.2695L14.4423 32.3612L14.5687 32.4509L14.6952 32.5407L14.8216 32.6269L14.9517 32.713L15.08 32.7973L15.212 32.8798L15.3421 32.9622L15.4759 33.041L15.6096 33.1198L15.7434 33.195L15.8808 33.2701L16.0165 33.3434L16.1539 33.4149L16.2932 33.4863L16.4325 33.5542L16.5736 33.6201L16.7147 33.6861L16.8576 33.7484L17.0005 33.8107L17.1453 33.8712L17.2901 33.9298L17.4367 33.9848L17.5833 34.0398L17.7299 34.0929L17.8784 34.1442L18.0286 34.1937L18.1771 34.2414L18.3292 34.2872L18.4794 34.3312L18.6334 34.3733L18.7855 34.4155L18.9394 34.4539L19.0933 34.4906L19.2491 34.5254L19.4049 34.5584L19.5625 34.5896L19.7201 34.6189L19.8777 34.6445L20.0371 34.6702L20.1966 34.694L20.356 34.716L20.5173 34.7343L20.6785 34.7527L20.8398 34.7673L21.0029 34.782L21.166 34.793L21.3291 34.8021L21.494 34.8095L21.6589 34.815L21.8239 34.8168L21.9906 34.8186L22.1574 34.8168L22.3223 34.815L22.4873 34.8095L22.6522 34.8021L22.8153 34.793L22.9784 34.782L23.1415 34.7673L23.3028 34.7527L23.464 34.7343L23.6253 34.716L23.7847 34.694L23.9442 34.6702L24.1036 34.6445L24.2612 34.6189L24.4188 34.5896L24.5764 34.5584L24.7322 34.5254L24.8879 34.4906L25.0419 34.4539L25.1958 34.4155L25.3479 34.3733L25.5018 34.3312L25.6521 34.2872L25.8042 34.2414L25.9527 34.1937L26.1029 34.1442L26.2514 34.0929L26.398 34.0398L26.5446 33.9848L26.6912 33.9298L26.836 33.8712L26.9807 33.8107L27.1237 33.7484L27.2666 33.6861L27.4077 33.6201L27.5488 33.5542L27.6881 33.4863L27.8274 33.4149L27.9648 33.3434L28.1004 33.2701L28.2379 33.195L28.3716 33.1198L28.5054 33.041L28.6392 32.9622L28.7693 32.8798L28.9013 32.7973L29.0295 32.713L29.1597 32.6269L29.2861 32.5407L29.4125 32.4509L29.539 32.3612L29.6618 32.2695L29.7846 32.1761L29.9073 32.0826L30.0283 31.9855L30.1474 31.8883L30.2647 31.7894L30.382 31.6886L30.4993 31.5878L30.6129 31.4852L30.7265 31.3807L30.8383 31.2744L30.9501 31.1681L31.06 31.06L31.1681 30.9501L31.2744 30.8383L31.3807 30.7265L31.4852 30.6129L31.5878 30.4993L31.6886 30.382L31.7894 30.2647L31.8883 30.1474L31.9855 30.0283L32.0826 29.9073L32.1761 29.7846L32.2695 29.6618L32.3612 29.539L32.4509 29.4125L32.5407 29.2861L32.6269 29.1597L32.713 29.0295L32.7973 28.9013L32.8798 28.7693L32.9622 28.6392L33.041 28.5054L33.1198 28.3716L33.195 28.2379L33.2701 28.1004L33.3434 27.9648L33.4149 27.8274L33.4863 27.6881L33.5542 27.5488L33.6201 27.4077L33.6861 27.2666L33.7484 27.1237L33.8107 26.9807L33.8712 26.836L33.9298 26.6912L33.9848 26.5446L34.0398 26.398L34.0929 26.2514L34.1442 26.1029L34.1937 25.9527L34.2414 25.8042L34.2872 25.6521L34.3312 25.5018L34.3733 25.3479L34.4155 25.1958L34.4539 25.0419L34.4906 24.8879L34.5254 24.7322L34.5584 24.5764L34.5896 24.4188L34.6189 24.2612L34.6445 24.1036L34.6702 23.9442L34.694 23.7847L34.716 23.6253L34.7343 23.464L34.7527 23.3028L34.7673 23.1415L34.782 22.9784L34.793 22.8153L34.8021 22.6522L34.8095 22.4873L34.815 22.3223L34.8168 22.1574L34.8186 21.9906L34.8168 21.8239L34.815 21.6589L34.8095 21.494L34.8021 21.3291L34.793 21.166L34.782 21.0029L34.7673 20.8398L34.7527 20.6785L34.7343 20.5173L34.716 20.356L34.694 20.1966L34.6702 20.0371L34.6445 19.8777L34.6189 19.7201L34.5896 19.5625L34.5584 19.4049L34.5254 19.2491L34.4906 19.0933L34.4539 18.9394L34.4155 18.7855L34.3733 18.6334L34.3312 18.4794L34.2872 18.3292L34.2414 18.1771L34.1937 18.0286L34.1442 17.8784L34.0929 17.7299L34.0398 17.5833L33.9848 17.4367L33.9298 17.2901L33.8712 17.1453L33.8107 17.0005L33.7484 16.8576L33.6861 16.7147L33.6201 16.5736L33.5542 16.4325L33.4863 16.2932L33.4149 16.1539L33.3434 16.0165L33.2701 15.8808L33.195 15.7434L33.1198 15.6096L33.041 15.4759L32.9622 15.3421L32.8798 15.212L32.7973 15.08L32.713 14.9517L32.6269 14.8216L32.5407 14.6952L32.4509 14.5687L32.3612 14.4423L32.2695 14.3195L32.1761 14.1967L32.0826 14.0739L31.9855 13.953L31.8883 13.8339L31.7894 13.7166L31.6886 13.5993L31.5878 13.482L31.4852 13.3684L31.3807 13.2548L31.2744 13.143L31.1681 13.0312L31.06 12.9212L30.9501 12.8131L30.8383 12.7068L30.7265 12.6005L30.6129 12.4961L30.4993 12.3935L30.382 12.2927L30.2647 12.1919L30.1474 12.0929L30.0283 11.9958L29.9073 11.8987L29.7846 11.8052L29.6618 11.7118L29.539 11.6201L29.4125 11.5303L29.2861 11.4405L29.1597 11.3544L29.0295 11.2683L28.9013 11.184L28.7693 11.1015L28.6392 11.019L28.5054 10.9402L28.3716 10.8614L28.2379 10.7863L28.1004 10.7112L27.9648 10.6379L27.8274 10.5664L27.6881 10.4949L27.5488 10.4271L27.4077 10.3611L27.2666 10.2952L27.1237 10.2329L26.9807 10.1706L26.836 10.1101L26.6912 10.0514L26.5446 9.99647L26.398 9.94149L26.2514 9.88835L26.1029 9.83703L25.9527 9.78755L25.8042 9.73991L25.6521 9.69409L25.5018 9.65011L25.3479 9.60796L25.1958 9.56581L25.0419 9.52733L24.8879 9.49068L24.7322 9.45586L24.5764 9.42287L24.4188 9.39172L24.2612 9.3624L24.1036 9.33674L23.9442 9.31109L23.7847 9.28726L23.6253 9.26527L23.464 9.24695L23.3028 9.22862L23.1415 9.21396L22.9784 9.1993L22.8153 9.1883L22.6522 9.17914L22.4873 9.17181L22.3223 9.16631L22.1574 9.16448L21.9906 9.16265L21.8239 9.16448Z" fill="white"/>
<path d="M21.0746 43.044C21.0746 43.5626 21.4942 43.9823 22.0128 43.9823H22.0147C22.1319 43.9825 22.2479 43.9594 22.3561 43.9145C22.4644 43.8695 22.5626 43.8034 22.6451 43.7202C22.7283 43.6377 22.7943 43.5395 22.8393 43.4313C22.8843 43.3231 22.9074 43.207 22.9071 43.0898V41.2554C22.9071 41.0065 22.8083 40.7679 22.6323 40.5919C22.4563 40.416 22.2177 40.3171 21.9688 40.3171H21.967C21.8498 40.3169 21.7337 40.3399 21.6255 40.3849C21.5173 40.4299 21.4191 40.4959 21.3366 40.5792C21.2534 40.6617 21.1873 40.7599 21.1424 40.8681C21.0974 40.9763 21.0743 41.0924 21.0746 41.2096V43.044ZM6.45614 36.2305C6.08963 36.597 6.08963 37.1908 6.45614 37.5573H6.45798C6.54036 37.6411 6.63861 37.7077 6.74701 37.7531C6.8554 37.7986 6.97176 37.822 7.0893 37.822C7.20683 37.822 7.32319 37.7986 7.43159 37.7531C7.53998 37.7077 7.63823 37.6411 7.72062 37.5573L9.01624 36.2616C9.38276 35.8951 9.38276 35.3014 9.01624 34.9349V34.933C8.84815 34.7668 8.6213 34.6736 8.38492 34.6736C8.14855 34.6736 7.9217 34.7668 7.7536 34.933L6.45614 36.2305ZM36.2446 37.5408C36.3291 37.6283 36.4302 37.6981 36.542 37.7461C36.6538 37.7941 36.774 37.8194 36.8957 37.8205C37.0173 37.8215 37.138 37.7983 37.2506 37.7523C37.3632 37.7062 37.4655 37.6382 37.5516 37.5521C37.6376 37.4661 37.7056 37.3638 37.7517 37.2512C37.7978 37.1386 37.8209 37.0179 37.8199 36.8963C37.8188 36.7746 37.7936 36.6544 37.7455 36.5426C37.6975 36.4308 37.6277 36.3297 37.5402 36.2452L36.2446 34.9495C36.0728 34.7777 35.8397 34.6812 35.5968 34.6812C35.3538 34.6812 35.1208 34.7777 34.9489 34.9495C34.7771 35.1213 34.6806 35.3544 34.6806 35.5973C34.6806 35.8403 34.7771 36.0733 34.9489 36.2452L36.2446 37.5408ZM43.0654 22.9077C43.3091 22.9077 43.5419 22.8106 43.7141 22.6402C43.8847 22.4673 43.9803 22.2342 43.9803 21.9914C43.9803 21.7486 43.8847 21.5155 43.7141 21.3427C43.5415 21.1716 43.3084 21.0755 43.0654 21.0751H41.2328C40.9898 21.0755 40.7567 21.1716 40.5841 21.3427C40.4135 21.5155 40.3179 21.7486 40.3179 21.9914C40.3179 22.2342 40.4135 22.4673 40.5841 22.6402C40.7567 22.8112 40.9898 22.9073 41.2328 22.9077H43.0654ZM0.938276 21.0751C0.81506 21.0751 0.69305 21.0994 0.579213 21.1466C0.465376 21.1937 0.361942 21.2628 0.274815 21.35C0.187688 21.4371 0.118575 21.5405 0.071422 21.6544C0.0242692 21.7682 0 21.8902 0 22.0134L0 22.0152C0 22.2516 0.0934611 22.4789 0.262057 22.6456C0.344555 22.7289 0.44276 22.7949 0.550977 22.8399C0.659194 22.8849 0.775267 22.9079 0.892462 22.9077H2.74885C2.99259 22.9077 3.22532 22.8106 3.39758 22.6402C3.56864 22.4675 3.66477 22.2344 3.66514 21.9914V21.9896C3.66538 21.8694 3.64189 21.7504 3.59602 21.6394C3.55015 21.5283 3.4828 21.4274 3.39784 21.3424C3.31288 21.2575 3.21197 21.1901 3.10092 21.1443C2.98986 21.0984 2.87084 21.0749 2.75069 21.0751H0.938276ZM7.75177 6.45673C7.38526 6.09021 6.7915 6.09021 6.42499 6.45673V6.45856C6.34116 6.54094 6.27457 6.6392 6.22912 6.74759C6.18367 6.85598 6.16026 6.97234 6.16026 7.08988C6.16026 7.20742 6.18367 7.32378 6.22912 7.43217C6.27457 7.54056 6.34116 7.63882 6.42499 7.7212L7.73711 9.03332C7.82207 9.11859 7.92303 9.18626 8.03419 9.23242C8.14536 9.27859 8.26455 9.30236 8.38492 9.30236C8.5053 9.30236 8.62449 9.27859 8.73565 9.23242C8.84682 9.18626 8.94778 9.11859 9.03274 9.03332L9.03457 9.03149C9.11951 8.94672 9.1869 8.84603 9.23288 8.73518C9.27886 8.62434 9.30253 8.50551 9.30253 8.38551C9.30253 8.2655 9.27886 8.14668 9.23288 8.03583C9.1869 7.92498 9.11951 7.82429 9.03457 7.73953L7.75177 6.45673ZM37.5402 7.73769C37.6277 7.65317 37.6975 7.55206 37.7455 7.44027C37.7936 7.32848 37.8188 7.20825 37.8199 7.08658C37.8209 6.96492 37.7978 6.84426 37.7517 6.73165C37.7056 6.61905 37.6376 6.51674 37.5516 6.43071C37.4655 6.34468 37.3632 6.27664 37.2506 6.23057C37.138 6.1845 37.0173 6.16131 36.8957 6.16237C36.774 6.16343 36.6538 6.1887 36.542 6.23673C36.4302 6.28475 36.3291 6.35455 36.2446 6.44207L34.9489 7.73769C34.8639 7.82277 34.7964 7.92376 34.7503 8.03491C34.7043 8.14606 34.6806 8.2652 34.6806 8.38551C34.6806 8.50582 34.7043 8.62495 34.7503 8.7361C34.7964 8.84725 34.8639 8.94825 34.9489 9.03332C35.034 9.11839 35.135 9.18587 35.2462 9.23192C35.3573 9.27796 35.4764 9.30165 35.5968 9.30165C35.7171 9.30165 35.8362 9.27796 35.9473 9.23192C36.0585 9.18587 36.1595 9.11839 36.2446 9.03332L37.5402 7.73769ZM22.9071 0.916868C22.9068 0.673846 22.8106 0.44076 22.6396 0.268138C22.4667 0.097581 22.2337 0.00195313 21.9908 0.00195312C21.748 0.00195313 21.515 0.097581 21.3421 0.268138C21.1711 0.44076 21.0749 0.673846 21.0746 0.916868V2.74944C21.0746 2.99317 21.1717 3.22591 21.3421 3.39817C21.515 3.56872 21.748 3.66435 21.9908 3.66435C22.2337 3.66435 22.4667 3.56872 22.6396 3.39817C22.8106 3.22554 22.9068 2.99246 22.9071 2.74944V0.916868Z" fill="#D3B99C"/>
<path d="M22.0165 40.3184L22.0641 40.322L22.1118 40.3275L22.1576 40.3349L22.2034 40.3459L22.2474 40.3587L22.2914 40.3733L22.3335 40.3898L22.3757 40.4082L22.416 40.4302L22.4545 40.4521L22.493 40.476L22.5296 40.5035L22.5663 40.5309L22.5992 40.5603L22.6322 40.5914L22.6634 40.6244L22.6927 40.6574L22.7202 40.694L22.7477 40.7307L22.7715 40.7692L22.7935 40.8077L22.8155 40.848L22.8338 40.8901L22.8503 40.9323L22.865 40.9763L22.8778 41.0202L22.8888 41.0661L22.8961 41.1119L22.9016 41.1595L22.9053 41.2072L22.9071 41.2548V43.0892L22.9053 43.1332L22.9035 43.1772L22.898 43.2212L22.8906 43.2633L22.8796 43.3073L22.8686 43.3494L22.854 43.3898L22.8393 43.4301L22.821 43.4704L22.8027 43.5089L22.7807 43.5474L22.7569 43.584L22.7312 43.6207L22.7055 43.6555L22.6762 43.6885L22.6451 43.7196L22.6139 43.7508L22.5809 43.7801L22.5461 43.8057L22.5095 43.8314L22.4728 43.8552L22.4343 43.8772L22.3958 43.8955L22.3555 43.9139L22.3152 43.9285L22.2749 43.9432L22.2327 43.9542L22.1888 43.9652L22.1466 43.9725L22.1026 43.978L22.0586 43.9798L22.0147 43.9817H22.0128L21.9652 43.9798L21.9175 43.9762L21.8699 43.9707L21.8241 43.9633L21.7783 43.9524L21.7343 43.9395L21.6903 43.9249L21.6481 43.9084L21.606 43.89L21.5657 43.8681L21.5272 43.8461L21.4887 43.8222L21.4521 43.7948L21.4154 43.7673L21.3824 43.7379L21.3494 43.7068L21.3183 43.6738L21.289 43.6408L21.2615 43.6042L21.234 43.5675L21.2102 43.529L21.1882 43.4905L21.1662 43.4502L21.1479 43.4081L21.1314 43.3659L21.1167 43.3219L21.1039 43.278L21.0929 43.2322L21.0855 43.1863L21.08 43.1387L21.0764 43.091L21.0746 43.0434V41.209L21.0764 41.165L21.0782 41.121L21.0837 41.0771L21.091 41.0349L21.102 40.9909L21.113 40.9488L21.1277 40.9085L21.1424 40.8681L21.1607 40.8278L21.179 40.7893L21.201 40.7509L21.2248 40.7142L21.2505 40.6776L21.2761 40.6427L21.3055 40.6097L21.3366 40.5786L21.3678 40.5474L21.4007 40.5181L21.4356 40.4925L21.4722 40.4668L21.5089 40.443L21.5474 40.421L21.5858 40.4027L21.6262 40.3843L21.6665 40.3697L21.7068 40.355L21.7489 40.344L21.7929 40.333L21.8351 40.3257L21.8791 40.3202L21.923 40.3184L21.967 40.3165L22.0165 40.3184ZM8.42982 34.6722L8.4738 34.6759L8.51595 34.6814L8.55993 34.6887L8.60208 34.6979L8.64423 34.7089L8.68638 34.7235L8.7267 34.7382L8.76518 34.7565L8.8055 34.7767L8.84215 34.7968L8.88063 34.8207L8.91545 34.8463L8.95027 34.8738L8.98326 34.9013L9.01624 34.9343L9.05106 34.9691L9.08222 35.0039L9.1097 35.0424L9.13719 35.0809L9.16285 35.1194L9.18484 35.1615L9.205 35.2018L9.22332 35.244L9.23982 35.2861L9.25264 35.3301L9.26547 35.3741L9.27464 35.4181L9.28197 35.4621L9.28746 35.5079L9.29113 35.5519V35.6417L9.28746 35.6875L9.28197 35.7314L9.27464 35.7754L9.26547 35.8212L9.25264 35.8634L9.23982 35.9074L9.22332 35.9495L9.205 35.9917L9.18484 36.0338L9.16285 36.0741L9.13719 36.1126L9.1097 36.1511L9.08222 36.1896L9.05106 36.2262L9.01624 36.2611L7.72062 37.5567L7.68763 37.5878L7.65464 37.6172L7.61982 37.6446L7.58317 37.6685L7.54652 37.6923L7.50987 37.7143L7.46955 37.7326L7.43107 37.7509L7.38892 37.7674L7.34861 37.7803L7.30646 37.7913L7.26431 37.8022L7.22032 37.8096L7.17634 37.8151L7.13236 37.8187H7.0444L7.00042 37.8151L6.95643 37.8096L6.91429 37.8022L6.87214 37.7913L6.82999 37.7803L6.78784 37.7674L6.74752 37.7509L6.70721 37.7326L6.66872 37.7143L6.63024 37.6923L6.59359 37.6685L6.55877 37.6446L6.52395 37.6172L6.48913 37.5878L6.45798 37.5567H6.45614L6.42316 37.5219L6.392 37.4852L6.36268 37.4467L6.33703 37.4082L6.31137 37.3698L6.28938 37.3294L6.26922 37.2873L6.2509 37.2451L6.2344 37.203L6.21974 37.159L6.20875 37.1169L6.19958 37.0729L6.19225 37.0271L6.18676 36.9831L6.18309 36.9373L6.18126 36.8933L6.18309 36.8475L6.18676 36.8035L6.19225 36.7577L6.19958 36.7137L6.20875 36.6697L6.21974 36.6257L6.2344 36.5818L6.2509 36.5396L6.26922 36.4975L6.28938 36.4571L6.31137 36.4168L6.33703 36.3765L6.36268 36.338L6.392 36.3014L6.42316 36.2647L6.45614 36.2299L7.7536 34.9324L7.78659 34.9013L7.81957 34.8738L7.85439 34.8463L7.88921 34.8207L7.92586 34.7968L7.96435 34.7767L8.00283 34.7565L8.04315 34.7382L8.08347 34.7235L8.12561 34.7089L8.16776 34.6979L8.20991 34.6887L8.25206 34.6814L8.29604 34.6759L8.34002 34.6722L8.38401 34.6704L8.42982 34.6722ZM35.6417 34.6814L35.6875 34.685L35.7314 34.6905L35.7773 34.6979L35.8212 34.7089L35.8634 34.7199L35.9055 34.7345L35.9477 34.751L35.988 34.7693L36.0283 34.7895L36.0668 34.8115L36.1053 34.8353L36.1419 34.861L36.1786 34.8885L36.2116 34.9178L36.2446 34.9489L37.5402 36.2446L37.5713 36.2775L37.6007 36.3124L37.63 36.3472L37.6556 36.3838L37.6795 36.4223L37.7015 36.4608L37.7216 36.5011L37.7399 36.5414L37.7546 36.5836L37.7693 36.6257L37.7821 36.6697L37.7913 36.7137L37.7986 36.7577L37.8041 36.8017L37.8077 36.8475L37.8096 36.8933L37.8077 36.9391L37.8041 36.9831L37.7986 37.0289L37.7913 37.0729L37.7821 37.1169L37.7693 37.159L37.7546 37.2012L37.7399 37.2433L37.7216 37.2836L37.7015 37.3239L37.6795 37.3624L37.6556 37.4009L37.63 37.4376L37.6007 37.4742L37.5713 37.5072L37.5402 37.5402L37.5072 37.5713L37.4742 37.6007L37.4376 37.63L37.4009 37.6556L37.3624 37.6795L37.3239 37.7015L37.2836 37.7216L37.2433 37.7399L37.2012 37.7546L37.159 37.7693L37.1169 37.7821L37.0729 37.7913L37.0289 37.7986L36.9831 37.8041L36.9391 37.8077L36.8933 37.8096L36.8475 37.8077L36.8017 37.8041L36.7577 37.7986L36.7137 37.7913L36.6697 37.7821L36.6257 37.7693L36.5836 37.7546L36.5414 37.7399L36.5011 37.7216L36.4608 37.7015L36.4223 37.6795L36.3838 37.6556L36.3472 37.63L36.3124 37.6007L36.2775 37.5713L36.2446 37.5402L34.9489 36.2446L34.9178 36.2116L34.8885 36.1786L34.861 36.1419L34.8353 36.1053L34.8115 36.0668L34.7895 36.0283L34.7693 35.988L34.751 35.9477L34.7345 35.9055L34.7199 35.8634L34.7089 35.8212L34.6979 35.7773L34.6905 35.7314L34.685 35.6875L34.6814 35.6417V35.5519L34.685 35.506L34.6905 35.4621L34.6979 35.4181L34.7089 35.3741L34.7199 35.3301L34.7345 35.288L34.751 35.2458L34.7693 35.2055L34.7895 35.1652L34.8115 35.1267L34.8353 35.0882L34.861 35.0516L34.8885 35.0167L34.9178 34.9819L34.9489 34.9489L34.9819 34.9178L35.0167 34.8885L35.0516 34.861L35.0882 34.8353L35.1267 34.8115L35.1652 34.7895L35.2055 34.7693L35.2458 34.751L35.288 34.7345L35.3301 34.7199L35.3741 34.7089L35.4181 34.6979L35.4621 34.6905L35.506 34.685L35.5519 34.6814H35.6417ZM43.0654 21.0746L43.1112 21.0764L43.1552 21.0782L43.201 21.0837L43.245 21.0929L43.289 21.102L43.3311 21.1149L43.3751 21.1277L43.4154 21.1442L43.4576 21.1625L43.496 21.1827L43.5364 21.2047L43.573 21.2285L43.6097 21.2541L43.6463 21.2816L43.6811 21.311L43.7141 21.3421L43.7453 21.3751L43.7746 21.4099L43.8021 21.4466L43.8277 21.4832L43.8516 21.5199L43.8736 21.5602L43.8937 21.5987L43.912 21.6408L43.9285 21.6811L43.9414 21.7251L43.9542 21.7673L43.9633 21.8112L43.9725 21.8552L43.978 21.901L43.9798 21.945L43.9817 21.9908L43.9798 22.0367L43.978 22.0806L43.9725 22.1264L43.9633 22.1704L43.9542 22.2144L43.9414 22.2566L43.9285 22.3005L43.912 22.3409L43.8937 22.383L43.8736 22.4215L43.8516 22.4618L43.8277 22.4985L43.8021 22.5351L43.7746 22.5718L43.7453 22.6066L43.7141 22.6396L43.6811 22.6707L43.6463 22.7L43.6097 22.7275L43.573 22.7532L43.5364 22.777L43.496 22.799L43.4576 22.8192L43.4154 22.8375L43.3751 22.854L43.3311 22.8668L43.289 22.8796L43.245 22.8888L43.201 22.898L43.1552 22.9035L43.1112 22.9053L43.0654 22.9071H41.2328L41.187 22.9053L41.143 22.9035L41.0972 22.898L41.0532 22.8888L41.0092 22.8796L40.9671 22.8668L40.9231 22.854L40.8828 22.8375L40.8407 22.8192L40.8022 22.799L40.7618 22.777L40.7252 22.7532L40.6885 22.7275L40.6519 22.7L40.6171 22.6707L40.5841 22.6396L40.5529 22.6066L40.5236 22.5718L40.4961 22.5351L40.4705 22.4985L40.4466 22.4618L40.4247 22.4215L40.4045 22.383L40.3862 22.3409L40.3697 22.3005L40.3568 22.2566L40.344 22.2144L40.3349 22.1704L40.3257 22.1264L40.3202 22.0806L40.3184 22.0367L40.3165 21.9908L40.3184 21.945L40.3202 21.901L40.3257 21.8552L40.3349 21.8112L40.344 21.7673L40.3568 21.7251L40.3697 21.6811L40.3862 21.6408L40.4045 21.5987L40.4247 21.5602L40.4466 21.5199L40.4705 21.4832L40.4961 21.4466L40.5236 21.4099L40.5529 21.3751L40.5841 21.3421L40.6171 21.311L40.6519 21.2816L40.6885 21.2541L40.7252 21.2285L40.7618 21.2047L40.8022 21.1827L40.8407 21.1625L40.8828 21.1442L40.9231 21.1277L40.9671 21.1149L41.0092 21.102L41.0532 21.0929L41.0972 21.0837L41.143 21.0782L41.187 21.0764L41.2328 21.0746H43.0654ZM2.75069 21.0746L2.79833 21.0764L2.84415 21.08L2.88996 21.0855L2.93578 21.0929L2.97976 21.1039L3.02191 21.1149L3.06589 21.1295L3.10621 21.146L3.14652 21.1643L3.18684 21.1845L3.22532 21.2065L3.26197 21.2303L3.29863 21.256L3.33161 21.2835L3.36643 21.3128L3.39758 21.3421L3.42691 21.3733L3.45623 21.4081L3.48372 21.4411L3.50937 21.4777L3.53319 21.5144L3.55519 21.5529L3.57534 21.5932L3.59367 21.6335L3.61016 21.6738L3.62482 21.7178L3.63582 21.7599L3.64681 21.8039L3.65414 21.8497L3.65964 21.8955L3.66331 21.9414L3.66514 21.9908L3.66331 22.0367L3.66147 22.0806L3.65598 22.1264L3.64681 22.1704L3.63765 22.2144L3.62482 22.2566L3.61199 22.3005L3.5955 22.3409L3.57718 22.383L3.55702 22.4215L3.53503 22.4618L3.5112 22.4985L3.48555 22.5351L3.45806 22.5718L3.42874 22.6066L3.39758 22.6396L3.3646 22.6707L3.32978 22.7L3.29313 22.7275L3.25648 22.7532L3.21983 22.777L3.17951 22.799L3.14102 22.8192L3.09888 22.8375L3.05856 22.854L3.01458 22.8668L2.97243 22.8796L2.92845 22.8888L2.88446 22.898L2.83865 22.9035L2.79467 22.9053L2.74885 22.9071H0.892461L0.84848 22.9053L0.804498 22.9035L0.760516 22.898L0.718367 22.8906L0.674386 22.8796L0.632237 22.8686L0.59192 22.854L0.551604 22.8393L0.511287 22.821L0.472803 22.8027L0.434319 22.7807L0.397668 22.7569L0.361016 22.7312L0.326197 22.7055L0.293211 22.6762L0.262057 22.6451L0.230904 22.6139L0.201583 22.5809L0.175927 22.5461L0.150271 22.5095L0.126447 22.4728L0.104456 22.4343L0.0861308 22.3958L0.0678051 22.3555L0.0531445 22.3152L0.038484 22.2749L0.0274885 22.2327L0.0164931 22.1888L0.00916283 22.1466L0.00366515 22.1026L0.00183257 22.0586L0 22.0147V22.0128L0.00183257 21.9652L0.00549772 21.9175L0.0109954 21.8699L0.0183257 21.8241L0.0293211 21.7783L0.0421491 21.7343L0.0568097 21.6903L0.0733028 21.6481L0.0916285 21.606L0.113619 21.5657L0.13561 21.5272L0.159434 21.4887L0.186922 21.4521L0.214411 21.4154L0.243732 21.3824L0.274885 21.3494L0.307872 21.3183L0.340858 21.289L0.377509 21.2615L0.414161 21.234L0.452645 21.2102L0.491129 21.1882L0.531445 21.1662L0.573594 21.1479L0.615743 21.1314L0.659725 21.1167L0.703707 21.1039L0.749521 21.0929L0.795335 21.0855L0.842982 21.08L0.890629 21.0764L0.938276 21.0746H2.75069ZM7.13419 6.18309L7.17818 6.18676L7.22399 6.19225L7.26797 6.19958L7.31195 6.20875L7.35594 6.21974L7.39992 6.2344L7.44207 6.2509L7.48421 6.26922L7.52453 6.28938L7.56485 6.31137L7.60516 6.33703L7.64365 6.36268L7.6803 6.392L7.71695 6.42316L7.75177 6.45614L9.03457 7.73894L9.06572 7.77193L9.09688 7.80675L9.12436 7.8434L9.15185 7.88188L9.17568 7.92037L9.19767 7.95885L9.21783 7.99917L9.23432 8.04132L9.25081 8.08163L9.26364 8.12378L9.27647 8.16776L9.28563 8.20991L9.29296 8.25389L9.29846 8.29788L9.30029 8.34002L9.30212 8.38401L9.30029 8.42799L9.29846 8.47197L9.29296 8.51595L9.28563 8.55993L9.27647 8.60208L9.26364 8.64423L9.25081 8.68638L9.23432 8.72853L9.21783 8.76885L9.19767 8.80916L9.17568 8.84948L9.15185 8.88796L9.12436 8.92461L9.09688 8.96127L9.06572 8.99792L9.03457 9.0309L9.03274 9.03274L8.99975 9.06389L8.96493 9.09321L8.93011 9.1207L8.89346 9.14636L8.85498 9.17018L8.81649 9.19217L8.77618 9.21233L8.73586 9.23065L8.69371 9.24715L8.65156 9.26181L8.60758 9.2728L8.5636 9.2838L8.51962 9.29113L8.47564 9.29663L8.42982 9.30029H8.34002L8.29421 9.29663L8.25023 9.29113L8.20441 9.2838L8.16043 9.2728L8.11828 9.26181L8.07613 9.24715L8.03399 9.23065L7.99367 9.21233L7.95335 9.19217L7.91487 9.17018L7.87639 9.14636L7.83973 9.1207L7.80308 9.09321L7.7701 9.06389L7.73711 9.03274L6.42499 7.72062L6.39384 7.68763L6.36451 7.65464L6.33703 7.61982L6.3132 7.58317L6.28938 7.54652L6.26739 7.50987L6.24906 7.46955L6.23074 7.43107L6.21424 7.38892L6.20142 7.34861L6.19042 7.30646L6.17943 7.26431L6.17209 7.22032L6.1666 7.17634L6.16293 7.13236V7.0444L6.1666 7.00042L6.17209 6.95643L6.17943 6.91429L6.19042 6.87214L6.20142 6.82999L6.21424 6.78784L6.23074 6.74752L6.24906 6.70721L6.26739 6.66872L6.28938 6.63024L6.3132 6.59359L6.33703 6.55877L6.36451 6.52395L6.39384 6.48913L6.42499 6.45798V6.45614L6.45981 6.42316L6.49646 6.392L6.53494 6.36268L6.57343 6.33703L6.61191 6.31137L6.65223 6.28938L6.69438 6.26922L6.73653 6.2509L6.77868 6.2344L6.82266 6.21974L6.86481 6.20875L6.90879 6.19958L6.9546 6.19225L6.99858 6.18676L7.0444 6.18309L7.08838 6.18126L7.13419 6.18309ZM36.9391 6.17393L36.9831 6.17759L37.0289 6.18309L37.0729 6.19042L37.1169 6.19958L37.159 6.21241L37.2012 6.22707L37.2433 6.24173L37.2836 6.26006L37.3239 6.28022L37.3624 6.30221L37.4009 6.32603L37.4376 6.35169L37.4742 6.38101L37.5072 6.41033L37.5402 6.44148L37.5713 6.47447L37.6007 6.50745L37.63 6.54411L37.6556 6.58076L37.6795 6.61924L37.7015 6.65773L37.7216 6.69804L37.7399 6.73836L37.7546 6.78051L37.7693 6.82266L37.7821 6.86481L37.7913 6.90879L37.7986 6.95277L37.8041 6.99858L37.8077 7.04257L37.8096 7.08838L37.8077 7.13419L37.8041 7.18001L37.7986 7.22399L37.7913 7.26797L37.7821 7.31195L37.7693 7.35594L37.7546 7.39808L37.7399 7.44023L37.7216 7.48055L37.7015 7.52087L37.6795 7.55935L37.6556 7.59783L37.63 7.63449L37.6007 7.6693L37.5713 7.70412L37.5402 7.73711L36.2446 9.03274L36.2116 9.06389L36.1786 9.09321L36.1419 9.1207L36.1053 9.14636L36.0668 9.17018L36.0283 9.19217L35.988 9.21233L35.9477 9.23065L35.9055 9.24715L35.8634 9.26181L35.8212 9.2728L35.7773 9.2838L35.7314 9.29113L35.6875 9.29663L35.6417 9.30029H35.5519L35.506 9.29663L35.4621 9.29113L35.4181 9.2838L35.3741 9.2728L35.3301 9.26181L35.288 9.24715L35.2458 9.23065L35.2055 9.21233L35.1652 9.19217L35.1267 9.17018L35.0882 9.14636L35.0516 9.1207L35.0167 9.09321L34.9819 9.06389L34.9489 9.03274L34.9178 8.99975L34.8885 8.96493L34.861 8.93011L34.8353 8.89346L34.8115 8.85498L34.7895 8.81649L34.7693 8.77618L34.751 8.73586L34.7345 8.69371L34.7199 8.65156L34.7089 8.60758L34.6979 8.5636L34.6905 8.51962L34.685 8.47564L34.6814 8.42982V8.34002L34.685 8.29421L34.6905 8.25023L34.6979 8.20441L34.7089 8.16043L34.7199 8.11828L34.7345 8.07613L34.751 8.03399L34.7693 7.99367L34.7895 7.95335L34.8115 7.91487L34.8353 7.87639L34.861 7.83973L34.8885 7.80308L34.9178 7.7701L34.9489 7.73711L36.2446 6.44148L36.2775 6.41033L36.3124 6.38101L36.3472 6.35169L36.3838 6.32603L36.4223 6.30221L36.4608 6.28022L36.5011 6.26006L36.5414 6.24173L36.5836 6.22707L36.6257 6.21241L36.6697 6.19958L36.7137 6.19042L36.7577 6.18309L36.8017 6.17759L36.8475 6.17393L36.8933 6.17209L36.9391 6.17393ZM22.0367 0.00183257L22.0806 0.00366515L22.1264 0.00916283L22.1704 0.0183257L22.2144 0.0274885L22.2566 0.0403165L22.3005 0.0531445L22.3409 0.0696376L22.383 0.0879634L22.4215 0.108122L22.4618 0.130112L22.4985 0.153936L22.5351 0.179592L22.5718 0.20708L22.6066 0.236402L22.6396 0.267555L22.6707 0.300541L22.7 0.33536L22.7275 0.372012L22.7532 0.408663L22.777 0.445314L22.799 0.485631L22.8192 0.524115L22.8375 0.566264L22.854 0.606581L22.8668 0.650562L22.8796 0.692711L22.8888 0.736693L22.898 0.780675L22.9035 0.826489L22.9053 0.870471L22.9071 0.916285V2.74885L22.9053 2.79467L22.9035 2.83865L22.898 2.88446L22.8888 2.92845L22.8796 2.97243L22.8668 3.01458L22.854 3.05856L22.8375 3.09888L22.8192 3.14102L22.799 3.17951L22.777 3.21983L22.7532 3.25648L22.7275 3.29313L22.7 3.32978L22.6707 3.3646L22.6396 3.39758L22.6066 3.42874L22.5718 3.45806L22.5351 3.48555L22.4985 3.5112L22.4618 3.53503L22.4215 3.55702L22.383 3.57718L22.3409 3.5955L22.3005 3.61199L22.2566 3.62482L22.2144 3.63765L22.1704 3.64681L22.1264 3.65598L22.0806 3.66147L22.0367 3.66331L21.9908 3.66514L21.945 3.66331L21.901 3.66147L21.8552 3.65598L21.8112 3.64681L21.7673 3.63765L21.7251 3.62482L21.6811 3.61199L21.6408 3.5955L21.5987 3.57718L21.5602 3.55702L21.5199 3.53503L21.4832 3.5112L21.4466 3.48555L21.4099 3.45806L21.3751 3.42874L21.3421 3.39758L21.311 3.3646L21.2816 3.32978L21.2541 3.29313L21.2285 3.25648L21.2047 3.21983L21.1827 3.17951L21.1625 3.14102L21.1442 3.09888L21.1277 3.05856L21.1149 3.01458L21.102 2.97243L21.0929 2.92845L21.0837 2.88446L21.0782 2.83865L21.0764 2.79467L21.0746 2.74885V0.916285L21.0764 0.870471L21.0782 0.826489L21.0837 0.780675L21.0929 0.736693L21.102 0.692711L21.1149 0.650562L21.1277 0.606581L21.1442 0.566264L21.1625 0.524115L21.1827 0.485631L21.2047 0.445314L21.2285 0.408663L21.2541 0.372012L21.2816 0.33536L21.311 0.300541L21.3421 0.267555L21.3751 0.236402L21.4099 0.20708L21.4466 0.179592L21.4832 0.153936L21.5199 0.130112L21.5602 0.108122L21.5987 0.0879634L21.6408 0.0696376L21.6811 0.0531445L21.7251 0.0403165L21.7673 0.0274885L21.8112 0.0183257L21.8552 0.00916283L21.901 0.00366515L21.945 0.00183257L21.9908 0L22.0367 0.00183257Z" fill="white"/>
</g>
<defs>
<clipPath id="clip0_380_94">
<rect width="44" height="44" fill="white"/>
</clipPath>
</defs>
</svg>
