<svg width="25" height="25" viewBox="0 0 25 25" fill="none" xmlns="http://www.w3.org/2000/svg">
<path d="M12.5003 0.416016C10.2364 0.416016 3.04199 9.02713 3.04199 14.8882C3.04199 20.2216 7.29199 24.5827 12.5003 24.5827C17.7087 24.5827 21.9587 20.2216 21.9587 14.8882C21.9587 9.02713 14.7642 0.416016 12.5003 0.416016ZM20.1531 14.8882C20.1531 19.2216 16.7225 22.7494 12.5003 22.7494C8.2781 22.7494 4.84755 19.2216 4.84755 14.8882C4.84755 9.58268 11.2087 2.86046 12.5003 2.27713C13.792 2.86046 20.1531 9.58268 20.1531 14.8882Z" fill="#DBC4A3"/>
<path d="M8.61139 15.9166C8.48639 15.5833 8.18083 15.3333 7.83361 15.2777C7.48639 15.2221 7.11139 15.361 6.88917 15.6388C6.66695 15.9166 6.61139 16.3055 6.73639 16.6388C7.13977 17.7071 7.76753 18.6764 8.57735 19.4814C9.38717 20.2864 10.3602 20.9084 11.4308 21.3055C11.5703 21.3545 11.7189 21.3724 11.866 21.3578C12.0131 21.3432 12.1552 21.2965 12.2824 21.221C12.4095 21.1455 12.5185 21.0431 12.6018 20.9209C12.685 20.7987 12.7404 20.6597 12.7642 20.5138C12.8074 20.2793 12.7654 20.037 12.6457 19.8307C12.526 19.6244 12.3365 19.4677 12.1114 19.3888C10.5003 18.8055 9.23639 17.5277 8.61139 15.9166Z" fill="#DBC4A3"/>
</svg>
