<svg width="24" height="24" viewBox="0 0 24 24" fill="none" xmlns="http://www.w3.org/2000/svg">
<path d="M19.0783 1.54492H6.22754C4.34082 1.54492 2.80566 3.08008 2.80566 4.9668V7.50039C2.80566 7.9668 3.18301 8.34414 3.64941 8.34414C4.11582 8.34414 4.49316 7.9668 4.49316 7.50039V4.9668C4.49316 4.01055 5.27129 3.23242 6.22754 3.23242H19.0783C20.0346 3.23242 20.8127 4.01055 20.8127 4.9668V19.0902C20.8127 20.0465 20.0346 20.8246 19.0783 20.8246H6.22754C5.27129 20.8246 4.49316 20.0465 4.49316 19.0902V16.5051C4.49316 16.0387 4.11582 15.6613 3.64941 15.6613C3.18301 15.6613 2.80566 16.0387 2.80566 16.5051V19.0902C2.80566 20.977 4.34082 22.5121 6.22754 22.5121H19.0783C20.965 22.5121 22.5002 20.977 22.5002 19.0902V4.9668C22.5002 3.08008 20.965 1.54492 19.0783 1.54492Z" fill="#EF4444" stroke="#EF4444" stroke-width="0.5"/>
<path d="M12.8836 15.9496C12.5672 16.2918 12.5883 16.8261 12.9305 17.1426C13.0922 17.2926 13.2984 17.3676 13.5023 17.3676C13.7297 17.3676 13.957 17.2761 14.1234 17.0957L18.2813 12.5957C18.4336 12.4316 18.5063 12.223 18.5039 12.0144C18.5063 11.8082 18.4313 11.5996 18.2813 11.4332L14.1234 6.93318C13.807 6.59099 13.2727 6.5699 12.9305 6.8863C12.5883 7.20271 12.5672 7.73708 12.8836 8.07927L15.7336 11.1636H2.34375C1.87734 11.1636 1.5 11.541 1.5 12.0074C1.5 12.4738 1.87734 12.8511 2.34375 12.8511H15.7453L12.8836 15.9496Z" fill="#EF4444" stroke="#EF4444" stroke-width="0.5"/>
</svg>
