<svg width="37" height="36" viewBox="0 0 37 36" fill="none" xmlns="http://www.w3.org/2000/svg">
<path d="M7.28183 13.92H16.9315C19.5824 13.92 21.7668 11.826 21.7756 9.2235C21.7845 6.6195 19.6283 4.5 16.9774 4.5C15.7187 4.5 14.5295 4.9755 13.6306 5.835C13.1863 6.25893 12.8276 6.76636 12.5747 7.329C12.2044 8.1615 12.8205 9.0945 13.7446 9.12C14.004 9.12789 14.26 9.05809 14.4805 8.91935C14.701 8.78061 14.8762 8.57909 14.9841 8.34C15.3233 7.59 16.083 7.074 16.9745 7.074C18.1814 7.074 19.1633 8.0445 19.1514 9.231C19.1396 10.407 18.1459 11.346 16.9478 11.346H7.28183C7.11213 11.3428 6.94349 11.3736 6.78559 11.4367C6.62769 11.4997 6.48364 11.5937 6.36171 11.7133C6.23979 11.8329 6.1424 11.9757 6.07513 12.1335C6.00786 12.2914 5.97204 12.4611 5.96973 12.633C5.96973 13.3455 6.55914 13.92 7.28183 13.92ZM22.0674 20.58L9.61725 20.76L9.02043 20.769C8.29774 20.7795 7.71722 21.363 7.73055 22.074C7.73795 22.785 8.33625 23.355 9.0619 23.343L9.65871 23.334C13.2973 23.28 21.7579 23.157 22.0763 23.154C23.3232 23.16 24.3258 24.198 24.2384 25.443C24.157 26.5815 23.1914 27.4455 22.0318 27.426C21.6195 27.4244 21.2162 27.3035 20.8694 27.0776C20.5226 26.8518 20.2467 26.5303 20.0741 26.151C19.9655 25.9133 19.7901 25.7134 19.5699 25.5763C19.3497 25.4391 19.0944 25.3709 18.836 25.38C17.9134 25.4055 17.2973 26.3385 17.6676 27.171C17.9134 27.726 18.2688 28.2315 18.7235 28.6635C19.6224 29.5245 20.8145 30 22.0733 30C24.7479 29.997 26.9337 27.798 26.8656 25.17C26.7989 22.6275 24.6723 20.58 22.0674 20.58Z" fill="#DBC4A3"/>
<path d="M26.8933 9.10205C26.0685 8.72705 25.174 9.43205 25.174 10.4566V10.4986C25.174 11.0881 25.4835 11.6236 25.9589 11.8441C26.7393 12.2041 27.2917 13.0861 27.2917 14.1136C27.2917 15.4606 26.341 16.5571 25.171 16.5571H5.75608C5.0482 16.5571 4.47656 17.2141 4.47656 18.0271C4.47656 18.8431 5.0482 19.5001 5.75608 19.5001H25.174C27.7538 19.5001 29.8537 17.0836 29.8537 14.1136C29.8493 11.8396 28.6231 9.89405 26.8919 9.10355L26.8933 9.10205Z" fill="#DBC4A3"/>
</svg>
