<svg width="22" height="22" viewBox="0 0 22 22" fill="none" xmlns="http://www.w3.org/2000/svg">
<g clip-path="url(#clip0_14_159)">
<path d="M2.29165 19.7083L3.57499 18.425M18.425 3.57499L19.7083 2.29165M8.79999 13.2L13.2 8.79999M16.1297 11.704C16.4735 12.0479 16.9399 12.2411 17.4263 12.2411C17.9126 12.2411 18.379 12.0479 18.7229 11.704C19.0668 11.3601 19.26 10.8937 19.26 10.4074C19.26 9.92103 19.0668 9.45462 18.7229 9.11074L17.1022 7.49099C17.4461 7.83475 17.9125 8.02783 18.3987 8.02774C18.6395 8.0277 18.8779 7.98023 19.1003 7.88806C19.3227 7.79588 19.5248 7.6608 19.695 7.49053C19.8652 7.32025 20.0003 7.11812 20.0923 6.89567C20.1844 6.67321 20.2318 6.4348 20.2318 6.19404C20.2317 5.95327 20.1843 5.71488 20.0921 5.49246C19.9999 5.27004 19.8648 5.06795 19.6946 4.89774L17.1022 2.3054C16.7585 1.96152 16.2922 1.76827 15.8059 1.76819C15.3197 1.7681 14.8533 1.96118 14.5094 2.30494C14.1656 2.64871 13.9723 3.115 13.9722 3.60124C13.9721 4.08749 14.1652 4.55385 14.509 4.89774L12.8892 3.27707C12.719 3.10679 12.5168 2.97172 12.2943 2.87957C12.0719 2.78742 11.8334 2.73999 11.5926 2.73999C11.3518 2.73999 11.1134 2.78742 10.8909 2.87957C10.6684 2.97172 10.4663 3.10679 10.296 3.27707C10.1257 3.44734 9.99064 3.64949 9.89849 3.87197C9.80634 4.09444 9.75891 4.33289 9.75891 4.57369C9.75891 4.8145 9.80634 5.05295 9.89849 5.27542C9.99064 5.4979 10.1257 5.70004 10.296 5.87032L16.1297 11.704ZM4.89774 19.6946C5.2415 20.0385 5.70779 20.2317 6.19404 20.2318C6.4348 20.2318 6.67321 20.1844 6.89567 20.0923C7.11812 20.0003 7.32025 19.8652 7.49053 19.695C7.6608 19.5248 7.79588 19.3227 7.88806 19.1003C7.98023 18.8779 8.0277 18.6395 8.02774 18.3987C8.02778 18.158 7.9804 17.9195 7.88831 17.6971C7.79621 17.4746 7.6612 17.2725 7.49099 17.1022L9.11074 18.7229C9.45462 19.0668 9.92103 19.26 10.4074 19.26C10.8937 19.26 11.3601 19.0668 11.704 18.7229C12.0479 18.379 12.2411 17.9126 12.2411 17.4263C12.2411 16.9399 12.0479 16.4735 11.704 16.1297L5.87032 10.296C5.70004 10.1257 5.4979 9.99064 5.27542 9.89849C5.05295 9.80634 4.8145 9.75891 4.57369 9.75891C4.33289 9.75891 4.09444 9.80634 3.87197 9.89849C3.64949 9.99064 3.44734 10.1257 3.27707 10.296C3.10679 10.4663 2.97172 10.6684 2.87957 10.8909C2.78742 11.1134 2.73999 11.3518 2.73999 11.5926C2.73999 11.8334 2.78742 12.0719 2.87957 12.2943C2.97172 12.5168 3.10679 12.719 3.27707 12.8892L4.89774 14.509C4.55385 14.1652 4.08749 13.9721 3.60124 13.9722C3.115 13.9723 2.64871 14.1656 2.30494 14.5094C1.96118 14.8533 1.7681 15.3197 1.76819 15.8059C1.76827 16.2922 1.96152 16.7585 2.3054 17.1022L4.89774 19.6946Z" stroke="#1976D2" stroke-width="1.83333" stroke-linecap="round" stroke-linejoin="round"/>
</g>
<defs>
<clipPath id="clip0_14_159">
<rect width="22" height="22" fill="white"/>
</clipPath>
</defs>
</svg>
