<svg width="22" height="22" viewBox="0 0 22 22" fill="none" xmlns="http://www.w3.org/2000/svg">
<path d="M18.3333 9.16668C18.3333 13.7436 13.2559 18.5103 11.5509 19.9824C11.392 20.1019 11.1987 20.1664 11 20.1664C10.8012 20.1664 10.6079 20.1019 10.449 19.9824C8.74404 18.5103 3.66663 13.7436 3.66663 9.16668C3.66663 7.22176 4.43924 5.35649 5.81451 3.98123C7.18978 2.60596 9.05504 1.83334 11 1.83334C12.9449 1.83334 14.8101 2.60596 16.1854 3.98123C17.5607 5.35649 18.3333 7.22176 18.3333 9.16668Z" stroke="#F5A623" stroke-width="1.83333" stroke-linecap="round" stroke-linejoin="round"/>
<path d="M11 11.9167C12.5188 11.9167 13.75 10.6855 13.75 9.16669C13.75 7.6479 12.5188 6.41669 11 6.41669C9.48122 6.41669 8.25 7.6479 8.25 9.16669C8.25 10.6855 9.48122 11.9167 11 11.9167Z" stroke="#F5A623" stroke-width="1.83333" stroke-linecap="round" stroke-linejoin="round"/>
</svg>
