<svg width="22" height="22" viewBox="0 0 22 22" fill="none" xmlns="http://www.w3.org/2000/svg">
<g clip-path="url(#clip0_14_158)">
<path d="M18.6817 3.17165L14.6667 1.83331C14.6667 2.80577 14.2804 3.7384 13.5927 4.42604C12.9051 5.11367 11.9725 5.49998 11 5.49998C10.0275 5.49998 9.09492 5.11367 8.40728 4.42604C7.71965 3.7384 7.33334 2.80577 7.33334 1.83331L3.31834 3.17165C2.90344 3.30987 2.55162 3.59186 2.32637 3.96671C2.10113 4.34156 2.01729 4.78458 2.09001 5.21581L2.62167 8.39665C2.65658 8.61198 2.76713 8.80781 2.93347 8.94895C3.09981 9.09009 3.31103 9.16728 3.52917 9.16665H5.50001V18.3333C5.50001 19.3416 6.32501 20.1666 7.33334 20.1666H14.6667C15.1529 20.1666 15.6192 19.9735 15.963 19.6297C16.3069 19.2859 16.5 18.8195 16.5 18.3333V9.16665H18.4708C18.689 9.16728 18.9002 9.09009 19.0665 8.94895C19.2329 8.80781 19.3434 8.61198 19.3783 8.39665L19.91 5.21581C19.9827 4.78458 19.8989 4.34156 19.6736 3.96671C19.4484 3.59186 19.0966 3.30987 18.6817 3.17165Z" stroke="#C2185B" stroke-width="1.83333" stroke-linecap="round" stroke-linejoin="round"/>
</g>
<defs>
<clipPath id="clip0_14_158">
<rect width="22" height="22" fill="white"/>
</clipPath>
</defs>
</svg>
