<svg width="20" height="24" viewBox="0 0 20 24" fill="none" xmlns="http://www.w3.org/2000/svg">
<path d="M2.31 4.65395e-06C1.326 4.65395e-06 0.492 0.738005 0.39 1.725C0.242 3.133 0 5.682 0 7.25C0 8.73 0.678 10.052 1.737 10.922C2.085 11.208 2.25 11.522 2.25 11.786V12.448L2.249 12.495C2.208 13.094 1.75 19.782 1.75 21C1.75 21.394 1.8276 21.7841 1.97836 22.1481C2.12913 22.512 2.3501 22.8427 2.62868 23.1213C2.90726 23.3999 3.23797 23.6209 3.60195 23.7716C3.96593 23.9224 4.35603 24 4.75 24C5.14397 24 5.53407 23.9224 5.89805 23.7716C6.26203 23.6209 6.59274 23.3999 6.87132 23.1213C7.1499 22.8427 7.37087 22.512 7.52164 22.1481C7.6724 21.7841 7.75 21.394 7.75 21C7.75 19.782 7.293 13.094 7.251 12.495L7.25 12.448V11.786C7.25 11.521 7.415 11.208 7.763 10.922C8.30656 10.4769 8.74438 9.91657 9.04479 9.28151C9.3452 8.64644 9.50069 7.95254 9.5 7.25C9.5 5.682 9.258 3.133 9.11 1.725C9.06003 1.25091 8.83609 0.812164 8.48147 0.49356C8.12685 0.174956 7.66672 -0.000889993 7.19 4.65395e-06C6.733 4.65395e-06 6.312 0.158005 5.98 0.423005C5.62858 0.148897 5.19568 2.01439e-05 4.75 4.65395e-06C4.30432 2.01439e-05 3.87142 0.148897 3.52 0.423005C3.17664 0.148274 2.74974 -0.00096068 2.31 4.65395e-06ZM4.25 2C4.25 1.8674 4.30268 1.74022 4.39645 1.64645C4.49021 1.55268 4.61739 1.5 4.75 1.5C4.88261 1.5 5.00979 1.55268 5.10355 1.64645C5.19732 1.74022 5.25 1.8674 5.25 2V7.25C5.25 7.44892 5.32902 7.63968 5.46967 7.78033C5.61032 7.92099 5.80109 8 6 8C6.19891 8 6.38968 7.92099 6.53033 7.78033C6.67098 7.63968 6.75 7.44892 6.75 7.25V1.94C6.75 1.82331 6.79636 1.71139 6.87887 1.62888C6.96139 1.54636 7.0733 1.5 7.19 1.5C7.415 1.5 7.597 1.667 7.619 1.881C7.767 3.301 8 5.773 8 7.25C8.00071 7.73086 7.89439 8.20585 7.68873 8.64051C7.48308 9.07517 7.18325 9.45861 6.811 9.763C6.273 10.205 5.75 10.903 5.75 11.786V12.448C5.75 12.498 5.751 12.544 5.755 12.598C5.799 13.243 6.25 19.849 6.25 21C6.25 21.3978 6.09196 21.7794 5.81066 22.0607C5.52936 22.342 5.14782 22.5 4.75 22.5C4.35218 22.5 3.97064 22.342 3.68934 22.0607C3.40804 21.7794 3.25 21.3978 3.25 21C3.25 19.85 3.7 13.243 3.745 12.598C3.749 12.544 3.75 12.498 3.75 12.448V11.786C3.75 10.902 3.227 10.205 2.689 9.763C2.31675 9.45861 2.01692 9.07517 1.81127 8.64051C1.60561 8.20585 1.49929 7.73086 1.5 7.25C1.5 5.773 1.733 3.302 1.881 1.881C1.89242 1.77556 1.94267 1.67814 2.02197 1.60771C2.10127 1.53729 2.20395 1.49889 2.31 1.5C2.4267 1.5 2.53861 1.54636 2.62113 1.62888C2.70364 1.71139 2.75 1.82331 2.75 1.94V7.25C2.75 7.44892 2.82902 7.63968 2.96967 7.78033C3.11032 7.92099 3.30109 8 3.5 8C3.69891 8 3.88968 7.92099 4.03033 7.78033C4.17098 7.63968 4.25 7.44892 4.25 7.25V2ZM17.75 1.506V11.25C17.75 11.6 17.844 13.247 17.948 15.06L17.954 15.165C18.094 17.601 18.25 20.33 18.25 21C18.25 21.3978 18.092 21.7794 17.8107 22.0607C17.5294 22.342 17.1478 22.5 16.75 22.5C16.3522 22.5 15.9706 22.342 15.6893 22.0607C15.408 21.7794 15.25 21.3978 15.25 21C15.25 20.405 15.373 17.997 15.499 15.7C15.5728 14.3539 15.6487 13.0079 15.727 11.662L15.749 11.294L15.75 11.25C15.75 11.0511 15.671 10.8603 15.5303 10.7197C15.3897 10.579 15.1989 10.5 15 10.5H13C12.9337 10.5 12.8701 10.4737 12.8232 10.4268C12.7763 10.3799 12.75 10.3163 12.75 10.25V6.75C12.75 5.40091 13.2694 4.10359 14.2003 3.12719C15.1313 2.15079 16.4024 1.57025 17.75 1.506ZM14.205 12L14.173 12.556C14.126 13.373 14.063 14.476 14.001 15.618C13.877 17.885 13.75 20.352 13.75 21C13.75 21.394 13.8276 21.7841 13.9784 22.1481C14.1291 22.512 14.3501 22.8427 14.6287 23.1213C14.9073 23.3999 15.238 23.6209 15.6019 23.7716C15.9659 23.9224 16.356 24 16.75 24C17.144 24 17.5341 23.9224 17.8981 23.7716C18.262 23.6209 18.5927 23.3999 18.8713 23.1213C19.1499 22.8427 19.3709 22.512 19.5216 22.1481C19.6724 21.7841 19.75 21.394 19.75 21C19.75 20.279 19.592 17.526 19.456 15.145L19.452 15.079C19.343 13.18 19.25 11.55 19.25 11.25V0.750005C19.25 0.551092 19.171 0.360327 19.0303 0.219674C18.8897 0.0790222 18.6989 4.65395e-06 18.5 4.65395e-06H18C16.2098 4.65395e-06 14.4929 0.711163 13.227 1.97703C11.9612 3.2429 11.25 4.95979 11.25 6.75V10.25C11.25 11.216 12.034 12 13 12H14.205Z" fill="#C21717"/>
</svg>
