<svg width="22" height="22" viewBox="0 0 22 22" fill="none" xmlns="http://www.w3.org/2000/svg">
<g clip-path="url(#clip0_14_70)">
<path d="M5.544 12.606C5.544 11.9607 5.72 11.22 6.072 10.384C6.6 9.13 6.87867 8.734 7.436 7.95666C8.58 6.446 9.57733 5.302 10.4133 4.532L10.9633 4.004C11.1467 4.19466 11.352 4.37066 11.572 4.532C11.8727 4.84 12.3347 5.346 12.9507 6.06466C13.5667 6.78333 14.102 7.42133 14.542 8.008C15.0627 8.74866 15.51 9.548 15.8693 10.3913C16.2287 11.2347 16.412 11.9753 16.412 12.6133C16.412 13.3467 16.2727 14.0433 15.9867 14.7107C15.7007 15.378 15.3193 15.9573 14.8353 16.4413C14.3513 16.9253 13.772 17.314 13.0973 17.6C12.4227 17.886 11.7113 18.0327 10.9633 18.0327C10.23 18.0327 9.53333 17.8933 8.866 17.6147C8.19867 17.336 7.61933 16.962 7.13533 16.478C6.65133 16.0013 6.26267 15.422 5.97667 14.7547C5.69067 14.0873 5.544 13.3687 5.544 12.606ZM7.20133 10.4573C7.20133 11.066 7.326 11.55 7.58267 11.9167C7.83933 12.276 8.228 12.4593 8.74867 12.4593C9.27667 12.4593 9.66533 12.276 9.92933 11.9167C10.186 11.5573 10.318 11.0733 10.3253 10.4573C10.318 9.84133 10.186 9.35733 9.92933 8.99066C9.67267 8.63133 9.27667 8.448 8.74867 8.448C8.228 8.448 7.83933 8.63133 7.58267 8.99066C7.326 9.35733 7.20133 9.84133 7.20133 10.4573ZM8.35267 10.4573V10.2007C8.35267 10.142 8.36 10.0613 8.36733 9.95866C8.37467 9.856 8.382 9.77533 8.404 9.724C8.426 9.67266 8.44067 9.60667 8.47 9.548C8.49933 9.48933 8.536 9.438 8.58 9.416C8.63133 9.38666 8.68267 9.372 8.74867 9.372C8.85133 9.372 8.932 9.40133 8.99067 9.46C9.07867 9.548 9.09333 9.614 9.11533 9.73866C9.13733 9.87066 9.152 9.97333 9.15933 10.0687C9.16667 10.164 9.16667 10.2887 9.16667 10.45C9.16667 10.6187 9.16667 10.7433 9.15933 10.8313C9.152 10.9193 9.13733 11.0293 9.11533 11.1613C9.09333 11.286 9.04933 11.3813 8.99067 11.44C8.932 11.4987 8.85133 11.528 8.74867 11.528C8.68267 11.528 8.63133 11.5133 8.58 11.484C8.52885 11.4544 8.48987 11.4076 8.47 11.352C8.44067 11.2933 8.41867 11.2273 8.404 11.176C8.38933 11.1173 8.37467 11.0367 8.36733 10.9413C8.36 10.8387 8.35267 10.758 8.35267 10.7067V10.4573ZM8.78533 16.1407H9.75333L13.4127 8.26466H12.4227L8.78533 16.1407ZM11.9387 13.948C11.946 14.564 12.0853 15.048 12.342 15.4147C12.5987 15.774 12.9947 15.9573 13.5153 15.9573C14.0433 15.9573 14.432 15.774 14.6887 15.4147C14.9453 15.0553 15.07 14.564 15.0773 13.948C15.07 13.332 14.9453 12.848 14.6887 12.4887C14.432 12.1293 14.0433 11.946 13.5153 11.946C12.9947 11.946 12.5987 12.1293 12.342 12.4887C12.078 12.848 11.946 13.332 11.9387 13.948ZM13.09 13.948C13.09 13.7793 13.09 13.6547 13.0973 13.5667C13.1047 13.4787 13.1193 13.3687 13.1413 13.2367C13.1743 13.0387 13.2073 13.0167 13.266 12.958C13.3247 12.8993 13.4053 12.87 13.508 12.87C13.574 12.87 13.6327 12.8847 13.684 12.914C13.7353 12.9433 13.772 12.9873 13.8013 13.0533C13.8307 13.1193 13.8527 13.178 13.8747 13.2293C13.8967 13.2807 13.904 13.3613 13.9113 13.464L13.9187 13.6987V14.2047L13.9113 14.4393L13.8747 14.674L13.8013 14.85L13.684 14.9893L13.508 15.0333C13.4053 15.0333 13.3247 15.004 13.266 14.9453C13.178 14.8573 13.1633 14.7913 13.1413 14.6667C13.1193 14.5347 13.1047 14.4247 13.0973 14.3367C13.0863 14.2047 13.09 14.1167 13.09 13.948Z" fill="#E91E8C"/>
</g>
<defs>
<clipPath id="clip0_14_70">
<rect width="22" height="22" fill="white"/>
</clipPath>
</defs>
</svg>
