<svg width="22" height="22" viewBox="0 0 22 22" fill="none" xmlns="http://www.w3.org/2000/svg">
<g clip-path="url(#clip0_14_344)">
<path d="M9.41227 19.25C9.57319 19.5287 9.80462 19.7601 10.0833 19.921C10.362 20.0819 10.6781 20.1666 10.9999 20.1666C11.3217 20.1666 11.6379 20.0819 11.9166 19.921C12.1953 19.7601 12.4267 19.5287 12.5876 19.25M2.99011 14.0488C2.87036 14.1801 2.79133 14.3433 2.76264 14.5187C2.73395 14.694 2.75683 14.8739 2.8285 15.0365C2.90018 15.199 3.01755 15.3373 3.16634 15.4344C3.31514 15.5315 3.48894 15.5832 3.66661 15.5833H18.3333C18.5109 15.5834 18.6848 15.5318 18.8337 15.4349C18.9825 15.338 19.1001 15.1999 19.1719 15.0375C19.2438 14.875 19.2669 14.6952 19.2384 14.5198C19.21 14.3445 19.1312 14.1812 19.0116 14.0498C17.7924 12.793 16.4999 11.4574 16.4999 7.33334C16.4999 5.87465 15.9205 4.47571 14.889 3.44426C13.8576 2.41281 12.4586 1.83334 10.9999 1.83334C9.54125 1.83334 8.1423 2.41281 7.11085 3.44426C6.0794 4.47571 5.49994 5.87465 5.49994 7.33334C5.49994 11.4574 4.20652 12.793 2.99011 14.0488Z" stroke="#4CAF7D" stroke-width="1.83333" stroke-linecap="round" stroke-linejoin="round"/>
</g>
<defs>
<clipPath id="clip0_14_344">
<rect width="22" height="22" fill="white"/>
</clipPath>
</defs>
</svg>
