<svg width="22" height="22" viewBox="0 0 22 22" fill="none" xmlns="http://www.w3.org/2000/svg">
<g clip-path="url(#clip0_14_379)">
<path d="M11 11.9167V19.25M14.6667 15.5833L11 19.25L7.33337 15.5833" stroke="#4A9FD4" stroke-width="1.83333" stroke-linecap="round" stroke-linejoin="round"/>
<path d="M4.0269 13.9966C3.27823 13.3416 2.69207 12.5216 2.31472 11.6013C1.93737 10.6809 1.77916 9.68541 1.85259 8.69341C1.92601 7.70141 2.22906 6.74007 2.73781 5.88529C3.24655 5.03052 3.94705 4.30573 4.78399 3.76815C5.62093 3.23058 6.57139 2.89495 7.56031 2.78776C8.54923 2.68057 9.54953 2.80477 10.4822 3.15053C11.4149 3.4963 12.2544 4.05417 12.9345 4.78009C13.6146 5.50602 14.1166 6.3801 14.4008 7.33334H16.0417C16.9327 7.33322 17.7999 7.62165 18.5133 8.15545C19.2268 8.68926 19.7482 9.43974 19.9996 10.2946C20.251 11.1495 20.2188 12.0628 19.9079 12.8978C19.5969 13.7328 19.0239 14.4448 18.2747 14.927" stroke="#4A9FD4" stroke-width="1.83333" stroke-linecap="round" stroke-linejoin="round"/>
</g>
<defs>
<clipPath id="clip0_14_379">
<rect width="22" height="22" fill="white"/>
</clipPath>
</defs>
</svg>
