<svg width="17" height="17" viewBox="0 0 17 17" fill="none" xmlns="http://www.w3.org/2000/svg">
<g clip-path="url(#clip0_14_285)">
<path d="M6.85026 2.92966C6.88929 2.51907 7.08 2.13778 7.38513 1.86028C7.69026 1.58278 8.08788 1.42901 8.50033 1.42901C8.91277 1.42901 9.3104 1.58278 9.61552 1.86028C9.92065 2.13778 10.1114 2.51907 10.1504 2.92966C10.1738 3.1949 10.2609 3.45059 10.4041 3.67507C10.5473 3.89956 10.7425 4.08624 10.9731 4.21931C11.2037 4.35238 11.463 4.42793 11.7291 4.43956C11.9951 4.45119 12.26 4.39856 12.5013 4.28612C12.8761 4.11597 13.3008 4.09134 13.6928 4.21705C14.0847 4.34276 14.4158 4.6098 14.6218 4.9662C14.8277 5.3226 14.8936 5.74286 14.8067 6.14519C14.7198 6.54753 14.4864 6.90314 14.1518 7.14283C13.9339 7.29572 13.756 7.49885 13.6332 7.73502C13.5104 7.97119 13.4463 8.23346 13.4463 8.49964C13.4463 8.76583 13.5104 9.0281 13.6332 9.26427C13.756 9.50044 13.9339 9.70356 14.1518 9.85646C14.4864 10.0961 14.7198 10.4518 14.8067 10.8541C14.8936 11.2564 14.8277 11.6767 14.6218 12.0331C14.4158 12.3895 14.0847 12.6565 13.6928 12.7822C13.3008 12.9079 12.8761 12.8833 12.5013 12.7132C12.26 12.6007 11.9951 12.5481 11.7291 12.5597C11.463 12.5714 11.2037 12.6469 10.9731 12.78C10.7425 12.913 10.5473 13.0997 10.4041 13.3242C10.2609 13.5487 10.1738 13.8044 10.1504 14.0696C10.1114 14.4802 9.92065 14.8615 9.61552 15.139C9.3104 15.4165 8.91277 15.5703 8.50033 15.5703C8.08788 15.5703 7.69026 15.4165 7.38513 15.139C7.08 14.8615 6.88929 14.4802 6.85026 14.0696C6.82685 13.8043 6.73983 13.5485 6.59658 13.3239C6.45334 13.0994 6.25808 12.9126 6.02734 12.7796C5.79661 12.6465 5.5372 12.5709 5.27109 12.5594C5.00498 12.5478 4.74 12.6006 4.4986 12.7132C4.12381 12.8833 3.69912 12.9079 3.30718 12.7822C2.91524 12.6565 2.58409 12.3895 2.37819 12.0331C2.17228 11.6767 2.10635 11.2564 2.19323 10.8541C2.2801 10.4518 2.51356 10.0961 2.84818 9.85646C3.06608 9.70356 3.24395 9.50044 3.36674 9.26427C3.48954 9.0281 3.55365 8.76583 3.55365 8.49964C3.55365 8.23346 3.48954 7.97119 3.36674 7.73502C3.24395 7.49885 3.06608 7.29572 2.84818 7.14283C2.51403 6.90302 2.28098 6.54754 2.19432 6.14548C2.10765 5.74343 2.17357 5.32351 2.37925 4.96734C2.58493 4.61117 2.91569 4.34419 3.30724 4.21829C3.69879 4.0924 4.12317 4.11657 4.49789 4.28612C4.73926 4.39856 5.00416 4.45119 5.27018 4.43956C5.5362 4.42793 5.79551 4.35238 6.02614 4.21931C6.25678 4.08624 6.45196 3.89956 6.59517 3.67507C6.73837 3.45059 6.82539 3.1949 6.84885 2.92966" stroke="#E8547A" stroke-width="1.41667" stroke-linecap="round" stroke-linejoin="round"/>
<path d="M8.5 10.625C9.6736 10.625 10.625 9.6736 10.625 8.5C10.625 7.32639 9.6736 6.375 8.5 6.375C7.32639 6.375 6.375 7.32639 6.375 8.5C6.375 9.6736 7.32639 10.625 8.5 10.625Z" stroke="#E8547A" stroke-width="1.41667" stroke-linecap="round" stroke-linejoin="round"/>
</g>
<defs>
<clipPath id="clip0_14_285">
<rect width="17" height="17" fill="white"/>
</clipPath>
</defs>
</svg>
