<svg width="22" height="22" viewBox="0 0 22 22" fill="none" xmlns="http://www.w3.org/2000/svg">
<g clip-path="url(#clip0_14_190)">
<path d="M17.4167 15.5834H19.25C19.8 15.5834 20.1667 15.2167 20.1667 14.6667V11.9167C20.1667 11.0917 19.525 10.3584 18.7917 10.175C17.1417 9.71669 14.6667 9.16669 14.6667 9.16669C14.6667 9.16669 13.475 7.88335 12.65 7.05835C12.1917 6.69169 11.6417 6.41669 11 6.41669H4.58333C4.03333 6.41669 3.57499 6.78335 3.29999 7.24169L2.01666 9.90002C1.89528 10.2541 1.83333 10.6257 1.83333 11V14.6667C1.83333 15.2167 2.19999 15.5834 2.74999 15.5834H4.58333" stroke="#388E3C" stroke-width="1.83333" stroke-linecap="round" stroke-linejoin="round"/>
<path d="M6.41666 17.4167C7.42918 17.4167 8.24999 16.5959 8.24999 15.5833C8.24999 14.5708 7.42918 13.75 6.41666 13.75C5.40414 13.75 4.58333 14.5708 4.58333 15.5833C4.58333 16.5959 5.40414 17.4167 6.41666 17.4167Z" stroke="#388E3C" stroke-width="1.83333" stroke-linecap="round" stroke-linejoin="round"/>
<path d="M8.25 15.5834H13.75" stroke="#388E3C" stroke-width="1.83333" stroke-linecap="round" stroke-linejoin="round"/>
<path d="M15.5833 17.4167C16.5959 17.4167 17.4167 16.5959 17.4167 15.5833C17.4167 14.5708 16.5959 13.75 15.5833 13.75C14.5708 13.75 13.75 14.5708 13.75 15.5833C13.75 16.5959 14.5708 17.4167 15.5833 17.4167Z" stroke="#388E3C" stroke-width="1.83333" stroke-linecap="round" stroke-linejoin="round"/>
</g>
<defs>
<clipPath id="clip0_14_190">
<rect width="22" height="22" fill="white"/>
</clipPath>
</defs>
</svg>
