<svg width="22" height="22" viewBox="0 0 22 22" fill="none" xmlns="http://www.w3.org/2000/svg">
<g clip-path="url(#clip0_14_141)">
<path d="M3.20467 10.7213C3.20467 10.5453 3.26334 10.3913 3.388 10.2667C3.51267 10.1493 3.66667 10.0907 3.828 10.0907H5.324C5.49267 10.0907 5.632 10.1493 5.74934 10.274C5.85934 10.3987 5.918 10.5453 5.918 10.7213C5.918 10.8973 5.86667 11.044 5.75667 11.1687C5.64667 11.2933 5.5 11.352 5.33134 11.352H3.83534C3.66667 11.352 3.52 11.2933 3.39534 11.1687C3.33452 11.1112 3.2862 11.0418 3.25339 10.9649C3.22059 10.8879 3.204 10.805 3.20467 10.7213ZM5.302 15.8033C5.302 15.6347 5.36067 15.488 5.47067 15.356L6.54867 14.3073C6.65867 14.19 6.80534 14.1387 6.98134 14.1387C7.15734 14.1387 7.304 14.1973 7.42134 14.3073C7.53867 14.4173 7.59734 14.5567 7.59734 14.7253C7.59734 14.9013 7.53867 15.0627 7.42134 15.1947L6.38 16.236C6.07934 16.4707 5.77867 16.4707 5.478 16.236C5.4206 16.1798 5.37536 16.1123 5.34509 16.0379C5.31481 15.9635 5.30015 15.8836 5.302 15.8033ZM5.302 5.65399C5.302 5.48532 5.36067 5.33865 5.47067 5.20665C5.61734 5.08199 5.77134 5.02332 5.94 5.02332C6.10134 5.02332 6.248 5.08199 6.37267 5.19932L7.42134 6.27732C7.53867 6.38732 7.59734 6.53399 7.59734 6.70999C7.59734 6.88599 7.53867 7.03265 7.42134 7.14999C7.24534 7.32599 7.15734 7.32599 6.98134 7.32599C6.80534 7.32599 6.65867 7.26732 6.54867 7.14999L5.478 6.10132C5.42018 6.04236 5.3748 5.97238 5.34457 5.89553C5.31433 5.81868 5.29986 5.73654 5.302 5.65399ZM7.172 10.7213C7.172 10.0393 7.34067 9.40132 7.68534 8.81465C8.03 8.22799 8.492 7.75865 9.086 7.41399C9.68 7.06932 10.3107 6.90065 10.9927 6.90065C11.506 6.90065 11.9973 7.00332 12.474 7.20865C12.9433 7.41399 13.354 7.68532 13.6913 8.02999C14.036 8.37465 14.3073 8.77799 14.5053 9.24732C14.7033 9.71665 14.806 10.2153 14.806 10.7287C14.806 11.418 14.6373 12.056 14.2927 12.6427C13.948 13.2293 13.486 13.6913 12.8993 14.036C12.3127 14.3807 11.6747 14.5493 10.9853 14.5493C10.296 14.5493 9.658 14.3807 9.07134 14.036C8.48467 13.6913 8.02267 13.2293 7.678 12.6427C7.348 12.0487 7.172 11.4107 7.172 10.7213ZM8.41867 10.7213C8.41867 11.44 8.668 12.0487 9.174 12.5547C9.67267 13.0607 10.2813 13.3173 11 13.3173C11.7187 13.3173 12.3273 13.0607 12.8333 12.5547C13.3393 12.0487 13.596 11.44 13.596 10.7213C13.596 10.0173 13.3393 9.41599 12.8333 8.90999C12.3273 8.41132 11.7187 8.16199 11 8.16199C10.2887 8.16199 9.68 8.41132 9.18134 8.90999C8.668 9.41599 8.41867 10.0173 8.41867 10.7213ZM10.3693 16.4267C10.3693 16.2507 10.428 16.104 10.5527 15.9867C10.6773 15.8693 10.824 15.8107 10.9927 15.8107C11.1687 15.8107 11.3227 15.8693 11.44 15.9867C11.5573 16.104 11.616 16.2507 11.616 16.4267V17.886C11.616 18.062 11.5573 18.216 11.4327 18.3407C11.308 18.4653 11.1613 18.524 10.9927 18.524C10.824 18.524 10.67 18.4653 10.5527 18.3407C10.493 18.2812 10.4459 18.2102 10.4144 18.1321C10.3829 18.054 10.3676 17.9702 10.3693 17.886V16.4267ZM10.3693 5.05999V3.56399C10.3693 3.39532 10.428 3.24865 10.5527 3.12399C10.6773 2.99932 10.824 2.93332 11 2.93332C11.176 2.93332 11.3153 2.99199 11.44 3.11665C11.5647 3.24132 11.6233 3.38799 11.6233 3.55665V5.05999C11.6233 5.22865 11.5647 5.36799 11.44 5.48532C11.3153 5.60265 11.1687 5.65399 11 5.65399C10.8313 5.65399 10.6773 5.59532 10.56 5.48532C10.4427 5.37532 10.3693 5.22865 10.3693 5.05999ZM14.4173 14.7253C14.4173 14.5567 14.476 14.4173 14.586 14.3147C14.696 14.1973 14.8353 14.146 14.9967 14.146C15.1727 14.146 15.3193 14.2047 15.4367 14.3147L16.5073 15.3633C16.6247 15.488 16.6833 15.642 16.6833 15.8107C16.6833 15.9793 16.6247 16.126 16.5073 16.2433C16.214 16.4707 15.9207 16.4707 15.6273 16.2433L14.586 15.202C14.4733 15.0691 14.4133 14.8995 14.4173 14.7253ZM14.4173 6.71732C14.4173 6.53399 14.476 6.38732 14.586 6.28465L15.6273 5.20665C15.7429 5.09346 15.8983 5.03024 16.06 5.03065C16.236 5.03065 16.3827 5.08932 16.5 5.21399C16.6247 5.33865 16.6833 5.48532 16.6833 5.65399C16.6833 5.83732 16.6247 5.99132 16.5073 6.10865L15.4367 7.15732C15.3047 7.27465 15.158 7.33332 14.9967 7.33332C14.828 7.33332 14.696 7.27465 14.586 7.15732C14.476 7.03999 14.4173 6.89332 14.4173 6.71732ZM16.0747 10.7213C16.0747 10.5453 16.1333 10.3987 16.2507 10.2667C16.368 10.1493 16.5073 10.0907 16.6687 10.0907H18.15C18.3187 10.0907 18.4653 10.1567 18.59 10.2813C18.7147 10.406 18.7807 10.5527 18.7807 10.7213C18.7807 10.89 18.7147 11.0367 18.59 11.1613C18.4653 11.286 18.3187 11.3447 18.15 11.3447H16.6687C16.5 11.3447 16.3533 11.286 16.2433 11.1613C16.1333 11.0367 16.0747 10.8973 16.0747 10.7213Z" fill="#E91E8C"/>
</g>
<defs>
<clipPath id="clip0_14_141">
<rect width="22" height="22" fill="white"/>
</clipPath>
</defs>
</svg>
