<svg width="22" height="22" viewBox="0 0 22 22" fill="none" xmlns="http://www.w3.org/2000/svg">
<g clip-path="url(#clip0_14_156)">
<path d="M11 8.24998V11.9166M11 15.5833H11.0092M19.9192 16.5L12.5858 3.66665C12.4259 3.3845 12.194 3.14982 11.9138 2.98655C11.6336 2.82327 11.3151 2.73724 10.9908 2.73724C10.6665 2.73724 10.348 2.82327 10.0678 2.98655C9.78761 3.14982 9.55573 3.3845 9.39583 3.66665L2.0625 16.5C1.90087 16.7799 1.81612 17.0976 1.81684 17.4208C1.81755 17.744 1.90371 18.0613 2.06657 18.3405C2.22943 18.6197 2.46322 18.8509 2.74422 19.0106C3.02522 19.1703 3.34345 19.2529 3.66666 19.25H18.3333C18.655 19.2497 18.9709 19.1647 19.2493 19.0037C19.5278 18.8426 19.7589 18.6112 19.9196 18.3325C20.0803 18.0539 20.1649 17.7378 20.1648 17.4162C20.1647 17.0945 20.08 16.7785 19.9192 16.5Z" stroke="#F57C00" stroke-width="1.83333" stroke-linecap="round" stroke-linejoin="round"/>
</g>
<defs>
<clipPath id="clip0_14_156">
<rect width="22" height="22" fill="white"/>
</clipPath>
</defs>
</svg>
