<svg width="22" height="22" viewBox="0 0 22 22" fill="none" xmlns="http://www.w3.org/2000/svg">
<g clip-path="url(#clip0_14_73)">
<path d="M2.27333 12.4447C2.27333 12.6207 2.33933 12.7747 2.47866 12.8993C2.596 13.0387 2.75 13.1047 2.94066 13.1047H13.7133C13.926 13.1047 14.102 13.178 14.2487 13.3247C14.3953 13.4713 14.4687 13.6547 14.4687 13.8673C14.4687 14.08 14.3953 14.256 14.2487 14.3953C14.102 14.5347 13.926 14.608 13.706 14.608C13.4933 14.608 13.31 14.5347 13.1707 14.3953C13.1161 14.3328 13.0483 14.2832 12.9722 14.2503C12.8961 14.2173 12.8136 14.2017 12.7307 14.2047C12.5473 14.2047 12.3933 14.2707 12.2613 14.3953C12.1293 14.52 12.0633 14.674 12.0633 14.8427C12.0633 15.026 12.1293 15.18 12.2687 15.3047C12.6793 15.708 13.1633 15.9133 13.706 15.9133C14.278 15.9133 14.7693 15.7153 15.18 15.3193C15.5907 14.9233 15.7887 14.4467 15.7887 13.8747C15.7887 13.3027 15.5833 12.8187 15.1727 12.408C14.762 11.9973 14.2707 11.792 13.706 11.792H2.94066C2.85373 11.7913 2.76752 11.8078 2.68698 11.8405C2.60643 11.8732 2.53315 11.9215 2.47133 11.9827C2.33933 12.1073 2.27333 12.2613 2.27333 12.4447ZM2.27333 10.0393C2.27333 10.208 2.33933 10.3547 2.47866 10.4867C2.60333 10.6187 2.75733 10.6773 2.94066 10.6773H17.6367C18.2087 10.6773 18.7 10.4793 19.1107 10.076C19.5213 9.67999 19.7267 9.19599 19.7267 8.63132C19.7267 8.06666 19.5213 7.57532 19.1107 7.17199C18.7 6.76866 18.2087 6.56332 17.6367 6.56332C17.072 6.56332 16.5953 6.76132 16.2067 7.14999C16.0747 7.26732 16.0087 7.42866 16.0087 7.64132C16.0087 7.83199 16.0747 7.98599 16.1993 8.10332C16.324 8.22066 16.478 8.27932 16.6613 8.27932C16.8373 8.27932 16.9913 8.22066 17.1233 8.10332C17.2627 7.94932 17.4313 7.87599 17.6367 7.87599C17.8493 7.87599 18.0253 7.94932 18.172 8.09599C18.3187 8.24266 18.392 8.41866 18.392 8.63132C18.392 8.84399 18.3187 9.01999 18.172 9.15932C18.0253 9.29866 17.8493 9.37199 17.6367 9.37199H2.94066C2.76368 9.37199 2.59394 9.4423 2.46879 9.56745C2.34364 9.6926 2.27333 9.86234 2.27333 10.0393Z" fill="#E91E8C"/>
</g>
<defs>
<clipPath id="clip0_14_73">
<rect width="22" height="22" fill="white"/>
</clipPath>
</defs>
</svg>
